<?xml version="1.0" encoding="UTF-8"?><svg id="a" xmlns="http://www.w3.org/2000/svg" viewBox="0 0 85.03 67.59"><defs><style>.b{fill:#fff;fill-rule:evenodd;stroke-width:0px;}</style></defs><path class="b" d="M77.04,67.29c5.09,1.63,9.79-3.88,7.3-8.65-.7-1.34-1.91-2.38-3.32-2.9-1.15-.43-2.34-.74-3.52-1.08-2.09-.6-5.05-1.4-8.61-2.19-7.06-1.58-16.65-3.2-26.37-3.2s-19.31,1.62-26.37,3.2c-3.55.79-6.52,1.59-8.61,2.19-1.05.3-1.87.55-2.45.73-2.4.75-4.36,2.18-4.94,4.76-1.02,4.56,3.45,8.62,7.87,7.13l.13-.04c.12-.04.3-.1.55-.17.49-.15,1.23-.38,2.18-.65,1.9-.55,4.63-1.28,7.91-2.01,6.6-1.48,15.24-2.91,23.74-2.91s17.13,1.43,23.74,2.91c3.28.73,6.01,1.47,7.91,2.01.95.27,1.69.5,2.18.65.25.08.43.14.55.17,0,0,.13.04.15.05Z"/><path class="b" d="M9.04,44.13c-5.02,1.22-9.72-4.11-6.95-9.06C10.66,19.78,20.06,10.43,35.44,1.84c4.4-2.46,9.75-2.46,14.15,0,15.38,8.59,24.78,17.93,33.34,33.22,2.77,4.95-1.92,10.29-6.95,9.06-8.38-2.04-22.48-5-33.47-5s-25.09,2.96-33.47,5Z"/></svg>