<?xml version="1.0" encoding="utf-8"?>
<!-- Generator: Adobe Illustrator 28.2.0, SVG Export Plug-In . SVG Version: 6.00 Build 0)  -->
<svg version="1.1" id="a" xmlns="http://www.w3.org/2000/svg" xmlns:xlink="http://www.w3.org/1999/xlink" x="0px" y="0px"
	 viewBox="0 0 300 680" style="enable-background:new 0 0 300 680;" xml:space="preserve">
<style type="text/css">
	.st0{display:none;fill:#2EC998;}
	.st1{fill:#F1DDC0;}
	.st2{display:none;fill:#E4BE5F;}
	.st3{display:none;fill:#F2D268;}
	.st4{fill:#A5112A;}
</style>
<path class="st0" d="M354.1-21.6H-53.1v724.1h407.1V-21.6z"/>
<path class="st1" d="M300.3,259c-12.4-8.1-27.1-12.8-43-12.8c-9.1,0-17.8,1.5-25.8,4.4c-11-30.1-39.9-51.5-73.7-51.5
	c-28.7,0-53.7,15.4-67.4,38.3c-11.9-7.2-25.8-11.4-40.8-11.4c-18.5,0-35.4,6.4-48.8,17v123c4.3,3.4,8.9,6.4,13.9,8.9
	c-2.7,8-4.2,16.5-4.2,25.4c0,43.4,35.1,78.5,78.5,78.5c24.5,0,46.5-11.3,60.9-28.9c14.3,18.9,37,31.1,62.6,31.1
	c43.4,0,78.5-35.2,78.5-78.5c0-2.2-0.1-4.4-0.3-6.6c3.4-1.6,6.6-3.4,9.7-5.4V259z"/>
<path class="st1" d="M144.3,80.3c-4.4,0-8.6,1.1-12.3,2.9c-6.2-12.3-18.9-20.7-33.5-20.7c-16.9,0-31.3,11.2-35.9,26.7
	c-1.2-0.2-2.4-0.3-3.7-0.3c-12.6,0-22.8,10.2-22.8,22.8c0,5,1.6,9.6,4.4,13.4h124.4c4.1-4.8,6.6-11,6.6-17.8
	C171.4,92.4,159.3,80.3,144.3,80.3L144.3,80.3z"/>
<path class="st2" d="M273.3,78.4c1.4-1.4,0.7-3.8-1.3-4.1l-6.2-1c-0.8-0.1-1.4-0.6-1.8-1.3l-2.7-5.7c-0.9-1.8-3.4-1.8-4.3-0.1
	l-2.9,5.6c-0.4,0.7-1,1.2-1.8,1.3l-6.3,0.8c-2,0.2-2.8,2.7-1.4,4.1l4.4,4.5c0.6,0.6,0.8,1.3,0.6,2.1l-1.2,6.2
	c-0.4,1.9,1.7,3.5,3.4,2.6l5.6-2.8c0.7-0.3,1.5-0.3,2.2,0l5.5,3c1.7,0.9,3.8-0.5,3.5-2.5l-1-6.2c-0.1-0.8,0.1-1.6,0.7-2.1
	L273.3,78.4L273.3,78.4L273.3,78.4z"/>
<path class="st3" d="M273.3,76.8c1.4-1.4,0.7-3.8-1.3-4.1l-6.2-1c-0.8-0.1-1.4-0.6-1.8-1.3l-2.7-5.7c-0.9-1.8-3.4-1.8-4.3-0.1
	l-2.9,5.6c-0.4,0.7-1,1.2-1.8,1.3l-6.3,0.8c-2,0.2-2.8,2.7-1.4,4.1l4.4,4.5c0.6,0.6,0.8,1.3,0.6,2.1l-1.2,6.2
	c-0.4,1.9,1.7,3.5,3.4,2.6l5.6-2.8c0.7-0.4,1.5-0.3,2.2,0l5.5,3c1.7,0.9,3.8-0.5,3.5-2.5l-1-6.2c-0.1-0.8,0.1-1.6,0.7-2.1
	L273.3,76.8L273.3,76.8L273.3,76.8z"/>
<path class="st2" d="M85.6,441.3c1.4-1.4,0.7-3.8-1.3-4.1l-6.2-1c-0.8-0.1-1.4-0.6-1.8-1.3l-2.7-5.7c-0.8-1.8-3.4-1.8-4.3-0.1
	l-2.9,5.6c-0.4,0.7-1,1.2-1.8,1.3l-6.3,0.8c-2,0.2-2.8,2.6-1.4,4l4.5,4.5c0.5,0.6,0.8,1.4,0.7,2.1l-1.2,6.2c-0.4,2,1.7,3.5,3.4,2.6
	l5.6-2.9c0.7-0.4,1.5-0.3,2.2,0l5.6,3c1.7,1,3.8-0.5,3.5-2.5l-1-6.2c-0.1-0.8,0.2-1.6,0.7-2.1L85.6,441.3L85.6,441.3L85.6,441.3z"/>
<path class="st3" d="M85.6,439.8c1.4-1.4,0.7-3.8-1.3-4.1l-6.2-1c-0.8-0.1-1.4-0.6-1.8-1.3l-2.7-5.7c-0.8-1.8-3.4-1.8-4.3-0.1
	l-2.9,5.6c-0.4,0.7-1,1.2-1.8,1.3l-6.3,0.8c-2,0.2-2.8,2.6-1.4,4l4.5,4.5c0.5,0.6,0.8,1.4,0.7,2.1l-1.2,6.2c-0.4,2,1.7,3.5,3.4,2.6
	l5.6-2.9c0.7-0.4,1.5-0.3,2.2,0l5.6,3c1.7,1,3.8-0.5,3.5-2.5l-1-6.2c-0.1-0.8,0.2-1.6,0.7-2.1L85.6,439.8L85.6,439.8L85.6,439.8z"/>
<path class="st1" d="M302,584c-2.8,0-5.4,0.7-7.8,1.9c-3.9-7.8-11.9-13.1-21.2-13.1c-10.7,0-19.8,7.1-22.7,16.9
	c-0.8-0.1-1.5-0.2-2.3-0.2c-8,0-14.4,6.5-14.4,14.4c0,3.2,1,6.1,2.8,8.5H315c2.6-3,4.2-6.9,4.2-11.2C319.2,591.7,311.5,584,302,584
	L302,584L302,584z"/>
<path class="st4" d="M217.9,351.7H230c2,0,3.6-1.6,3.6-3.6V318c0-2-1.6-3.6-3.6-3.6h-12.1c-2,0-3.6,1.6-3.6,3.6v30.1
	C214.2,350.1,215.9,351.7,217.9,351.7z M175.4,373.3c0-6.4,3.9-10,5.1-14.4H165c-5.1,0-9-4.2-9-8.8c0-2.7,1.1-5.6,2.9-7.5l0,0
	c-1.5-3.5-1.2-8.5,1.4-12.1c-1.3-3.9,0-8.8,2.5-11.3c-0.6-2.7-0.3-4.9,0.9-6.8c3.1-4.5,10.8-4.5,17.3-4.5h0.4
	c7.3,0,13.3,2.7,18.1,4.8c2.4,1.1,5.6,2.4,8,2.5c1,0,1.8,0.8,1.8,1.8v32.4c0,0.5-0.2,1-0.5,1.3c-6,5.9-8.6,12.2-13.5,17.2
	c-2.2,2.2-3.1,5.6-3.9,8.9c-0.7,2.8-2.1,8.8-5.1,8.8C182.7,385.7,175.4,384.5,175.4,373.3L175.4,373.3z"/>
<path class="st4" d="M86.3,598.6h7.2c1.2,0,2.2-1,2.2-2.2v-17.8c0-1.2-1-2.1-2.2-2.1h-7.2c-1.2,0-2.2,1-2.2,2.1v17.8
	C84.1,597.6,85.1,598.6,86.3,598.6z M61.2,611.3c0-3.8,2.3-5.9,3-8.5h-9.1c-3,0-5.3-2.5-5.3-5.2c0-1.6,0.7-3.3,1.7-4.4h0
	c-0.9-2.1-0.7-5,0.8-7.1c-0.8-2.3,0-5.2,1.5-6.7c-0.4-1.6-0.2-2.9,0.6-4c1.8-2.6,6.4-2.7,10.2-2.7h0.2c4.3,0,7.9,1.6,10.7,2.8
	c1.4,0.6,3.3,1.4,4.7,1.5c0.6,0,1.1,0.5,1.1,1.1v19.1c0,0.3-0.1,0.6-0.3,0.8c-3.6,3.5-5.1,7.2-8,10.1c-1.3,1.3-1.8,3.3-2.3,5.3
	c-0.4,1.7-1.2,5.2-3,5.2C65.5,618.6,61.2,617.9,61.2,611.3L61.2,611.3z"/>
<path class="st4" d="M222.2,148.9h4.5c0.7,0,1.4-0.6,1.4-1.4v-11.1c0-0.7-0.6-1.4-1.4-1.4h-4.5c-0.7,0-1.4,0.6-1.4,1.4v11.1
	C220.8,148.3,221.4,148.9,222.2,148.9z M206.5,156.9c0-2.4,1.5-3.7,1.9-5.3h-5.7c-1.9,0-3.3-1.6-3.3-3.3c0-1,0.4-2.1,1.1-2.8l0,0
	c-0.6-1.3-0.5-3.1,0.5-4.5c-0.5-1.4,0-3.2,0.9-4.2c-0.2-1-0.1-1.8,0.4-2.5c1.1-1.6,4-1.7,6.4-1.7h0.2c2.7,0,4.9,1,6.7,1.8
	c0.9,0.4,2.1,0.9,3,0.9c0.4,0,0.7,0.3,0.7,0.7v12c0,0.2-0.1,0.4-0.2,0.5c-2.2,2.2-3.2,4.5-5,6.4c-0.8,0.8-1.1,2.1-1.4,3.3
	c-0.2,1-0.8,3.2-1.9,3.2C209.2,161.5,206.5,161,206.5,156.9L206.5,156.9z"/>
<path class="st4" d="M71.7,51.8H75c0.5,0,1-0.4,1-1v-8.1c0-0.5-0.4-1-1-1h-3.3c-0.5,0-1,0.4-1,1v8.1C70.7,51.4,71.2,51.8,71.7,51.8z
	 M60.3,57.7c0-1.7,1.1-2.7,1.4-3.9h-4.2c-1.4,0-2.4-1.1-2.4-2.4c0-0.7,0.3-1.5,0.8-2l0,0c-0.4-1-0.3-2.3,0.4-3.3
	c-0.4-1.1,0-2.4,0.7-3.1c-0.2-0.7-0.1-1.3,0.2-1.8c0.8-1.2,2.9-1.2,4.7-1.2h0.1c2,0,3.6,0.7,4.9,1.3c0.7,0.3,1.5,0.7,2.2,0.7
	c0.3,0,0.5,0.2,0.5,0.5v8.8c0,0.1,0,0.3-0.2,0.4c-1.6,1.6-2.3,3.3-3.7,4.6c-0.6,0.6-0.8,1.5-1,2.4C64.4,59.4,64,61,63.2,61
	C62.2,61,60.2,60.7,60.3,57.7L60.3,57.7z"/>
</svg>
