<?xml version="1.0" encoding="UTF-8"?><svg id="Layer_2" xmlns="http://www.w3.org/2000/svg" xmlns:xlink="http://www.w3.org/1999/xlink" viewBox="0 0 200 237.88"><defs><style>.cls-1{fill:#8ee048;}.cls-1,.cls-2,.cls-3,.cls-4,.cls-5,.cls-6{stroke-width:0px;}.cls-7{clip-path:url(#clippath-2);}.cls-2{fill:#f3faff;}.cls-3{fill:#ffe200;}.cls-4{fill:none;}.cls-8{clip-path:url(#clippath-1);}.cls-5{fill:#a35523;}.cls-9{clip-path:url(#clippath);}.cls-6{fill:#333;}</style><clipPath id="clippath"><circle class="cls-4" cx="100" cy="100" r="100"/></clipPath><clipPath id="clippath-1"><circle class="cls-4" cx="82.72" cy="64.93" r="20.24"/></clipPath><clipPath id="clippath-2"><path class="cls-4" d="M33.57,38.2l121.46-12.15s8.68,70.71-63.76,76.34l9.98,99.33-67.67,13.01V38.2Z"/></clipPath></defs><g id="Layer_2-2"><g class="cls-9"><path class="cls-3" d="M33.57,38.2l121.46-12.15s8.68,70.71-63.76,76.34l9.98,99.33-67.67,13.01V38.2Z"/><path class="cls-2" d="M116.99,29.87l38.17-3.9s5.96,44.38-26.36,64.33c0,0-28.95-19.22-11.81-60.42Z"/><circle class="cls-2" cx="82.72" cy="64.93" r="20.24"/><g class="cls-8"><path class="cls-6" d="M91.4,50.99c-7.53,0-13.83,5.27-15.43,12.31,3.2.12,5.74,1.65,5.74,3.52s-2.54,3.4-5.74,3.52c1.6,7.05,7.89,12.31,15.43,12.31,8.74,0,15.83-7.09,15.83-15.83s-7.09-15.83-15.83-15.83Z"/></g><rect class="cls-3" x="68.29" y="21.8" width="5.91" height="16.05" transform="translate(-5.87 34.07) rotate(-25.87)"/><circle class="cls-5" cx="65.08" cy="16.54" r="8.38"/><rect class="cls-3" x="91.51" y="18.03" width="5.91" height="16.05" transform="translate(7.01 -18.15) rotate(11.4)"/><circle class="cls-5" cx="98.94" cy="12.17" r="8.38"/><path class="cls-5" d="M39.91,50.06s21.98,42.65-18.22,61.31c0,0-21.25-39.76,18.22-61.31Z"/><g class="cls-7"><circle class="cls-5" cx="33.52" cy="142.96" r="32.61"/><circle class="cls-5" cx="95.84" cy="208.17" r="29.71"/></g><circle class="cls-5" cx="147.13" cy="34.16" r="4.34"/><path class="cls-1" d="M182.97,47.57c-4.07-7.36-11.86,3.84-11.86,3.84l.09.2c-.57.21-1.14.41-1.7.63,2.35-3.08,5.72-8.56.28-8.83-6.29-.31-3.99,7.3-3.01,9.92-2.03.85-3.98,1.74-5.84,2.65,2.22-3.14,4.5-7.63-.42-7.87-6.11-.3-4.12,6.86-3.1,9.68-2.18,1.17-4.17,2.33-5.94,3.43,1.7-3.43,3.82-9.1-.98-8.61-5.59.57-2.73,7.62-1.49,10.19-3.1,2.06-5.22,3.72-5.97,4.5-.33.34-.32.87.02,1.2.17.16.38.24.59.24s.44-.09.61-.26c.55-.57,1.85-1.62,3.74-2.96,1.24.78,11.5,7.02,11,.57-.35-4.41-4.83-3.68-7.99-2.59,1.8-1.16,3.89-2.42,6.22-3.7,1.88,1.96,10.08,10.08,11.31,3.46.94-5.07-4.67-5.35-8.39-5,2.5-1.28,5.2-2.54,8.06-3.7.08.2,5.31,12.46,8.48,4.76,2.29-5.56-2.88-5.95-5.99-5.72,1.08-.4,2.17-.79,3.28-1.15,4.24.44,12.03.58,9.02-4.88Z"/><path class="cls-6" d="M158.8,71.92c-.01-1.06-.95-1.82-1.95-1.67-12.01,1.81-17.71-5.43-19.37-8.09,0-.01,0-.03,0-.05,2.64-5.28,2.02-10.49,2.01-10.57-.12-.93-.97-1.58-1.9-1.46-.93.12-1.58.97-1.47,1.9.03.27.5,4.36-1.6,8.54-.49.3-.77.82-.79,1.37,0,0,0,.02,0,.02-1.25,1.92-3.11,3.77-5.88,5.18-.74.38-1.22,1.19-1.01,2s.92,1.28,1.65,1.28c.26,0,.51-.06.76-.18,2.73-1.37,4.74-3.09,6.23-4.94.02-.02.05-.03.07,0,2.52,3.32,8.07,8.68,17.65,8.68,1.28,0,2.63-.1,4.06-.31.86-.13,1.57-.84,1.56-1.71Z"/></g></g></svg>