<?xml version="1.0" encoding="utf-8"?>
<!-- Generator: Adobe Illustrator 28.2.0, SVG Export Plug-In . SVG Version: 6.00 Build 0)  -->
<svg version="1.1" id="Layer_2_00000012440261384488728290000003488435416663281587_"
	 xmlns="http://www.w3.org/2000/svg" xmlns:xlink="http://www.w3.org/1999/xlink" x="0px" y="0px" viewBox="0 0 200 200"
	 style="enable-background:new 0 0 200 200;" xml:space="preserve">
<style type="text/css">
	.st0{clip-path:url(#SVGID_00000161594458856390923900000008426947906853298861_);}
	.st1{fill:#FFE200;}
	.st2{fill:#F3FAFF;}
	.st3{clip-path:url(#SVGID_00000113333037600525061920000009386858376903132095_);}
	.st4{fill:#333333;}
	.st5{fill:#A35523;}
	.st6{clip-path:url(#SVGID_00000032633974389842223740000006898131781711190703_);}
	.st7{fill:#8EE048;}
</style>
<g id="Layer_2-2">
	<g>
		<defs>
			<circle id="SVGID_1_" cx="100" cy="100" r="100"/>
		</defs>
		<clipPath id="SVGID_00000085969472998679900440000017100943913465015172_">
			<use xlink:href="#SVGID_1_"  style="overflow:visible;"/>
		</clipPath>
		<g style="clip-path:url(#SVGID_00000085969472998679900440000017100943913465015172_);">
			<path class="st1" d="M33.6,38.2L155,26.1c0,0,8.7,70.7-63.8,76.3l10,99.3l-67.7,13L33.6,38.2L33.6,38.2z"/>
			<path class="st2" d="M117,29.9l38.2-3.9c0,0,6,44.4-26.4,64.3C128.8,90.3,99.9,71.1,117,29.9L117,29.9z"/>
			<circle class="st2" cx="82.7" cy="64.9" r="20.2"/>
			<g>
				<defs>
					<circle id="SVGID_00000145025478303580235460000000457241524694217374_" cx="82.7" cy="64.9" r="20.2"/>
				</defs>
				<clipPath id="SVGID_00000115477153086162544370000006471352864774344893_">
					<use xlink:href="#SVGID_00000145025478303580235460000000457241524694217374_"  style="overflow:visible;"/>
				</clipPath>
				<g style="clip-path:url(#SVGID_00000115477153086162544370000006471352864774344893_);">
					<path class="st4" d="M91.4,51c-7.5,0-13.8,5.3-15.4,12.3c3.2,0.1,5.7,1.7,5.7,3.5s-2.5,3.4-5.7,3.5c1.6,7.1,7.9,12.3,15.4,12.3
						c8.7,0,15.8-7.1,15.8-15.8S100.1,51,91.4,51L91.4,51z"/>
				</g>
			</g>
			
				<rect x="68.3" y="21.8" transform="matrix(0.8998 -0.4363 0.4363 0.8998 -5.8712 34.0764)" class="st1" width="5.9" height="16"/>
			<circle class="st5" cx="65.1" cy="16.5" r="8.4"/>
			
				<rect x="86.4" y="23.1" transform="matrix(0.1977 -0.9803 0.9803 0.1977 50.2419 113.5089)" class="st1" width="16.1" height="5.9"/>
			<circle class="st5" cx="98.9" cy="12.2" r="8.4"/>
			<path class="st5" d="M39.9,50.1c0,0,22,42.7-18.2,61.3C21.7,111.4,0.4,71.6,39.9,50.1z"/>
			<g>
				<defs>
					<path id="SVGID_00000098199405057630736530000008508653093351929234_" d="M33.6,38.2L155,26.1c0,0,8.7,70.7-63.8,76.3l10,99.3
						l-67.7,13L33.6,38.2L33.6,38.2z"/>
				</defs>
				<clipPath id="SVGID_00000034786087698622132380000007913239281093162656_">
					<use xlink:href="#SVGID_00000098199405057630736530000008508653093351929234_"  style="overflow:visible;"/>
				</clipPath>
				<g style="clip-path:url(#SVGID_00000034786087698622132380000007913239281093162656_);">
					<circle class="st5" cx="33.5" cy="143" r="32.6"/>
					<circle class="st5" cx="95.8" cy="208.2" r="29.7"/>
				</g>
			</g>
			<circle class="st5" cx="147.1" cy="34.2" r="4.3"/>
			<path class="st7" d="M183,47.6c-4.1-7.4-11.9,3.8-11.9,3.8l0.1,0.2c-0.6,0.2-1.1,0.4-1.7,0.6c2.4-3.1,5.7-8.6,0.3-8.8
				c-6.3-0.3-4,7.3-3,9.9c-2,0.8-4,1.7-5.8,2.7c2.2-3.1,4.5-7.6-0.4-7.9c-6.1-0.3-4.1,6.9-3.1,9.7c-2.2,1.2-4.2,2.3-5.9,3.4
				c1.7-3.4,3.8-9.1-1-8.6c-5.6,0.6-2.7,7.6-1.5,10.2c-3.1,2.1-5.2,3.7-6,4.5c-0.3,0.3-0.3,0.9,0,1.2c0.2,0.2,0.4,0.2,0.6,0.2
				s0.4-0.1,0.6-0.3c0.6-0.6,1.9-1.6,3.7-3c1.2,0.8,11.5,7,11,0.6c-0.4-4.4-4.8-3.7-8-2.6c1.8-1.2,3.9-2.4,6.2-3.7
				c1.9,2,10.1,10.1,11.3,3.5c0.9-5.1-4.7-5.3-8.4-5c2.5-1.3,5.2-2.5,8.1-3.7c0.1,0.2,5.3,12.5,8.5,4.8c2.3-5.6-2.9-6-6-5.7
				c1.1-0.4,2.2-0.8,3.3-1.2C178.2,52.9,186,53,183,47.6L183,47.6z"/>
			<path class="st4" d="M158.8,71.9c0-1.1-0.9-1.8-1.9-1.7c-12,1.8-17.7-5.4-19.4-8.1c0,0,0,0,0,0c2.6-5.3,2-10.5,2-10.6
				c-0.1-0.9-1-1.6-1.9-1.5c-0.9,0.1-1.6,1-1.5,1.9c0,0.3,0.5,4.4-1.6,8.5c-0.5,0.3-0.8,0.8-0.8,1.4v0c-1.2,1.9-3.1,3.8-5.9,5.2
				c-0.7,0.4-1.2,1.2-1,2s0.9,1.3,1.6,1.3c0.3,0,0.5-0.1,0.8-0.2c2.7-1.4,4.7-3.1,6.2-4.9c0,0,0.1,0,0.1,0c2.5,3.3,8.1,8.7,17.6,8.7
				c1.3,0,2.6-0.1,4.1-0.3C158.1,73.5,158.8,72.8,158.8,71.9L158.8,71.9z"/>
		</g>
	</g>
</g>
</svg>
