<?xml version="1.0" encoding="utf-8"?>
<!-- Generator: Adobe Illustrator 28.2.0, SVG Export Plug-In . SVG Version: 6.00 Build 0)  -->
<svg version="1.1" id="Layer_2_00000023992421600534627790000011611959730421322667_"
	 xmlns="http://www.w3.org/2000/svg" xmlns:xlink="http://www.w3.org/1999/xlink" x="0px" y="0px" viewBox="0 0 200 200"
	 style="enable-background:new 0 0 200 200;" xml:space="preserve">
<style type="text/css">
	.st0{clip-path:url(#SVGID_00000054264351115969414910000013352910377177840310_);}
	.st1{fill:#F3FAFF;}
	.st2{clip-path:url(#SVGID_00000006701923220074046400000001626924091213266571_);}
	.st3{fill:#333333;}
	.st4{fill:#FFE200;}
	.st5{clip-path:url(#SVGID_00000139292021037580149940000014958399293020295090_);}
	.st6{fill:#FDB651;}
	.st7{fill:#8EE048;}
	.st8{fill:#FF7C8E;}
</style>
<g id="Layer_2-2">
	<g>
		<g>
			<defs>
				<circle id="SVGID_1_" cx="100" cy="100" r="100"/>
			</defs>
			<clipPath id="SVGID_00000095313646537762788240000011947567451180501129_">
				<use xlink:href="#SVGID_1_"  style="overflow:visible;"/>
			</clipPath>
			<g style="clip-path:url(#SVGID_00000095313646537762788240000011947567451180501129_);">
				<circle class="st1" cx="81" cy="204" r="74.2"/>
				<g>
					<g>
						<defs>
							<circle id="SVGID_00000096753353663105575730000008695496617690616749_" cx="81" cy="204" r="74.2"/>
						</defs>
						<clipPath id="SVGID_00000104672356031320556690000010998579110122943401_">
							<use xlink:href="#SVGID_00000096753353663105575730000008695496617690616749_"  style="overflow:visible;"/>
						</clipPath>
						<g style="clip-path:url(#SVGID_00000104672356031320556690000010998579110122943401_);">
							<ellipse class="st3" cx="22" cy="182.9" rx="30.8" ry="30.8"/>
							<circle class="st3" cx="104.6" cy="170.5" r="30.8"/>
							<circle class="st3" cx="146.7" cy="227.4" r="30.8"/>
							
								<ellipse transform="matrix(7.088900e-02 -0.9975 0.9975 7.088900e-02 -166.9359 285.034)" class="st3" cx="69.5" cy="232.1" rx="30.8" ry="30.8"/>
						</g>
					</g>
				</g>
				<path class="st4" d="M117.8,35.2c0.1,8.9-3.5,16.1-7.9,16.1c-4.4,0-7.5-8.8-7.5-17.7c-0.1-8.9,6-14.6,7.4-14.5
					C112.5,19.2,117.7,26.3,117.8,35.2z"/>
				<path class="st4" d="M64.5,44.1c5.6,6.9,7.3,14.8,3.9,17.6c-3.4,2.7-11.3-2.2-16.9-9.2s-4.4-15.2-3.3-16
					C50.4,34.8,58.9,37.1,64.5,44.1z"/>
				<path class="st1" d="M168.9,95c12.1,38-8.9,69.5-44.2,80.5c-36,11.3-72.3-6.7-84.4-44.7s-10-78,40.7-92.9
					C126.7,24.5,156.9,57,168.9,95L168.9,95z"/>
				<g>
					<g>
						<defs>
							<path id="SVGID_00000032609811943567198600000016222884191843642245_" d="M168.9,95c12.1,38-8.9,69.5-44.2,80.5
								c-36,11.3-72.3-6.7-84.4-44.7s-10-78,40.7-92.9C126.7,24.5,156.9,57,168.9,95L168.9,95z"/>
						</defs>
						<clipPath id="SVGID_00000033363313770669178810000009609513103613877947_">
							<use xlink:href="#SVGID_00000032609811943567198600000016222884191843642245_"  style="overflow:visible;"/>
						</clipPath>
						<g style="clip-path:url(#SVGID_00000033363313770669178810000009609513103613877947_);">
							
								<ellipse transform="matrix(0.91 -0.4145 0.4145 0.91 -52.4646 29.0352)" class="st3" cx="40.7" cy="135.4" rx="62.6" ry="78.4"/>
							<path class="st3" d="M222.6,66.3c17.9,39.4,11.5,80.9-14.3,92.6c-25.8,11.8-57.7-14.5-82.1-50.2
								c-20.4-29.8-15.4-69.4,10.5-81.1C162.5,15.8,204.7,26.8,222.6,66.3z"/>
							
								<ellipse transform="matrix(0.9614 -0.2753 0.2753 0.9614 -39.9362 40.9302)" class="st6" cx="125.8" cy="162.7" rx="58.3" ry="52.9"/>
						</g>
					</g>
				</g>
				<path class="st3" d="M8.4,130.9c0,0-13.5-53.1,36.3-69.2C44.6,61.7,72.3,121.1,8.4,130.9z"/>
				<path class="st3" d="M123,38.9c-1-1.8,26.3-22.9,64.6,13.9C187.6,52.9,155.9,99.8,123,38.9z"/>
				<circle class="st1" cx="74.9" cy="112.1" r="14"/>
				<path class="st3" d="M77.1,103.5c-5.2-0.1-9.6,3.9-9.8,9.1c0,0.1,0,0.1,0,0.2c3.8-1.2,7.3-0.9,7.7,0.6c0.5,1.4-2.2,3.7-6.1,5
					c1.7,2.4,4.3,4,7.5,4.1c5.2,0.1,9.6-3.9,9.8-9.1C86.4,108,82.3,103.7,77.1,103.5L77.1,103.5z"/>
				<circle class="st1" cx="146.6" cy="90.9" r="14"/>
				<path class="st3" d="M148.8,83c-5.2-0.1-9.6,3.9-9.8,9.1c0,0.1,0,0.1,0,0.2c3.8-1.2,7.3-0.9,7.7,0.6c0.5,1.4-2.2,3.7-6.1,5
					c1.7,2.4,4.3,4,7.5,4.1c5.2,0.1,9.6-3.9,9.8-9.1S154,83.1,148.8,83L148.8,83z"/>
				<circle class="st3" cx="111.1" cy="121.6" r="3.8"/>
				<circle class="st3" cx="126.4" cy="116.6" r="3.8"/>
				<path class="st7" d="M132.1,138.6l6.1-5.5c8.8,8.1,12.4,13.7,17.9,25.6C146.9,148.3,142.3,143.9,132.1,138.6L132.1,138.6z"/>
				<path class="st7" d="M135.5,136l6.5-8.8c13.5,8.3,24.5,21.1,34.7,35.4C163.7,150.5,150.2,140.3,135.5,136L135.5,136z"/>
				<path class="st7" d="M141.2,136.5l0.3-8.2c11.9-0.7,18.5,0.6,30.8,5.1C158.3,132.6,152.1,132.9,141.2,136.5L141.2,136.5z"/>
				<path class="st8" d="M130.4,144.9c-0.5,0-1-0.1-1.4-0.5c-1-0.8-1.2-2.2-0.4-3.3l11.8-15.3c0.8-1,2.2-1.2,3.3-0.4
					c1.1,0.8,1.2,2.2,0.4,3.3l-11.8,15.3C131.8,144.6,131.1,144.9,130.4,144.9z"/>
			</g>
		</g>
	</g>
</g>
</svg>
