<?xml version="1.0" encoding="UTF-8"?><svg id="Layer_2" xmlns="http://www.w3.org/2000/svg" xmlns:xlink="http://www.w3.org/1999/xlink" viewBox="0 0 256.26 273.78"><defs><style>.cls-1{fill:#8ee048;}.cls-1,.cls-2,.cls-3,.cls-4,.cls-5,.cls-6,.cls-7{stroke-width:0px;}.cls-8{clip-path:url(#clippath-2);}.cls-2{fill:#ff7c8e;}.cls-3{fill:#f3faff;}.cls-4{fill:#ffe200;}.cls-5{fill:none;}.cls-9{clip-path:url(#clippath-1);}.cls-10{clip-path:url(#clippath);}.cls-6{fill:#333;}.cls-7{fill:#fdb651;}</style><clipPath id="clippath"><circle class="cls-5" cx="123.32" cy="100" r="100"/></clipPath><clipPath id="clippath-1"><circle class="cls-5" cx="105.26" cy="200" r="73.78"/></clipPath><clipPath id="clippath-2"><path class="cls-5" d="M192.73,91.67c11.98,37.77-8.86,69.05-43.95,80.05-35.82,11.23-71.88-6.68-83.86-44.45-11.98-37.77-10.02-77.55,40.46-92.34,45.41-13.31,75.37,18.97,87.36,56.74Z"/></clipPath></defs><g id="Layer_2-2"><g class="cls-10"><circle class="cls-3" cx="105.26" cy="200" r="73.78"/><g class="cls-9"><circle class="cls-6" cx="46.68" cy="179.07" r="30.62"/><circle class="cls-6" cx="128.82" cy="166.81" r="30.62"/><circle class="cls-6" cx="170.73" cy="223.25" r="30.62"/><circle class="cls-6" cx="93.92" cy="228.05" r="30.62"/></g><path class="cls-4" d="M141.91,32.18c.04,8.85-3.46,16.05-7.84,16.07s-7.41-8.72-7.45-17.57,5.97-14.53,7.29-14.49c2.76.09,7.95,7.14,8,15.99Z"/><path class="cls-4" d="M88.86,40.99c5.54,6.9,7.28,14.72,3.87,17.46s-11.22-2.22-16.77-9.12c-5.54-6.9-4.37-15.09-3.31-15.88,2.22-1.64,10.67.64,16.21,7.54Z"/><path class="cls-3" d="M192.73,91.67c11.98,37.77-8.86,69.05-43.95,80.05-35.82,11.23-71.88-6.68-83.86-44.45-11.98-37.77-10.02-77.55,40.46-92.34,45.41-13.31,75.37,18.97,87.36,56.74Z"/><g class="cls-8"><ellipse class="cls-6" cx="65.24" cy="131.82" rx="62.27" ry="77.94" transform="translate(-48.77 38.9) rotate(-24.49)"/><path class="cls-6" d="M246.15,63.1c17.84,39.17,11.47,80.42-14.23,92.12-25.7,11.71-57.4-14.43-81.69-49.96-20.26-29.64-15.29-68.98,10.42-80.69,25.7-11.71,67.66-.65,85.5,38.53Z"/><ellipse class="cls-7" cx="149.87" cy="159.01" rx="57.99" ry="52.58" transform="translate(-37.98 47.39) rotate(-15.98)"/></g><path class="cls-6" d="M33.12,127.34s-13.37-52.79,36.05-68.8c0,0,27.51,59.11-36.05,68.8Z"/><path class="cls-6" d="M147.12,35.92c-.98-1.81,26.14-22.77,64.23,13.85,0,0-31.59,46.63-64.23-13.85Z"/><circle class="cls-3" cx="99.26" cy="108.68" r="13.99"/><path class="cls-6" d="M101.44,100.13c-5.19-.17-9.55,3.89-9.72,9.09,0,.07,0,.14,0,.2,3.84-1.15,7.26-.92,7.72.55.47,1.47-2.22,3.65-6.04,4.93,1.64,2.35,4.32,3.93,7.4,4.04,5.19.17,9.55-3.89,9.72-9.09s-3.89-9.55-9.09-9.72Z"/><circle class="cls-3" cx="170.56" cy="87.56" r="13.99"/><path class="cls-6" d="M172.71,79.71c-5.19-.17-9.55,3.89-9.72,9.09,0,.07,0,.14,0,.2,3.84-1.15,7.26-.92,7.72.55.47,1.47-2.22,3.65-6.04,4.93,1.64,2.35,4.32,3.93,7.4,4.04,5.19.17,9.55-3.89,9.72-9.09s-3.89-9.55-9.09-9.72Z"/><circle class="cls-6" cx="135.31" cy="118.13" r="3.73"/><circle class="cls-6" cx="150.47" cy="113.21" r="3.73"/><path class="cls-1" d="M156.15,135.03l6.04-5.48c8.71,8.07,12.39,13.58,17.79,25.49-9.17-10.45-13.66-14.72-23.83-20Z"/><path class="cls-1" d="M159.51,132.4l6.49-8.7c13.43,8.31,24.37,21.01,34.46,35.18-12.96-12.01-26.32-22.17-40.95-26.48Z"/><path class="cls-1" d="M165.16,132.91l.28-8.15c11.86-.63,18.37.58,30.68,5.01-13.88-.71-20.08-.46-30.95,3.15Z"/><path class="cls-2" d="M154.43,141.25c-.5,0-1-.16-1.43-.49-1.02-.79-1.21-2.26-.42-3.28l11.75-15.19c.79-1.02,2.26-1.21,3.28-.42,1.02.79,1.21,2.26.42,3.28l-11.75,15.19c-.46.6-1.15.91-1.85.91Z"/></g></g></svg>