<?xml version="1.0" encoding="UTF-8"?><svg id="Layer_2" xmlns="http://www.w3.org/2000/svg" xmlns:xlink="http://www.w3.org/1999/xlink" viewBox="0 0 200 210.98"><defs><style>.cls-1{fill:#8ee048;}.cls-1,.cls-2,.cls-3,.cls-4,.cls-5,.cls-6,.cls-7{stroke-width:0px;}.cls-2{fill:#acde5f;}.cls-8{clip-path:url(#clippath-2);}.cls-3{fill:#f3faff;}.cls-4{fill:#ffe200;}.cls-5{fill:none;}.cls-9{clip-path:url(#clippath-1);}.cls-6{fill:#66cd5c;}.cls-10{clip-path:url(#clippath);}.cls-11{clip-path:url(#clippath-3);}.cls-7{fill:#333;}</style><clipPath id="clippath"><circle class="cls-5" cx="100" cy="100" r="100"/></clipPath><clipPath id="clippath-1"><ellipse class="cls-5" cx="48.87" cy="43.9" rx="14.58" ry="15.93"/></clipPath><clipPath id="clippath-2"><ellipse class="cls-5" cx="87.31" cy="44.2" rx="14.58" ry="15.93"/></clipPath><clipPath id="clippath-3"><path class="cls-5" d="M113.27,123.59s-45.72-12.84-41.22,76.8h54.05l-12.84-76.8Z"/></clipPath></defs><g id="Layer_2-2"><g class="cls-10"><path class="cls-6" d="M47.26,59.21c0-6.06-7.49-10.98-16.72-10.98s-16.72,4.92-16.72,10.98c0,4.25,3.68,7.93,9.05,9.76-7.67,1-13.45,5.44-13.45,10.77,0,4.54,4.2,8.44,10.19,10.11-6.44,1.53-11.04,5.57-11.04,10.33,0,4.04,3.33,7.57,8.28,9.48-5.42,1.82-9.13,5.51-9.13,9.78,0,4.72,4.53,8.74,10.89,10.29-6.8,1.39-11.74,5.56-11.74,10.48,0,4.35,3.85,8.1,9.43,9.88-6.21,1.6-10.61,5.57-10.61,10.22,0,4.24,3.66,7.91,9.01,9.74-5.35,1.83-9.01,5.5-9.01,9.74s4.01,8.26,9.78,9.99c-6.22,1.6-10.63,5.57-10.63,10.22,0,6.06,7.49,10.98,16.72,10.98s16.72-4.92,16.72-10.98c0-4.44-4.01-8.26-9.78-9.99,6.22-1.6,10.63-5.57,10.63-10.22,0-4.24-3.66-7.91-9.01-9.74,5.35-1.83,9.01-5.5,9.01-9.74s-3.85-8.1-9.43-9.88c6.21-1.6,10.61-5.57,10.61-10.22s-4.53-8.74-10.89-10.29c6.8-1.39,11.74-5.56,11.74-10.48,0-4.04-3.33-7.57-8.28-9.48,5.42-1.82,9.13-5.51,9.13-9.78,0-4.54-4.2-8.44-10.19-10.11,6.44-1.53,11.04-5.57,11.04-10.33,0-4.25-3.68-7.93-9.05-9.76,7.67-1,13.45-5.44,13.45-10.77Z"/><path class="cls-1" d="M192.99,87.44l-.13-17.91h0s0-.03,0-.05c0-4.48-3.63-8.12-8.12-8.12s-8.12,3.63-8.12,8.12c0,.02,0,.03,0,.05h0v.66l-66.29-13.95s1.91-34.68-20.61-35.2c-22.52-.51-22.52,20.44-22.52,20.44,0,0-.56-22.63-22.3-20.27-21.73,2.36-20.04,39.51-20.04,39.51l-4.62,139.66h105.4l-13.73-85.78,65.4-8.94h0c8.83-1.05,15.68-8.56,15.68-17.67,0-.19,0-.38-.01-.56h.01Z"/><circle class="cls-6" cx="184.45" cy="68.38" r="3.73"/><ellipse class="cls-3" cx="48.87" cy="43.9" rx="14.58" ry="15.93"/><ellipse class="cls-3" cx="87.31" cy="44.2" rx="14.58" ry="15.93"/><g class="cls-9"><ellipse class="cls-7" cx="56.87" cy="36.21" rx="8.67" ry="18.84"/></g><g class="cls-8"><ellipse class="cls-7" cx="95.59" cy="35.91" rx="8.94" ry="19.44"/></g><path class="cls-3" d="M108.07,81.69l4.93,8.79h-14.78l5.82-8.93c.97-1.49,3.17-1.41,4.04.13Z"/><path class="cls-3" d="M125.26,81.69l4.93,8.79h-14.78l5.82-8.93c.97-1.49,3.17-1.41,4.04.13Z"/><path class="cls-3" d="M142.91,81.69l4.93,8.79h-14.78l5.82-8.93c.97-1.49,3.17-1.41,4.04.13Z"/><path class="cls-3" d="M160.14,81.69l4.93,8.79h-14.78l5.82-8.93c.97-1.49,3.17-1.41,4.04.13Z"/><path class="cls-3" d="M177.37,81.69l4.93,8.79h-14.78l5.82-8.93c.97-1.49,3.17-1.41,4.04.13Z"/><path class="cls-7" d="M146.32,95.55c-48.49,0-61.11-7.1-61.76-7.49-1.42-.85-1.89-2.69-1.04-4.11.84-1.41,2.66-1.88,4.08-1.06.35.19,20.74,10.78,105.93,4.84,1.66-.11,3.09,1.13,3.2,2.78.11,1.65-1.13,3.09-2.79,3.2-18.81,1.31-34.53,1.83-47.63,1.83Z"/><path class="cls-4" d="M113.27,123.59s-45.72-12.84-41.22,76.8h54.05l-12.84-76.8Z"/><g class="cls-11"><rect class="cls-2" x="66.26" y="132.32" width="55.91" height="10.64"/><rect class="cls-2" x="66.26" y="151.49" width="55.91" height="10.64"/><rect class="cls-2" x="70.2" y="172.86" width="55.91" height="10.64"/><rect class="cls-2" x="70.97" y="194.23" width="55.91" height="10.64"/></g></g></g></svg>