<?xml version="1.0" encoding="utf-8"?>
<!-- Generator: Adobe Illustrator 28.2.0, SVG Export Plug-In . SVG Version: 6.00 Build 0)  -->
<svg version="1.1" id="Layer_2_00000039854131299151874040000002016393848124710064_"
	 xmlns="http://www.w3.org/2000/svg" xmlns:xlink="http://www.w3.org/1999/xlink" x="0px" y="0px" viewBox="0 0 200 200"
	 style="enable-background:new 0 0 200 200;" xml:space="preserve">
<style type="text/css">
	.st0{clip-path:url(#SVGID_00000046331810759369695090000018385310762719576249_);}
	.st1{fill:#66CD5C;}
	.st2{fill:#8EE048;}
	.st3{fill:#F3FAFF;}
	.st4{clip-path:url(#SVGID_00000143590853437779062840000002553907455887562912_);}
	.st5{fill:#333333;}
	.st6{clip-path:url(#SVGID_00000063618561442148605550000013888553260701462412_);}
	.st7{fill:#FFE200;}
	.st8{clip-path:url(#SVGID_00000016756683789054934360000000768880191612936080_);}
	.st9{fill:#ACDE5F;}
</style>
<g id="Layer_2-2">
	<g>
		<defs>
			<circle id="SVGID_1_" cx="100" cy="100" r="100"/>
		</defs>
		<clipPath id="SVGID_00000115487856420261658280000004875017724151333784_">
			<use xlink:href="#SVGID_1_"  style="overflow:visible;"/>
		</clipPath>
		<g style="clip-path:url(#SVGID_00000115487856420261658280000004875017724151333784_);">
			<path class="st1" d="M47.3,59.2c0-6.1-7.5-11-16.7-11s-16.7,4.9-16.7,11c0,4.2,3.7,7.9,9,9.8c-7.7,1-13.4,5.4-13.4,10.8
				c0,4.5,4.2,8.4,10.2,10.1c-6.4,1.5-11,5.6-11,10.3c0,4,3.3,7.6,8.3,9.5c-5.4,1.8-9.1,5.5-9.1,9.8c0,4.7,4.5,8.7,10.9,10.3
				c-6.8,1.4-11.7,5.6-11.7,10.5c0,4.4,3.9,8.1,9.4,9.9c-6.2,1.6-10.6,5.6-10.6,10.2c0,4.2,3.7,7.9,9,9.7c-5.3,1.8-9,5.5-9,9.7
				s4,8.3,9.8,10c-6.2,1.6-10.6,5.6-10.6,10.2c0,6.1,7.5,11,16.7,11s16.7-4.9,16.7-11c0-4.4-4-8.3-9.8-10
				c6.2-1.6,10.6-5.6,10.6-10.2c0-4.2-3.7-7.9-9-9.7c5.4-1.8,9-5.5,9-9.7s-3.8-8.1-9.4-9.9c6.2-1.6,10.6-5.6,10.6-10.2
				s-4.5-8.7-10.9-10.3c6.8-1.4,11.7-5.6,11.7-10.5c0-4-3.3-7.6-8.3-9.5c5.4-1.8,9.1-5.5,9.1-9.8c0-4.5-4.2-8.4-10.2-10.1
				c6.4-1.5,11-5.6,11-10.3c0-4.2-3.7-7.9-9-9.8C41.5,69,47.3,64.5,47.3,59.2L47.3,59.2z"/>
			<path class="st2" d="M193,87.4l-0.1-17.9l0,0c0,0,0,0,0-0.1c0-4.5-3.6-8.1-8.1-8.1s-8.1,3.6-8.1,8.1c0,0,0,0,0,0.1l0,0v0.7
				l-66.3-14c0,0,1.9-34.7-20.6-35.2c-22.5-0.5-22.5,20.4-22.5,20.4s-0.6-22.6-22.3-20.3c-21.7,2.4-20,39.5-20,39.5l-4.6,139.7
				h105.4l-13.7-85.8l65.4-8.9l0,0c8.8-1.1,15.7-8.6,15.7-17.7C193,87.8,193,87.6,193,87.4L193,87.4L193,87.4z"/>
			<circle class="st1" cx="184.4" cy="68.4" r="3.7"/>
			<ellipse class="st3" cx="48.9" cy="43.9" rx="14.6" ry="15.9"/>
			<ellipse class="st3" cx="87.3" cy="44.2" rx="14.6" ry="15.9"/>
			<g>
				<defs>
					<ellipse id="SVGID_00000028294862613577469320000015963393838565215381_" cx="48.9" cy="43.9" rx="14.6" ry="15.9"/>
				</defs>
				<clipPath id="SVGID_00000137837300887969759320000006409763891420834492_">
					<use xlink:href="#SVGID_00000028294862613577469320000015963393838565215381_"  style="overflow:visible;"/>
				</clipPath>
				<g style="clip-path:url(#SVGID_00000137837300887969759320000006409763891420834492_);">
					<ellipse class="st5" cx="56.9" cy="36.2" rx="8.7" ry="18.8"/>
				</g>
			</g>
			<g>
				<defs>
					<ellipse id="SVGID_00000034796357995853629460000005562810356802844577_" cx="87.3" cy="44.2" rx="14.6" ry="15.9"/>
				</defs>
				<clipPath id="SVGID_00000130635181636915222660000007662936818244717979_">
					<use xlink:href="#SVGID_00000034796357995853629460000005562810356802844577_"  style="overflow:visible;"/>
				</clipPath>
				<g style="clip-path:url(#SVGID_00000130635181636915222660000007662936818244717979_);">
					<ellipse class="st5" cx="95.6" cy="35.9" rx="8.9" ry="19.4"/>
				</g>
			</g>
			<path class="st3" d="M108.1,81.7l4.9,8.8H98.2l5.8-8.9C105,80.1,107.2,80.1,108.1,81.7L108.1,81.7z"/>
			<path class="st3" d="M125.3,81.7l4.9,8.8h-14.8l5.8-8.9C122.2,80.1,124.4,80.1,125.3,81.7L125.3,81.7z"/>
			<path class="st3" d="M142.9,81.7l4.9,8.8h-14.8l5.8-8.9C139.9,80.1,142.1,80.1,142.9,81.7L142.9,81.7z"/>
			<path class="st3" d="M160.1,81.7l4.9,8.8h-14.8l5.8-8.9C157.1,80.1,159.3,80.1,160.1,81.7L160.1,81.7z"/>
			<path class="st3" d="M177.4,81.7l4.9,8.8h-14.8l5.8-8.9C174.3,80.1,176.5,80.1,177.4,81.7L177.4,81.7z"/>
			<path class="st5" d="M146.3,95.6c-48.5,0-61.1-7.1-61.8-7.5c-1.4-0.8-1.9-2.7-1-4.1c0.8-1.4,2.7-1.9,4.1-1.1
				c0.3,0.2,20.7,10.8,105.9,4.8c1.7-0.1,3.1,1.1,3.2,2.8s-1.1,3.1-2.8,3.2C175.1,95,159.4,95.5,146.3,95.6L146.3,95.6z"/>
			<path class="st7" d="M113.3,123.6c0,0-45.7-12.8-41.2,76.8h54L113.3,123.6L113.3,123.6z"/>
			<g>
				<defs>
					<path id="SVGID_00000080166886492897000940000005918943810930371006_" d="M113.3,123.6c0,0-45.7-12.8-41.2,76.8h54L113.3,123.6
						L113.3,123.6z"/>
				</defs>
				<clipPath id="SVGID_00000159454993777257580070000012890298742664131239_">
					<use xlink:href="#SVGID_00000080166886492897000940000005918943810930371006_"  style="overflow:visible;"/>
				</clipPath>
				<g style="clip-path:url(#SVGID_00000159454993777257580070000012890298742664131239_);">
					<rect x="66.3" y="132.3" class="st9" width="55.9" height="10.6"/>
					<rect x="66.3" y="151.5" class="st9" width="55.9" height="10.6"/>
					<rect x="70.2" y="172.9" class="st9" width="55.9" height="10.6"/>
					<rect x="71" y="194.2" class="st9" width="55.9" height="10.6"/>
				</g>
			</g>
		</g>
	</g>
</g>
</svg>
