<?xml version="1.0" encoding="UTF-8"?><svg id="Layer_2" xmlns="http://www.w3.org/2000/svg" xmlns:xlink="http://www.w3.org/1999/xlink" viewBox="0 0 200 200"><defs><style>.cls-1{clip-path:url(#clippath-2);}.cls-2{fill:#f3faff;}.cls-2,.cls-3,.cls-4,.cls-5,.cls-6,.cls-7{stroke-width:0px;}.cls-3{fill:#ffe200;}.cls-4{fill:none;}.cls-8{clip-path:url(#clippath-1);}.cls-5{fill:#a35523;}.cls-9{clip-path:url(#clippath);}.cls-10{clip-path:url(#clippath-3);}.cls-6{fill:#333;}.cls-7{fill:#fdb651;}</style><clipPath id="clippath"><circle class="cls-4" cx="100" cy="100" r="100"/></clipPath><clipPath id="clippath-1"><path class="cls-4" d="M103.19,61.1s-36.24-5.51-50.02,47.26c-13.79,52.78,35.84,54.75,35.84,54.75,0,0,49.63,8.81,51.2-37.42,1.97-57.9-37.02-64.59-37.02-64.59Z"/></clipPath><clipPath id="clippath-2"><circle class="cls-4" cx="76.89" cy="95.24" r="13"/></clipPath><clipPath id="clippath-3"><circle class="cls-4" cx="120.48" cy="98.98" r="13"/></clipPath></defs><g id="Layer_2-2"><g class="cls-9"><path class="cls-5" d="M187.34,102.92c0-6.15-4.1-11.34-9.72-12.99-.02-.17-.05-.35-.07-.52,3.61-2.43,5.98-6.56,5.98-11.24,0-7.48-6.06-13.55-13.55-13.55-.02,0-.04,0-.07,0-.07-.15-.14-.3-.22-.45,1.09-1.95,1.72-4.21,1.72-6.61,0-7.48-6.06-13.55-13.55-13.55-.15,0-.29,0-.44.01.28-1.11.44-2.28.44-3.48,0-7.48-5.86-13.55-13.1-13.55-2.9,0-5.58.98-7.75,2.63-.04-7.45-5.88-13.48-13.09-13.48-4.16,0-7.86,2.01-10.26,5.13-.21-.04-.41-.08-.62-.12-1.64-5.47-6.48-9.44-12.2-9.44s-10.22,3.69-12.02,8.87c-.03,0-.06,0-.09.01-2.48-3.2-6.35-5.26-10.71-5.26-7.15,0-13,5.54-13.51,12.56-2.25-1.66-5.02-2.63-8.03-2.63-7.48,0-13.55,6.06-13.55,13.55,0,1.09.13,2.16.38,3.18-1.15-.31-2.35-.49-3.6-.49-7.48,0-13.55,6.06-13.55,13.55,0,2.37.61,4.6,1.68,6.54-6.4,1.08-11.27,6.65-11.27,13.35,0,4.16,1.88,7.88,4.83,10.36,0,.02,0,.04-.01.06-5.13,1.93-8.78,6.88-8.78,12.68,0,5.41,3.17,10.08,7.76,12.25,0,.03,0,.06.01.09-4.01,2.35-6.7,6.7-6.7,11.69,0,6.53,4.62,11.98,10.77,13.26-1.4,2.13-2.21,4.68-2.21,7.42,0,7.48,6.06,13.55,13.55,13.55.96,0,1.89-.1,2.79-.29-.47,1.38-.74,2.86-.74,4.4,0,7.48,6.06,13.55,13.55,13.55,2.82,0,5.44-.86,7.61-2.34.37,7.15,6.28,12.84,13.53,12.84,3.67,0,7-1.47,9.44-3.84.08.02.15.03.23.05,1.86,5.27,6.87,9.04,12.78,9.04,5.12,0,9.57-2.84,11.87-7.02,2.43,3.6,6.56,5.97,11.23,5.97,7.39,0,13.39-5.91,13.54-13.27.09-.04.19-.09.28-.13,2.25,1.65,5.02,2.63,8.02,2.63,7.48,0,13.55-6.06,13.55-13.55,0-1.17-.15-2.31-.43-3.39,1.27.4,2.63.61,4.04.61,7.48,0,13.55-6.06,13.55-13.55,0-2.73-.81-5.26-2.2-7.39.05-.1.11-.19.16-.29.06,0,.12,0,.18,0,7.48,0,13.55-6.06,13.55-13.55,0-4.37-2.07-8.25-5.28-10.73,0,0,0-.01,0-.02,5.9-1.47,10.27-6.79,10.27-13.14Z"/><path class="cls-3" d="M103.28,60.72s-36.24-5.51-50.02,47.26,35.84,54.75,35.84,54.75c0,0,49.63,8.81,51.2-37.42,1.97-57.9-37.02-64.59-37.02-64.59Z"/><polygon class="cls-7" points="97.72 100.24 87.36 122.79 103.85 124.48 97.72 100.24"/><polygon class="cls-5" points="87.36 122.79 94.75 131 103.68 124.48 87.36 122.79"/><circle class="cls-2" cx="120.48" cy="98.98" r="13"/><circle class="cls-2" cx="76.89" cy="95.24" r="13"/><g class="cls-8"><circle class="cls-7" cx="137.4" cy="139.32" r="17.06"/><circle class="cls-7" cx="50.75" cy="130.98" r="17.06"/></g><path class="cls-5" d="M89.54,59.28s-4.9,14.62,0,15.75,9.37-7.18,9.37-7.18c0,0-.53,12.17,5.69,11.64,6.21-.53,7.26-6.21,7.96-16.89s-23.02-3.33-23.02-3.33Z"/><path class="cls-3" d="M57.55,52.32s7.61-6.96,12.21,5.51,0,10.9,0,10.9c0,0-19.3-4.73-12.21-16.41Z"/><path class="cls-3" d="M144.24,58.54s-7.61-6.96-12.21,5.51c-4.6,12.47,0,10.9,0,10.9,0,0,19.3-4.73,12.21-16.41Z"/><path class="cls-6" d="M150.15,135.6h-19.04c-.85,0-1.54-.69-1.54-1.54s.69-1.54,1.54-1.54h19.04c.85,0,1.54.69,1.54,1.54s-.69,1.54-1.54,1.54Z"/><path class="cls-6" d="M148.86,149.95c-.15,0-.31-.02-.46-.07l-18.17-5.68c-.81-.25-1.27-1.12-1.01-1.93s1.12-1.27,1.93-1.01l18.17,5.68c.81.25,1.27,1.12,1.01,1.93-.21.66-.82,1.08-1.47,1.08Z"/><path class="cls-6" d="M56.92,127.48c-.13,0-.26-.02-.4-.05l-18.4-4.89c-.82-.22-1.31-1.06-1.09-1.89.22-.82,1.06-1.31,1.89-1.09l18.4,4.89c.82.22,1.31,1.06,1.09,1.89-.18.69-.81,1.15-1.49,1.15Z"/><path class="cls-6" d="M36.07,136.78c-.82,0-1.5-.65-1.54-1.48-.04-.85.62-1.57,1.47-1.61l19.02-.82c.85-.03,1.57.62,1.61,1.47.04.85-.62,1.57-1.47,1.61l-19.02.82s-.05,0-.07,0Z"/><path class="cls-6" d="M98.46,145.26c-.6,0-1.17-.35-1.42-.94l-2.69-6.29-3.49,5.16c-.48.71-1.44.89-2.14.41-.71-.48-.89-1.44-.41-2.14l5.08-7.51c.32-.47.86-.73,1.42-.67.56.05,1.05.41,1.27.93l3.8,8.89c.33.78-.03,1.69-.81,2.02-.2.08-.4.12-.61.12Z"/><g class="cls-1"><circle class="cls-6" cx="70.59" cy="99.26" r="11.42"/></g><g class="cls-10"><circle class="cls-6" cx="114.18" cy="103" r="11.42"/></g><ellipse class="cls-2" cx="80.59" cy="90.28" rx="7.35" ry="3.63" transform="translate(-29.57 40.18) rotate(-23.79)"/><ellipse class="cls-2" cx="123.1" cy="93.38" rx="7.35" ry="3.63" transform="translate(-27.21 57.6) rotate(-23.79)"/></g></g></svg>