<?xml version="1.0" encoding="UTF-8"?><svg id="Layer_2" xmlns="http://www.w3.org/2000/svg" xmlns:xlink="http://www.w3.org/1999/xlink" viewBox="0 0 200 200"><defs><style>.cls-1{fill:#529fff;}.cls-1,.cls-2,.cls-3,.cls-4,.cls-5,.cls-6{stroke-width:0px;}.cls-7{clip-path:url(#clippath-2);}.cls-2{fill:#48cee0;}.cls-3{fill:#ff7c8e;}.cls-4{fill:#f3faff;}.cls-5{fill:none;}.cls-8{clip-path:url(#clippath-1);}.cls-9{clip-path:url(#clippath);}.cls-10{clip-path:url(#clippath-3);}.cls-6{fill:#333;}</style><clipPath id="clippath"><circle class="cls-5" cx="100" cy="100" r="100"/></clipPath><clipPath id="clippath-1"><path class="cls-5" d="M181.4,116.35c-.27-3.44-.89-6.78-1.81-10.02-.03-.88-.07-1.77-.14-2.65-.73-9.27-3.64-17.85-8.25-25.47,4.05-31.35-8.19-50.86-8.19-50.86-27.93,7.7-31.44,20.26-31.44,20.26v.23c-11.13-3.73-23.46-5.32-36.22-4.31-13.88,1.1-26.65,5.33-37.49,11.81v-.11c-14.52-14.21-31.12-18.25-31.12-18.25-6.13,27.37-.9,55.04-.9,55.04l.67-.07c-3,8.12-4.32,16.83-3.61,25.75,0,0,0,0,0,0-.52,3.67-.64,7.42-.34,11.22,2.77,34.97,40.58,60.5,84.44,57.03,43.87-3.48,77.18-34.64,74.41-69.62Z"/></clipPath><clipPath id="clippath-2"><path class="cls-5" d="M88.11,160.41s24.34,18.62,44.98-4.15c0,0,15.25-18.17-5.16-16.94-20.41,1.23-39.82,4.49-39.82,4.49,0,0-15.93,2.36,0,16.6Z"/></clipPath><clipPath id="clippath-3"><path class="cls-5" d="M181.32,116.35c-.27-3.44-.89-6.78-1.81-10.02-.03-.88-.07-1.77-.14-2.65-.73-9.27-3.64-17.85-8.25-25.47,4.05-31.35-8.19-50.86-8.19-50.86-27.93,7.7-31.44,20.26-31.44,20.26v.23c-11.13-3.73-23.46-5.32-36.22-4.31-13.88,1.1-26.65,5.33-37.49,11.81v-.11c-14.52-14.21-31.12-18.25-31.12-18.25-6.13,27.37-.9,55.04-.9,55.04l.67-.07c-3,8.12-4.32,16.83-3.61,25.75,0,0,0,0,0,0-.52,3.67-.64,7.42-.34,11.22,2.77,34.97,43.46,54.86,87.33,51.39,43.87-3.48,74.29-29,71.52-63.98Z"/></clipPath></defs><g id="Layer_2-2"><g class="cls-9"><path class="cls-2" d="M26.51,91.97c-3,8.12-4.32,16.83-3.61,25.75,0,0,0,0,0,0-.52,3.67-.64,7.42-.34,11.22,2.77,34.97,41.22,55.05,85.08,51.58,43.87-3.48,76.54-29.19,73.77-64.17-.27-3.44-.89-6.78-1.81-10.02-.03-.88-.07-1.77-.14-2.65-.73-9.27-3.64-17.85-8.25-25.47,4.05-31.35-8.19-50.86-8.19-50.86-27.93,7.7-31.44,20.26-31.44,20.26v.23c-11.13-3.73-23.46-5.32-36.22-4.31-13.88,1.1-26.65,5.33-37.49,11.81v-.11c-14.52-14.21-31.12-18.25-31.12-18.25-2.34,16.29-2.53,34.51-.23,54.96Z"/><path class="cls-4" d="M33.64,50.86c.58-1.06,10.32,3.36,15.7,9.35,0,0-9.35,6.8-16.6,17.27,0,0-.9-23.33.9-26.62Z"/><path class="cls-4" d="M158.64,37.87s5.83,9.98,2.69,28.77c0,0-8.47-10.43-22.77-15.87,0,0,4.99-9.7,20.08-12.9Z"/><g class="cls-8"><ellipse class="cls-1" cx="76.29" cy="40.69" rx="6.85" ry="46.19" transform="translate(-5.43 12.46) rotate(-9.02)"/><ellipse class="cls-1" cx="107.8" cy="40.69" rx="46.19" ry="6.85" transform="translate(57.26 144.24) rotate(-84.66)"/></g><ellipse class="cls-4" cx="60.49" cy="115.7" rx="19.43" ry="17.67" transform="translate(-5.03 2.77) rotate(-2.52)"/><ellipse class="cls-4" cx="143.47" cy="106.2" rx="19.43" ry="17.67" transform="translate(-4.53 6.42) rotate(-2.52)"/><path class="cls-6" d="M67.97,115.09c-.64-7.92-4.53-14.06-8.68-13.72-3.44.28-5.97,4.92-6.38,10.99l7.04,3.82-5.85,6.03c1.59,4.84,4.48,8.06,7.51,7.81,4.15-.34,6.99-7.03,6.35-14.94Z"/><path class="cls-6" d="M150.95,105.59c-.64-7.92-4.53-14.06-8.68-13.72-3.44.28-5.97,4.92-6.38,10.99l7.04,3.82-5.85,6.03c1.59,4.84,4.48,8.06,7.51,7.81,4.15-.34,6.99-7.03,6.35-14.94Z"/><path class="cls-6" d="M88.11,160.41s24.34,18.62,44.98-4.15c0,0,15.25-18.17-5.16-16.94s-39.82,4.49-39.82,4.49c0,0-15.93,2.36,0,16.6Z"/><g class="cls-7"><circle class="cls-3" cx="114.15" cy="187.64" r="38.73"/></g><g class="cls-10"><circle class="cls-1" cx="174.93" cy="147.33" r="26.19"/><circle class="cls-1" cx="34.55" cy="163.09" r="26.19"/></g><path class="cls-6" d="M167.14,122.1c-1.23,0-2.32-.86-2.58-2.11-.29-1.43.63-2.82,2.05-3.11l16.75-3.44c1.43-.29,2.82.63,3.11,2.05.29,1.43-.63,2.82-2.05,3.11l-16.75,3.44c-.18.04-.36.05-.53.05Z"/><path class="cls-6" d="M185.65,135.55s-.05,0-.08,0l-17.09-.49c-1.46-.04-2.6-1.26-2.56-2.71.04-1.45,1.26-2.59,2.71-2.56l17.09.49c1.46.04,2.6,1.26,2.56,2.71-.04,1.43-1.21,2.56-2.63,2.56Z"/><path class="cls-6" d="M18.79,153.42c-1.1,0-2.12-.69-2.49-1.79-.47-1.38.27-2.88,1.64-3.35l16.18-5.52c1.38-.47,2.88.27,3.35,1.64.47,1.38-.27,2.88-1.64,3.35l-16.18,5.52c-.28.1-.57.14-.85.14Z"/><path class="cls-6" d="M16.33,136.05c-1.45,0-2.63-1.17-2.64-2.62,0-1.46,1.17-2.64,2.62-2.65l17.1-.08h.01c1.45,0,2.63,1.17,2.64,2.62,0,1.46-1.17,2.64-2.62,2.65l-17.1.08h-.01Z"/><path class="cls-3" d="M115.06,124.55c.4,3.84-3.48,10.11-9.01,10.69-5.53.57-10.61-4.77-11.01-8.61s4.04-4.74,9.56-5.31c5.53-.57,10.05-.61,10.45,3.24Z"/></g></g></svg>