<?xml version="1.0" encoding="UTF-8"?><svg id="a" xmlns="http://www.w3.org/2000/svg" viewBox="0 0 39 30.01"><defs><style>.b{fill:#48cee0;}.b,.c{fill-rule:evenodd;stroke-width:0px;}.c{fill:#bbd3e5;}</style></defs><path class="b" d="M36.06,5.76c-.6-.89-1.88-1.17-2.87-.63-.99.54-1.3,1.69-.71,2.58,1.49,2.2,2.29,4.73,2.33,7.3-.04,2.58-.84,5.1-2.33,7.3-.6.89-.28,2.04.71,2.58.99.54,2.27.25,2.87-.63,1.88-2.78,2.89-5.97,2.94-9.22v-.05c-.04-3.25-1.06-6.44-2.94-9.22ZM30.63,10.26c-.74-.8-2.05-.91-2.94-.25-.89.66-1.01,1.84-.28,2.64.58.63.88,1.44.84,2.26,0,.06,0,.12,0,.18.04.82-.26,1.63-.84,2.26-.74.8-.61,1.98.28,2.64.89.66,2.21.55,2.94-.25,1.23-1.33,1.87-3.02,1.8-4.74.07-1.72-.57-3.41-1.8-4.74Z"/><path class="c" d="M17.31.66c2.74-1.71,6.43.1,6.37,3.07v22.58c-.07,2.97-3.9,4.72-6.62,3.03-.06-.04-.12-.08-.18-.13l-9.09-7.95h-3.61c-2.29,0-4.18-1.7-4.18-3.76v-5.02c0-2.05,1.89-3.76,4.18-3.76h3.62L17.15.78c.05-.04.11-.08.16-.12Z"/></svg>