<?xml version="1.0" encoding="utf-8"?>
<!-- Generator: Adobe Illustrator 28.2.0, SVG Export Plug-In . SVG Version: 6.00 Build 0)  -->
<svg version="1.1" id="Layer_1" xmlns="http://www.w3.org/2000/svg" xmlns:xlink="http://www.w3.org/1999/xlink" x="0px" y="0px"
	 viewBox="0 0 430 932" style="enable-background:new 0 0 430 932;" xml:space="preserve">
<style type="text/css">
	.st0{fill:#3ABFF0;}
	.st1{clip-path:url(#SVGID_00000183220448092411939790000001536425819437525948_);}
	.st2{fill:#009FE3;stroke:#ACDEF9;}
	.st3{fill:#FFFFFF;}
	.st4{clip-path:url(#SVGID_00000075121288935284953240000017504734015057929136_);}
	.st5{display:none;fill:#FFFFFF;}
	.st6{fill:#8EAA26;fill-opacity:0.2;stroke:#14953A;stroke-width:4;}
	.st7{fill:#FFD800;fill-opacity:0.2;stroke:#F7BC00;stroke-width:4;}
	.st8{fill:#69C2E4;fill-opacity:0.2;stroke:#008BC0;stroke-width:4;}
	.st9{fill:#EB5B21;fill-opacity:0.2;stroke:#C01E12;stroke-width:4;}
	.st10{fill:#868686;}
	.st11{fill:#14953A;}
	.st12{fill:#D94F89;}
	.st13{fill:#C01E12;}
	.st14{fill:#008BC0;}
	.st15{clip-path:url(#SVGID_00000176003540675395211260000006443396875156903609_);}
	.st16{fill:#F296A7;}
	.st17{fill:#EB5B21;}
	.st18{fill:#DD3410;}
	.st19{fill:#E53012;}
	.st20{fill:#F49A6F;}
	.st21{fill:#BEC4C4;}
	.st22{fill:#FFDE98;}
	.st23{fill:#3F3D41;}
	.st24{fill:#B9BFCF;}
	.st25{fill:#F9B655;}
	.st26{fill:#E28537;}
	.st27{clip-path:url(#SVGID_00000036244631775014328290000001496727185818512545_);}
	.st28{fill:#EB5E2D;}
	.st29{fill:#F29C66;}
	.st30{fill:#FFD800;}
	.st31{fill:#C5557D;}
	.st32{fill:#E997B5;}
	.st33{fill:#D4658D;}
	.st34{fill:#F7BFD9;}
	.st35{fill:#F9CCD9;}
	.st36{fill:#FCEBF1;}
	.st37{fill:#47BCCB;}
	.st38{fill:#01A5CC;}
	.st39{fill:#006B92;}
	.st40{fill:#A8DBEB;}
	.st41{fill:#C9E8F2;}
	.st42{fill:#F7BC00;}
	.st43{fill:#FDF1A6;}
	.st44{fill:#00A5CC;}
	.st45{fill:#9AC31C;}
	.st46{fill:#68B02E;}
	.st47{fill:#B4CC04;}
	.st48{fill:#D0DE86;}
	.st49{fill:#E74967;}
	.st50{fill:#F7BED1;}
	.st51{fill:#8EAA26;}
	.st52{fill:#B0C92E;}
	.st53{fill:#D6DD5E;}
	.st54{fill:#69C2E4;}
	.st55{fill:#F9B600;}
	.st56{fill:#EB9000;}
	.st57{fill:#FCC71E;}
	.st58{fill:#FFE241;}
	.st59{clip-path:url(#SVGID_00000070818204773812932390000014752828046653370272_);}
	.st60{fill:#EDEBEC;}
	.st61{fill:#CD7E39;}
	.st62{fill:#D2754E;}
	.st63{fill:#BB642B;}
	.st64{fill:#EC619F;}
	.st65{fill:#FFCB00;}
	.st66{fill:#00853E;}
	.st67{fill:#8E5322;}
	.st68{fill:#C7473D;}
	.st69{fill:#5C2926;}
	.st70{fill:#1D1D1B;}
	.st71{fill:#7C462F;}
	.st72{fill:#48251C;}
	.st73{fill:#64362C;}
	.st74{fill:#E42313;}
	.st75{fill:#F7F1EB;}
	.st76{fill:#0076C0;}
	.st77{fill:#009FE3;}
	.st78{fill:#ACDEF9;}
	.st79{fill:#3ABFF0;stroke:#FFFFFF;stroke-width:3;}
</style>
<g>
	<g id="f">
		<g>
			<rect x="0.2" y="0" class="st0" width="430" height="843.4"/>
			<g>
				<defs>
					<rect id="SVGID_1_" x="0.2" y="0" width="430" height="852.5"/>
				</defs>
				<clipPath id="SVGID_00000002373282032841558700000002735893034868381089_">
					<use xlink:href="#SVGID_1_"  style="overflow:visible;"/>
				</clipPath>
				<g style="clip-path:url(#SVGID_00000002373282032841558700000002735893034868381089_);">
					<path class="st2" d="M-23.8,51L89.8-8l31-5L-19.8,86L-23.8,51z"/>
					<path class="st2" d="M-23.2,133.5l206.5-152l32.5-5.5l-239,198.5V133.5z"/>
					<path class="st2" d="M-15.8,214.5L253.8-10l50-6L-15.8,255.5V214.5z"/>
					<path class="st2" d="M-13.8,309.5L354.8-18l62-7.5l-430.5,376V309.5z"/>
					<path class="st2" d="M-13.8,410l456-392.5l5.5,39.5L-13.8,451V410z"/>
					<path class="st2" d="M-7.8,505.5l456-392.5l5.5,39.5l-461.5,394V505.5z"/>
					<path class="st2" d="M-7.8,615.5l456-392.5v47.5l-456,386V615.5z"/>
					<path class="st2" d="M-4.8,734.5l451-401V389l-451,386.5V734.5z"/>
					<path class="st2" d="M3.2,840.5l448-382l-8,52.5l-386,329.5H3.2z"/>
					<path class="st2" d="M133.8,842l314-261.5V626l-266,216H133.8L133.8,842z"/>
					<path class="st2" d="M245.2,843l201-139l-6,54l-138.5,85H245.2z"/>
				</g>
			</g>
		</g>
		<path class="st3" d="M409,42.8c0-11.1-9-20-20-20H41c-11,0-20,9-20,20v866.3h388V42.8z"/>
	</g>
	<g id="a">
		<g>
			<defs>
				<rect id="SVGID_00000103958989542710844310000017244823702922471300_" width="430" height="932"/>
			</defs>
			<clipPath id="SVGID_00000076563104911017919480000010381803257761386660_">
				<use xlink:href="#SVGID_00000103958989542710844310000017244823702922471300_"  style="overflow:visible;"/>
			</clipPath>
			<g style="clip-path:url(#SVGID_00000076563104911017919480000010381803257761386660_);">
				<rect class="st5" width="430" height="932"/>
				<path shape-rendering="crispEdges" class="st6" d="M76,391.5h110c10.8,0,19.5,8.7,19.5,19.5v151c0,10.8-8.7,19.5-19.5,19.5H76
					c-10.8,0-19.5-8.7-19.5-19.5V411C56.5,400.2,65.2,391.5,76,391.5z"/>
				<path shape-rendering="crispEdges" class="st7" d="M76,603.5h110c10.8,0,19.5,8.7,19.5,19.5v150c0,10.8-8.7,19.5-19.5,19.5H76
					c-10.8,0-19.5-8.7-19.5-19.5V623C56.5,612.2,65.2,603.5,76,603.5z"/>
				<path shape-rendering="crispEdges" class="st8" d="M246,391.5h109c10.8,0,19.5,8.7,19.5,19.5v151c0,10.8-8.7,19.5-19.5,19.5H246
					c-10.8,0-19.5-8.7-19.5-19.5V411C226.5,400.2,235.2,391.5,246,391.5z"/>
				<path shape-rendering="crispEdges" class="st9" d="M246,603.5h109c10.8,0,19.5,8.7,19.5,19.5v150c0,10.8-8.7,19.5-19.5,19.5H246
					c-10.8,0-19.5-8.7-19.5-19.5V623C226.5,612.2,235.2,603.5,246,603.5z"/>
				<g>
					<polygon class="st10" points="227,655.5 268,604 320,604 227,698.5 227,655.5 					"/>
				</g>
				<path class="st11" d="M92.6,532H97v14h-4.6l-2.9-5.8v5.8h-4.4v-14h4.7l2.8,5.7V532z M104.6,546c-3.7,0-5.8-2.2-5.8-5.9V532h4.4
					v8.3c0,1.2,0.4,1.8,1.4,1.8c0.9,0,1.4-0.6,1.4-1.8V532h4.4v8.1C110.4,543.8,108.2,546,104.6,546L104.6,546z M112.1,547.2V532
					h5.1l2.7,4.2l2.7-4.2h5.1v15.2h-4.4v-8.4l-2.5,3.9H119l-2.5-3.9v8.4H112.1z M129.7,547.2v-16.4h6.1c3.5,0,5.4,1.8,5.4,4.9
					c0,1.7-0.7,3.2-1.8,4c0.7,0.6,1.1,1.6,1.1,2.9c0,3-1.7,4.6-4.9,4.6H129.7z M134.1,543.2h1.2c0.6,0,0.9-0.3,0.9-1s-0.3-1-0.9-1
					h-1.2V543.2L134.1,543.2z M134.1,537.3h1.6c0.8,0,1.1-0.4,1.1-1.2s-0.4-1.2-1.1-1.2h-1.6V537.3z M142.5,547.2v-16.4h9.7v4.2
					h-5.3v2.2h4.5v4h-4.5v2.1h5.3v4H142.5z M159.4,532c3.6,0,5.5,1.8,5.5,5.1c0,2.2-0.9,3.8-2.5,4.6l3.6,5.5h-4.7l-3.2-4.9v4.9h-4.4
					V532H159.4L159.4,532z M158.1,538.6h1.2c0.8,0,1.2-0.4,1.2-1.2s-0.4-1.2-1.2-1.2h-1.2V538.6z M173,542.3c0-0.8-0.3-1-1.9-1.2
					c-3.5-0.5-5.1-2.1-5.1-5c0-3.2,2.2-5.3,5.6-5.3c3.4,0,5.4,2,5.5,5.4h-4.4c0-1-0.3-1.4-1.1-1.4c-0.7,0-1.2,0.4-1.2,1
					c0,0.7,0.3,0.9,1.9,1.1c3.5,0.5,5.1,2,5.1,4.9c0,3.4-2.1,5.4-5.6,5.4c-3.9,0-5.8-1.8-6-5.5h4.4c0,1.3,0.4,1.7,1.6,1.7
					C172.5,543.4,173,542.9,173,542.3L173,542.3z"/>
				<path class="st12" d="M90.2,741.8h4.4V753h4.8v4h-9.2C90.2,757,90.2,741.8,90.2,741.8z M100.8,758.2v-16.4h9.7v4.2h-5.3v2.2h4.5
					v4h-4.5v2.1h5.3v4H100.8z M115.2,758.2v-11h-3.6V743h11.6v4.2h-3.6v11H115.2z M128,758.2v-11h-3.6V743H136v4.2h-3.6v11H128z
					 M137.5,758.2v-16.4h9.7v4.2h-5.3v2.2h4.5v4h-4.5v2.1h5.3v4H137.5z M154.3,743c3.6,0,5.5,1.8,5.5,5.1c0,2.2-0.9,3.8-2.5,4.6
					l3.6,5.5h-4.7l-3.2-4.9v4.9h-4.4V743H154.3L154.3,743z M153,749.6h1.2c0.8,0,1.2-0.4,1.2-1.2s-0.4-1.2-1.2-1.2H153V749.6z
					 M167.9,753.3c0-0.8-0.3-1-1.9-1.2c-3.5-0.5-5.1-2.1-5.1-5c0-3.2,2.2-5.3,5.6-5.3c3.4,0,5.4,2,5.5,5.4h-4.4c0-1-0.3-1.4-1.1-1.4
					c-0.7,0-1.2,0.4-1.2,1c0,0.7,0.3,0.9,1.9,1.1c3.5,0.5,5.1,2,5.1,4.9c0,3.4-2.1,5.4-5.6,5.4c-3.9,0-5.8-1.8-6-5.5h4.4
					c0,1.3,0.4,1.7,1.6,1.7C167.4,754.4,167.9,753.9,167.9,753.3L167.9,753.3z"/>
				<path class="st13" d="M261,743c4.1,0,6.3,2.2,6.3,6.4v2.4c0,4.2-2.2,6.4-6.3,6.4h-5.7V743L261,743L261,743z M259.7,754.2h1.3
					c1.2,0,1.9-0.8,1.9-2.3v-2.6c0-1.4-0.7-2.2-1.9-2.2h-1.3V754.2z M274.4,743c3.6,0,5.5,1.8,5.5,5.1c0,2.2-0.9,3.8-2.5,4.6
					l3.6,5.5h-4.7l-3.2-4.9v4.9h-4.4V743H274.4L274.4,743z M273.1,749.6h1.2c0.8,0,1.2-0.4,1.2-1.2s-0.4-1.2-1.2-1.2h-1.2V749.6z
					 M281.8,758.2L285,743h6.6l3.1,15.2h-4.5l-0.5-2.6h-3l-0.5,2.6H281.8L281.8,758.2z M287.5,751.7h1.6l-0.8-4.3L287.5,751.7z
					 M308.8,743h4.3l-1.9,15.2h-6.3l-1.1-7l-1.1,7h-6.3l-1.9-15.2h4.3l1.1,10l1.4-9.1h4.9l1.4,9.1L308.8,743L308.8,743z
					 M314.2,758.2V743h4.4v15.2H314.2z M328,743h4.4v14h-4.6l-2.9-5.8v5.8h-4.4v-14h4.7l2.8,5.7L328,743L328,743z M340.1,758.2
					c-4,0-6.3-2.3-6.3-6.3v-3c0-3.9,2.4-6.3,6.2-6.3c4,0,5.9,2.1,6.1,5.9h-4.4c-0.2-1.3-0.5-1.7-1.7-1.7s-1.7,0.7-1.7,2.1v3.2
					c0,1.6,0.5,2.1,1.9,2.1c1.2,0,1.6-0.4,1.6-1.3v-0.1h-2.3v-3.5h6.7v3C346.1,756.2,344,758.2,340.1,758.2L340.1,758.2z"/>
				<path class="st14" d="M270.8,542.3c0-0.8-0.3-1-1.9-1.2c-3.5-0.5-5.1-2.1-5.1-5c0-3.2,2.2-5.3,5.6-5.3s5.4,2,5.5,5.4h-4.4
					c0-1-0.3-1.4-1.1-1.4c-0.7,0-1.2,0.4-1.2,1c0,0.7,0.3,0.9,1.9,1.1c3.5,0.5,5.1,2,5.1,4.9c0,3.4-2.1,5.4-5.6,5.4
					c-3.9,0-5.8-1.8-6-5.5h4.4c0,1.3,0.4,1.7,1.6,1.7C270.3,543.4,270.8,542.9,270.8,542.3z M283.9,546v-5.2H281v5.2h-4.4v-15.2h4.4
					v6h2.9v-6h4.4V546H283.9z M289.4,547.2l3.1-15.2h6.6l3.1,15.2h-4.5l-0.5-2.6h-3l-0.5,2.6H289.4L289.4,547.2z M295.1,540.7h1.6
					l-0.8-4.3L295.1,540.7z M309.3,530.8c3.6,0,5.5,2,5.5,5.7s-1.9,5.5-5.5,5.5h-1.4v4h-4.4v-15.2L309.3,530.8L309.3,530.8z
					 M307.9,538h1.1c1,0,1.4-0.4,1.4-1.5S310,535,309,535h-1.1V538z M316.1,547.2v-16.4h9.7v4.2h-5.3v2.2h4.5v4h-4.5v2.1h5.3v4
					H316.1z M333.9,542.3c0-0.8-0.3-1-1.9-1.2c-3.5-0.5-5.1-2.1-5.1-5c0-3.2,2.2-5.3,5.6-5.3s5.4,2,5.5,5.4h-4.4
					c0-1-0.3-1.4-1.1-1.4c-0.7,0-1.2,0.4-1.2,1c0,0.7,0.3,0.9,1.9,1.1c3.5,0.5,5.1,2,5.1,4.9c0,3.4-2.1,5.4-5.6,5.4
					c-3.9,0-5.8-1.8-6-5.5h4.4c0,1.3,0.4,1.7,1.6,1.7C333.4,543.4,333.9,542.9,333.9,542.3z"/>
				<g>
					<defs>
						<rect id="SVGID_00000062171240287657021270000017452014012390630285_" x="258" y="629" width="90" height="94"/>
					</defs>
					<clipPath id="SVGID_00000011734384537737858730000007015086566705759415_">
						<use xlink:href="#SVGID_00000062171240287657021270000017452014012390630285_"  style="overflow:visible;"/>
					</clipPath>
					<g style="clip-path:url(#SVGID_00000011734384537737858730000007015086566705759415_);">
						<path class="st16" d="M332,664c0,0,11.9-1.7,15.3-10.6c4-10.8-10.1-24.8-19.1-24.4c-7.8,0.4-16.2,11.3-16.8,11.5
							C324.7,648.6,332,664,332,664L332,664z"/>
						<path class="st17" d="M329.5,668.8c0,0-25.8,16.6-45,42.1c-2.6-5.2-12.7-15.8-23.1-16.9c18.9-29,38.6-46.4,49-52.1
							C327.6,651.3,329.6,668.8,329.5,668.8L329.5,668.8z"/>
						<path class="st18" d="M329.3,669c-2.8,1.9-26.7,17.9-44.7,41.9c-0.8-1.5-2.2-3.6-4.1-5.7c16.5-22.6,32.6-36.4,41.6-41.3
							C324.9,665.4,327.2,667.1,329.3,669L329.3,669L329.3,669z"/>
						<path class="st19" d="M312.8,647.8c0,0-22.4,17.6-44.6,48.1c-2.2-1-4.4-1.7-6.7-1.9c18.9-29,38.6-46.4,49-52.1
							c0.5,0.3,1,0.6,1.5,0.9C312.8,645.8,312.8,647.8,312.8,647.8L312.8,647.8z"/>
						<path class="st20" d="M306.5,653.2c-8.4,6.1-24.5,23.1-34.7,38C288.2,671.6,306.5,653.2,306.5,653.2z"/>
						<path class="st20" d="M317.1,666.9c-8.4,6.1-22.4,17-34.3,35C298.5,682.2,317.1,666.9,317.1,666.9z"/>
						<path class="st21" d="M336.8,662c0.2,2,0.2,5-3.9,8.3c-3.6,2.8-7.5,5.3-9.6,3c-2-9.1-14-22.7-22.1-25.2
							c-2.1-2.2,6.7-11,11.8-11.1C321.4,636.8,335.5,651.8,336.8,662L336.8,662L336.8,662z"/>
						<path class="st22" d="M261.5,694c1.6-1.4,6.2-0.9,13.7,4c6.8,4.5,10.8,11,9.4,12.9c-8.3,4-20.5,9.9-24.9,11.9
							c-1,0.5-1.9,0.2-1.7-1C258.6,715.7,260.6,697.1,261.5,694L261.5,694L261.5,694z"/>
						<path class="st23" d="M264.3,714.9c2.4,1.7,3.5,3,3.8,3.9c-0.4,0.2-0.7,0.3-1,0.5c-3.1,1.5-5.7,2.7-7.3,3.5
							c-1,0.5-1.9,0.2-1.7-1c0.2-1.9,0.5-4.9,0.9-8.3c0,0,0,0,0-0.1C259.7,713.2,261.7,713,264.3,714.9L264.3,714.9z"/>
						<path class="st24" d="M259.1,721.2c-1,0.5,0.1-7.1,1.1-7.3C261.1,713.6,259.3,721.1,259.1,721.2z"/>
						<path class="st25" d="M262.9,711.7c-0.8,0.9,3.8-15.1,4.8-15.4C268.3,696.1,263.6,711,262.9,711.7z"/>
						<path class="st25" d="M268.4,715.7c-0.9,0.9,12.9-7.5,13.3-8.3C281.9,706.8,271,713,268.4,715.7z"/>
						<path class="st26" d="M265.4,713.2c-0.8,0.9,7.7-12,8.6-12.3C274.5,700.8,266.1,712.5,265.4,713.2z"/>
					</g>
				</g>
				<g>
					<defs>
						<rect id="SVGID_00000007429834765979826990000009384977582366647452_" x="100" y="611" width="63" height="123"/>
					</defs>
					<clipPath id="SVGID_00000125582256263570575120000003510039644768762768_">
						<use xlink:href="#SVGID_00000007429834765979826990000009384977582366647452_"  style="overflow:visible;"/>
					</clipPath>
					<g style="clip-path:url(#SVGID_00000125582256263570575120000003510039644768762768_);">
						<path class="st28" d="M159.7,691c0.6-0.4-15.7-7-25.4-8.7c-9.8,1.1-28.2,6.2-27.5,7c6.9,3,19.9,9,21.6,9
							C130.1,698.4,158.9,691.6,159.7,691L159.7,691L159.7,691z"/>
						<path class="st19" d="M159.7,691c0,0,1.9,30.6,0.4,32.3c-1.6,1.7-29,9.6-30.5,9.6c-0.6-12.5-1.3-33.1-1.2-34.5
							C134.5,695.9,159.7,691,159.7,691L159.7,691z"/>
						<path class="st13" d="M106.8,689.3c-0.6,0.4-0.4,30.9,0.2,31.7s21.8,12,22.6,11.9c0.9-0.1-0.9-33.8-1.2-34.5
							C128.1,697.6,106.8,689.3,106.8,689.3L106.8,689.3z"/>
						<path class="st28" d="M128.4,698.4c-0.6-1.8,0.6,34,1.2,34.5C130.2,733.5,129.6,701.7,128.4,698.4z"/>
						<path class="st29" d="M159.7,691c0,0-18,2-31.3,7.4C135.2,697.4,159.7,691,159.7,691z"/>
						<path class="st29" d="M106.8,689.3c0.8,1,19.9,8.7,21.6,9C125.7,696,106.8,689.3,106.8,689.3z"/>
						<path class="st30" d="M147.4,721.6c-1.4,0.2-2.6,0.2-3.9-0.1c-1.2-0.2-2.3-0.6-3.2-1.2c-0.9-0.6-1.7-1.2-2.4-2
							c-0.7-0.8-1.3-1.7-1.7-2.7c-0.4-1-0.7-2-0.8-3c-0.2-1.3-0.1-2.6,0.2-3.8c0.3-1.3,0.9-2.5,1.6-3.5c0.8-1.1,1.8-2,3.1-2.8
							c1.3-0.8,2.9-1.3,4.6-1.5c2.9-0.4,5.4-0.1,7.5,0.9l-2.1,5.6c0,0-2-2.5-4.2-2.1c-2.1,0.4-3.1,1.7-3.5,2.8
							c-0.4,1.1-0.5,2.2-0.4,3.4c0.1,0.9,0.4,1.8,0.9,2.6c0.5,0.8,1.1,1.4,2,1.8c0.9,0.4,1.8,0.6,2.9,0.4c0.6-0.1,1.2-0.3,1.8-0.6
							c0.6-0.3,1-0.7,1.4-1.2l3.2,3.2c-0.5,0.8-1.4,1.6-2.7,2.4C150.5,720.9,149,721.4,147.4,721.6L147.4,721.6z"/>
						<path class="st31" d="M106.9,655.8c-0.6-0.4,15.8-7.3,25.7-9.1c9.9,1,28.7,6,28,6.8c-7,3.1-20.1,9.3-21.8,9.4
							C137,663.1,107.8,656.4,106.9,655.8z"/>
						<path class="st32" d="M106.9,655.8c0,0-1.6,31.1,0,32.8c1.6,1.7,29.6,9.5,31,9.4c0.5-12.7,1-33.6,0.8-35.1
							C132.5,660.5,106.9,655.8,106.9,655.8L106.9,655.8L106.9,655.8z"/>
						<path class="st33" d="M160.6,653.5c0.6,0.4,0.7,31.4,0.2,32.2c-0.5,0.8-22,12.4-22.8,12.3c-0.9-0.1,0.6-34.4,0.8-35.1
							C139,662.2,160.6,653.5,160.6,653.5L160.6,653.5L160.6,653.5z"/>
						<path class="st34" d="M138.8,663c0.6-1.8-0.2,34.5-0.8,35.1C137.3,698.6,137.6,666.3,138.8,663z"/>
						<path class="st35" d="M106.9,655.8c0,0,18.3,1.8,31.9,7.1C131.8,662.1,106.9,655.8,106.9,655.8z"/>
						<path class="st35" d="M160.6,653.5c-0.8,1-20.1,9-21.8,9.4C141.5,660.5,160.6,653.5,160.6,653.5z"/>
						<path class="st36" d="M126.1,677c0.7,0.3,1.4,0.8,1.9,1.4c0.6,0.7,1,1.5,1.3,2.4s0.5,1.8,0.4,2.8c-0.1,2-1,3.1-2.6,3.4
							c-1.7,0.3-4.3-0.2-7.7-1.6l-3.7-1.5l0.7-19c0.6-0.2,1.5-0.1,2.7,0.3s2.4,0.7,3.5,1.1c1,0.4,2,1,2.9,1.8
							c0.9,0.8,1.6,1.7,2.2,2.6c0.6,0.9,0.8,1.8,0.8,2.7c0,1.1-0.3,1.9-0.9,2.6c-0.5,0.7-1.2,0.9-2.1,0.7
							C125.7,676.8,125.9,676.9,126.1,677L126.1,677L126.1,677z M123.5,671.2c-0.3-0.4-0.8-0.8-1.4-1c-0.4-0.2-0.8-0.2-1.1-0.2
							l-0.1,3c0.2,0.2,0.4,0.3,0.7,0.4c0.6,0.2,1.1,0.3,1.6,0.1c0.5-0.2,0.7-0.5,0.8-1C124,672,123.8,671.6,123.5,671.2L123.5,671.2
							L123.5,671.2z M123.7,682.1c0.6-0.2,0.9-0.7,0.9-1.3c0-0.5-0.2-1-0.6-1.6c-0.4-0.5-0.9-0.9-1.6-1.1c-0.6-0.2-1.2-0.3-1.7-0.2
							l-0.1,3.5c0.3,0.3,0.6,0.5,1,0.6C122.4,682.3,123.1,682.3,123.7,682.1L123.7,682.1z"/>
						<path class="st37" d="M101.7,621.8c-0.6-0.4,15.8-7.3,25.7-9.1c9.9,1,28.7,6,28,6.8c-7,3.1-20.1,9.3-21.8,9.4
							C131.9,629,102.6,622.4,101.7,621.8L101.7,621.8L101.7,621.8z"/>
						<path class="st38" d="M101.7,621.8c0,0-1.6,31.1,0,32.8c1.6,1.7,29.6,9.5,31,9.4c0.5-12.7,1-33.6,0.8-35.1
							C127.3,626.5,101.7,621.8,101.7,621.8z"/>
						<path class="st39" d="M155.4,619.5c0.6,0.4,0.7,31.4,0.2,32.2c-0.5,0.8-22,12.4-22.8,12.3c-0.9-0.1,0.6-34.3,0.8-35.1
							C133.9,628.2,155.4,619.5,155.4,619.5L155.4,619.5L155.4,619.5z"/>
						<path class="st37" d="M133.6,628.9c0.6-1.8-0.2,34.5-0.8,35.1C132.1,664.6,132.4,632.3,133.6,628.9z"/>
						<path class="st40" d="M101.7,621.8c0,0,18.3,1.8,31.9,7.1C126.7,628,101.7,621.8,101.7,621.8z"/>
						<path class="st40" d="M155.4,619.5c-0.8,1-20.1,9-21.8,9.4C136.3,626.5,155.4,619.5,155.4,619.5z"/>
						<path class="st41" d="M119.5,648.3l-6.2-1.4l-1.7,3.8l-4.8-3.2l8.6-15.8l4.9,1.1l5.2,19.9l-4.9,0.2L119.5,648.3L119.5,648.3
							L119.5,648.3z M118.4,642.7l-1-5l-1.9,4.3L118.4,642.7L118.4,642.7L118.4,642.7z"/>
					</g>
				</g>
				<path class="st30" d="M102.1,479.3c-0.6-0.4,14.7-7.3,23.9-9.3c9.3,0.7,27,5,26.4,5.8c-6.5,3.1-18.6,9.4-20.2,9.5
					C130.6,485.5,103,479.8,102.1,479.3L102.1,479.3z"/>
				<path class="st30" d="M102.1,479.3c0,0-0.8,29.8,0.8,31.4c1.6,1.6,28,8.3,29.3,8.2c0.2-12.1,0.1-32.2-0.1-33.5
					C126.3,483.2,102.1,479.3,102.1,479.3L102.1,479.3z"/>
				<path class="st42" d="M152.5,475.8c0.5,0.4,1.4,30,0.9,30.8c-0.5,0.8-20.3,12.4-21.1,12.3c-0.8-0.1-0.3-32.9,0-33.5
					C132.4,484.6,152.5,475.8,152.5,475.8L152.5,475.8L152.5,475.8z"/>
				<path class="st43" d="M132.2,485.3c0.5-1.7,0.6,33,0.1,33.5C131.7,519.5,131.2,488.6,132.2,485.3L132.2,485.3z"/>
				<path class="st43" d="M102.1,479.3c0,0,17.2,1.3,30.1,6C125.7,484.6,102.1,479.3,102.1,479.3z"/>
				<path class="st43" d="M152.5,475.8c-0.7,1-18.6,9.1-20.2,9.5C134.7,483,152.5,475.8,152.5,475.8z"/>
				<path class="st44" d="M123.3,508.9l-14.3-3.4l-0.4-4.7c1.2-0.3,2.4-0.8,3.8-1.5s2.4-1.5,3.4-2.5c0.9-0.9,1.4-1.8,1.4-2.8
					c0-0.5-0.1-1.1-0.4-1.6c-0.3-0.5-0.7-0.8-1.1-0.9c-0.6-0.1-1,0-1.5,0.5c-0.4,0.5-0.7,1.1-0.7,1.8l-4.6-2c0.1-1.3,0.4-2.5,1-3.4
					c0.6-0.9,1.4-1.6,2.5-2s2.2-0.4,3.5-0.1c1.3,0.3,2.4,0.9,3.4,1.7c1,0.8,1.7,1.9,2.2,3.1s0.8,2.5,0.8,3.9c0,2.8-1.4,5.3-4.2,7.7
					l4.9,1.1L123.3,508.9L123.3,508.9z"/>
				<path class="st45" d="M102.1,444.7c-0.6-0.4,14.7-7.4,23.9-9.3c9.3,0.7,27,5,26.4,5.8c-6.5,3.1-18.6,9.4-20.2,9.5
					C130.6,450.9,103,445.3,102.1,444.7L102.1,444.7z"/>
				<path class="st46" d="M102.1,444.7c0,0-0.5,31.5,1.1,33c1.6,1.6,27.7,6.6,29.1,6.5c0.2-12.1,0.1-32.1-0.1-33.5
					C126.3,448.6,102.1,444.7,102.1,444.7L102.1,444.7z"/>
				<path class="st11" d="M152.5,441.3c0.5,0.4,1.4,32.8,0.9,33.5c-0.5,0.8-20.3,9.6-21.1,9.5c-0.8-0.1-0.3-32.9,0-33.5
					C132.4,450.1,152.5,441.3,152.5,441.3L152.5,441.3L152.5,441.3z"/>
				<path class="st47" d="M132.2,450.8c0.5-1.7,0.6,32.9,0.1,33.5S131.2,454.1,132.2,450.8z"/>
				<path class="st48" d="M102.1,444.7c0,0,17.2,1.3,30.1,6C125.7,450.1,102.1,444.7,102.1,444.7z"/>
				<path class="st48" d="M152.5,441.3c-0.7,1-18.6,9.1-20.2,9.5C134.7,448.4,152.5,441.3,152.5,441.3z"/>
				<path class="st49" d="M122.7,462.6c0.6,0.8,1.1,1.7,1.4,2.8c0.4,1,0.5,2,0.5,3c0,1.3-0.3,2.5-1,3.4c-0.7,0.9-1.6,1.5-2.8,1.9
					s-2.6,0.3-4,0c-1.4-0.3-2.7-0.9-3.7-1.8c-1-0.8-1.9-2-2.6-3.4l2.6-3.4c0.4,0.9,1,1.6,1.6,2.2c0.6,0.6,1.2,0.9,1.9,1.1
					c0.7,0.2,1.3,0.1,1.8-0.3c0.5-0.4,0.7-0.9,0.7-1.6c0-0.7-0.2-1.3-0.6-1.9c-0.4-0.6-0.9-0.9-1.5-1.1c-0.4-0.1-0.8-0.1-1.2-0.1
					c-0.4,0-0.8,0.2-1.2,0.4l-1.3-3.8l3.7-2.4l-5.9-1.3v-4.7l12.9,3l0.1,4.5l-3.4,1.7C121.4,461.1,122.1,461.7,122.7,462.6
					L122.7,462.6L122.7,462.6z"/>
				<path class="st34" d="M105.9,410.6c-0.6-0.4,14.8-7.4,24.1-9.4c9.4,0.8,27.3,5.1,26.6,5.9c-6.5,3.2-18.8,9.5-20.4,9.6
					S106.7,411.2,105.9,410.6L105.9,410.6z"/>
				<path class="st32" d="M105.9,410.6c0,0-0.8,30,0.8,31.6c1.6,1.6,28.2,8.4,29.6,8.3c0.2-12.2,0.1-32.5-0.1-33.9
					C130.2,414.5,105.9,410.6,105.9,410.6L105.9,410.6z"/>
				<path class="st12" d="M156.6,407.1c0.6,0.4,1.4,30.2,0.9,31c-0.5,0.8-20.5,12.5-21.3,12.4c-0.8-0.1-0.3-33.1,0-33.9
					S156.6,407.1,156.6,407.1L156.6,407.1L156.6,407.1z"/>
				<path class="st50" d="M136.2,416.7c0.5-1.8,0.6,33.2,0,33.9C135.7,451.2,135.2,420,136.2,416.7z"/>
				<path class="st35" d="M105.9,410.6c0,0,17.4,1.3,30.3,6.1C129.6,416,105.9,410.6,105.9,410.6z"/>
				<path class="st35" d="M156.6,407.1c-0.7,1-18.8,9.2-20.4,9.6C138.7,414.3,156.6,407.1,156.6,407.1z"/>
				<path class="st30" d="M121,420l3.6,1.2V441l-5.6-1.2v-14.6l-3.6-0.8v-5.5L121,420L121,420L121,420z"/>
				<path class="st51" d="M256,444v36.5c0,5.2,10.1,9.5,22.5,9.5s22.5-4.2,22.5-9.5V444L256,444L256,444z"/>
				<path class="st52" d="M301,444c0,5.5-10.1,10-22.5,10s-22.5-4.5-22.5-10s10.1-10,22.5-10S301,438.5,301,444z"/>
				<path class="st53" d="M278.5,453c-10.6,0-19.6-3.4-22.5-8c1.9,5.1,11.3,9,22.5,9s20.6-3.9,22.5-9
					C298.1,449.6,289.1,453,278.5,453z"/>
				<path class="st19" d="M297,440c0,5-8.5,9-19,9s-19-4-19-9c3.2-6.5,11.1-19.8,18.1-32.6c0.3-0.6,1.6-0.6,1.9,0.1
					C284.6,417.2,293.9,433.9,297,440L297,440z"/>
				<path class="st14" d="M257,504.5c0,5.2,4,9.5,9,9.5s9-4.3,9-9.5s-4-9.5-9-9.5S257,499.2,257,504.5z"/>
				<path class="st54" d="M263.4,498.1c2.3-0.4,3.8,1.1,1.4,1.8c-2.3,0.8-4.6,2.9-4.7,5.2c-0.1,1.9-2.9,0.5-2-2.3
					S261.2,498.5,263.4,498.1L263.4,498.1L263.4,498.1z"/>
				<path class="st30" d="M283.3,465.4c-0.9-0.6,21.6-10.6,35.2-13.5c13.8,1.1,39.8,7.3,38.9,8.4c-9.5,4.5-27.4,13.6-29.8,13.8
					C325.2,474.4,284.5,466.3,283.3,465.4L283.3,465.4L283.3,465.4z"/>
				<path class="st55" d="M283.3,465.4c0,0-1.2,43.2,1.1,45.5c2.3,2.3,41.2,12.1,43.2,12c0.3-17.6,0.1-46.6-0.1-48.7
					C318.9,471.1,283.3,465.4,283.3,465.4L283.3,465.4z"/>
				<path class="st56" d="M357.4,460.4c0.8,0.6,2.1,43.5,1.4,44.6c-0.7,1.2-29.9,18-31.1,17.9c-1.2-0.2-0.4-47.6-0.1-48.7
					C328,473.2,357.4,460.4,357.4,460.4z"/>
				<path class="st57" d="M327.6,474.2c0.8-2.5,1,47.8,0.1,48.7C326.8,523.7,326.1,479,327.6,474.2z"/>
				<path class="st58" d="M283.3,465.4c0,0,25.4,1.9,44.3,8.8C318,473.2,283.3,465.4,283.3,465.4z"/>
				<path class="st58" d="M357.4,460.4c-1.1,1.4-27.4,13.2-29.8,13.8C331.3,470.8,357.4,460.4,357.4,460.4z"/>
				<g>
					<defs>
						<rect id="SVGID_00000033335365869535661000000007090675334261514372_" x="87" y="37" width="257" height="307"/>
					</defs>
					<clipPath id="SVGID_00000101065882804473036620000016149270378504999852_">
						<use xlink:href="#SVGID_00000033335365869535661000000007090675334261514372_"  style="overflow:visible;"/>
					</clipPath>
					<g style="clip-path:url(#SVGID_00000101065882804473036620000016149270378504999852_);">
						<path class="st60" d="M290.9,285.9c40.1-40.2,40.1-105.4,0-145.6s-105.2-40.2-145.4,0s-40.1,105.4,0,145.6
							C185.6,326.1,250.7,326.1,290.9,285.9z"/>
						<path class="st61" d="M207.3,251.1c0,0-25.8,8.6-65.1-26.7c-3.3,1.8-7.2-0.1-11.7-3.6c-4-1.5-6.5-3.1-5.6-4.6
							c0.9-1.5,5.2,0.5,6.4,0.9c-0.1-0.1-5.2-3.1-6.2-3.9c-2.4-1.7-1.1-4.3,1.2-3.2c2,0.9,6.4,3.3,6.7,3.4c-0.2-0.2-4.9-4-5.8-4.7
							c-2.6-2.1-0.7-5.2,2.3-2.9c2.1,1.6,5.6,4.4,5.9,4.6c0-0.2-2.1-2.9-3.2-4.7c-1.8-2.8,0.3-4.8,2.9-1.9c2,2.2,6.3,4.9,8.3,6.6
							c3.1,2.6,3.5,5.3,3.5,5.3s22.5,28.7,59.9,24.4C215.1,243.6,207.3,251.1,207.3,251.1L207.3,251.1L207.3,251.1z"/>
						<path class="st62" d="M140.8,217.4C140.8,217.4,140.8,217.4,140.8,217.4c0.2-0.1,0.2-0.3,0.1-0.5c-1.8-2.2-0.2-4.7,1.1-5.7
							c0.1-0.1,0.1-0.3,0-0.4c-0.1-0.1-0.3-0.1-0.4,0c-1.4,1.2-3.3,4-1.1,6.6C140.5,217.5,140.7,217.5,140.8,217.4L140.8,217.4
							L140.8,217.4z"/>
						<path class="st61" d="M243.3,244.1c0,0-5.7-1.4-10.1-3.5c0.4-4.8,2.2-10.7,2.2-10.7l-10.4-2.8c0,0-2,8-2.4,11.1
							c-6.5,0.5-14.2,0.4-14.2,0.4s-7.6,18.8,14.2,21.7C228.3,261.1,242.7,253.1,243.3,244.1L243.3,244.1z"/>
						<path class="st63" d="M223.9,233.1l9.1,2c0,0-1,4.5-1.9,7c-1.3-3.6-6.9-3.8-8.3-1.4C223,237.4,223.9,233.1,223.9,233.1
							L223.9,233.1L223.9,233.1z"/>
						<path class="st64" d="M264.2,255.7c-10-11.9-20.2-11-23.4-12.8c-4.2,23.8-35.1,14-30-4.4c-3.4,0.2-17.7,0.7-24.8,0.3
							c-0.4,1.2-5,5.2-5.4,16.5c5,4.3,12.8,3.6,12.6,4.2c-5,22.7-12.4,41.6-15.5,47.9c0.3,0.3,0.7,0.5,1.1,0.8
							c12.1,5,25.4,7.8,39.4,7.8c13.9,0,28.5-3.1,41.1-8.6c-7.4-10.7-8.6-24.5-9.5-39.4c-0.1-0.3,5.4,2.8,5.3,3.8
							C258.5,264,265.5,259.5,264.2,255.7L264.2,255.7L264.2,255.7z"/>
						<path class="st65" d="M255.1,271.8c0,0,0,0.1-0.1,0.2C255,272,255.1,271.9,255.1,271.8z"/>
						<path class="st66" d="M215.4,276.1c2.3-0.5,2-11.5,5.7-10.4c2.1,0.6,0.9,9.6,3.4,10.3c3,0.8,9.7-2.1,9.9,0.1
							c0.3,3.1-10.6,4.6-8.7,7.4c2.8,4.1,5.8,9.2,4.4,10.2c-2.6,1.8-7.7-6.9-10.9-7.4c-3.6-0.6-12,9.6-12.7,5.9
							c-0.5-2.7,7.1-8.2,5.8-10.2c-2.6-4-8.9-8.1-5.9-8.8C209.1,272.5,213.2,276.6,215.4,276.1L215.4,276.1L215.4,276.1z"/>
						<path class="st3" d="M188.2,238.9c-1.9,2.1-3.8,9.1-4.2,18.5c-3.2-0.6-5.8-2.2-5.8-2.2s0.9-11.7,6.8-16.7
							C186,238.8,188.2,238.9,188.2,238.9L188.2,238.9L188.2,238.9z"/>
						<path class="st3" d="M264,255.2c0.2,1.2-6.3,12.3-12.4,15.6c1.7,1.9,4.5,3,4.5,3s9.3-10,10.3-15.9
							C266,257,264,255.2,264,255.2L264,255.2z"/>
						<path class="st3" d="M212.8,238.2c-1.1,10.4,2.3,16.2,10.8,17.6c8.6,1.4,15-6.3,16.4-13c0.6,0,2.9,1,2.9,1
							s-1.5,17.5-19.8,15.4c-18.3-2.1-13.6-20.6-13.6-20.6L212.8,238.2L212.8,238.2z"/>
						<path class="st61" d="M290.1,197.6c-9.9,33.1-42.3,47.3-74.1,37.8c-31.8-9.6-51-39.3-41.1-72.4c9.9-33.1,43.4-50.9,75.1-41.4
							S300.1,164.5,290.1,197.6L290.1,197.6L290.1,197.6z"/>
						<path class="st61" d="M287.8,197.2c0,0,2.8-6.5,11.2-5.2c8.9,1.3,9.3,13.6,2.8,19.1c-6.5,5.5-16.1,3-17.6-3.1L287.8,197.2
							L287.8,197.2L287.8,197.2z"/>
						<path class="st67" d="M299.9,195.3c-5.4-2.5-12.5,6.3-6.2,13.4c-1.4-7.9,2.2-9.5,5.3-5.1c0.5-2.3-0.5-4.1-3.9-4.7
							C296.1,196,299.9,195.3,299.9,195.3L299.9,195.3L299.9,195.3z"/>
						<path class="st61" d="M176.9,163.9c0,0,1.2-6.9-6.5-10.6c-8.2-3.8-15.2,6.2-12.9,14.4c2.4,8.1,11.8,11.4,16.4,7.1L176.9,163.9
							L176.9,163.9z"/>
						<path class="st67" d="M167.7,155.7c5.8,0.9,7,12.1-2.2,14.6c5.5-5.8,3.4-9.1-1.7-7.2c0.8-2.2,2.6-3.2,5.9-1.8
							C170.5,158.3,167.8,155.7,167.7,155.7L167.7,155.7z"/>
						<path class="st68" d="M236.6,178.6c-1.6,3.3-11.8,4.6-9.7,9.8c1.3,3.2,6.2,4,7.8-1.3C235.5,184.1,236.6,178.6,236.6,178.6
							L236.6,178.6z"/>
						<path class="st68" d="M248.2,205c-1,3.4,3.3,7.7,9.6,9.6c6.3,1.9,12.3,0.7,13.3-2.7c1-3.4-3.3-7.7-9.6-9.6
							C255.2,200.4,249.2,201.6,248.2,205L248.2,205z"/>
						<path class="st68" d="M183,185.4c-1,3.4,3.3,7.7,9.6,9.6c6.3,1.9,12.3,0.7,13.3-2.7c1-3.4-3.3-7.7-9.6-9.6
							C190,180.8,184,182,183,185.4L183,185.4L183,185.4z"/>
						<path class="st69" d="M210.4,194.9c5.4-1.6,5.6,3.6,15.7,6.5c10.2,3,13.1-1.5,16.9,3.8c3.1,4.3-5.6,21-22.4,15.8
							C203.8,215.8,205.3,196.5,210.4,194.9L210.4,194.9L210.4,194.9z"/>
						<path class="st68" d="M233.3,220.8c-3.4,1.4-7.7,1.8-12.6,0.2c-4.6-1.4-7.9-4-10-6.9c3.1-0.1,7.1,0.4,12.1,1.8
							C227.4,217.4,230.8,219.1,233.3,220.8L233.3,220.8L233.3,220.8z"/>
						<path class="st3" d="M212.3,194.6c3.7,0,5.1,4.3,13.8,6.9c8.8,2.6,12.2-0.4,15.4,2.2c-1.5,4.8-10,6.1-17,3.9
							C217.4,205.3,210.8,199.3,212.3,194.6L212.3,194.6z"/>
						<path class="st3" d="M254.7,181.5c-3.8,4.9-3.1,11.8,1.6,15.4c4.6,3.6,11.5,2.5,15.3-2.4c3.8-4.9,3.1-11.8-1.6-15.4
							C265.3,175.5,258.5,176.6,254.7,181.5L254.7,181.5z"/>
						<path class="st70" d="M257.9,184c-2.3,3-1.9,7.3,1,9.5c2.9,2.2,7.1,1.5,9.4-1.5c2.3-3,1.9-7.3-1-9.5
							C264.5,180.2,260.2,180.9,257.9,184L257.9,184z"/>
						<path class="st3" d="M264.6,186.5c-0.3,1.1,0.3,2.2,1.3,2.5c1,0.3,2.1-0.4,2.4-1.4c0.3-1.1-0.3-2.2-1.3-2.5
							C266,184.7,264.9,185.4,264.6,186.5L264.6,186.5z"/>
						<path class="st3" d="M257.9,189.4c-0.2,0.7,0.2,1.4,0.8,1.5c0.6,0.2,1.3-0.2,1.5-0.9c0.2-0.7-0.2-1.4-0.8-1.5
							C258.7,188.3,258.1,188.8,257.9,189.4L257.9,189.4L257.9,189.4z"/>
						<path class="st71" d="M275.4,186.7c0,0-5.3-11.9-18.5-8.5C271.4,169.6,275.4,186.7,275.4,186.7z"/>
						<path class="st3" d="M213.5,169.1c0.4,6.2-3.9,11.6-9.8,12c-5.9,0.4-11-4.3-11.4-10.5c-0.5-6.2,3.9-11.6,9.8-12
							C207.9,158.2,213,162.9,213.5,169.1L213.5,169.1L213.5,169.1z"/>
						<path class="st70" d="M209.4,169.4c0.3,3.8-2.4,7.1-6,7.4s-6.8-2.6-7-6.4c-0.3-3.8,2.4-7.1,6-7.4
							C206,162.7,209.1,165.6,209.4,169.4z"/>
						<path class="st3" d="M202.4,167.8c-0.3,1.1-1.4,1.7-2.4,1.3s-1.5-1.4-1.2-2.5c0.4-1.1,1.4-1.7,2.4-1.4
							C202.2,165.6,202.8,166.7,202.4,167.8L202.4,167.8L202.4,167.8z"/>
						<path class="st3" d="M206.4,174c-0.2,0.7-0.9,1-1.5,0.8c-0.6-0.2-1-0.9-0.7-1.6s0.9-1,1.5-0.8S206.6,173.3,206.4,174
							L206.4,174z"/>
						<path class="st71" d="M193.3,162c0,0,11-7,20.1,3.1C206.1,150,193.3,162,193.3,162z"/>
						<path class="st72" d="M208.9,146.3c6.4-0.6,6.4,6.3,2.4,5.6c-4.3-0.8-8.2,0.1-8.7-0.4C201.6,150.4,205.3,146.7,208.9,146.3
							L208.9,146.3L208.9,146.3z"/>
						<path class="st72" d="M271.7,166.6c-5.5-3.3-8.5,2.9-4.6,4c4.2,1.2,7.4,3.7,8,3.4C276.5,173.4,274.8,168.4,271.7,166.6
							L271.7,166.6z"/>
						<path class="st72" d="M296,132.4c7.8,2.8,13.6-2.5,10.7-9.3c13.2,11.1,24,2,15.5-6.4c13.2,4.3,9.5-7,5.5-10.6
							c21.2,6.9,23.4-29-3.7-31.5c21-4.3,5.9-11.6-3.9-10.5c21-15.1-15.2-43.4-31.2-14.4c-3.1-11.5-13-6.1-13.6,2.5
							c-2.5-17.2-28.6-8.3-19.5,8.3c-12.1-7.8-9.6,5.3-5.6,8.6c-11.5-7-15.3,4.8-8.2,12.4c-17-6.1-7.8,16.5,1,21
							C251.9,106.8,287.4,129.3,296,132.4L296,132.4L296,132.4z"/>
						<path class="st64" d="M277.5,103.4c0,0,28.3-21.7,45.6-17.5c3.2,13.9-3.4,28.1-3.4,28.1L277.5,103.4L277.5,103.4L277.5,103.4z
							"/>
						<path class="st64" d="M278.1,104.4c0,0,9.6-30.8,1.1-46.4c-14.2,0.5-26.2,10.7-26.2,10.7L278.1,104.4z"/>
						<path class="st73" d="M250,95.8c8-12.7,19.4-13.6,17.9,2.2c9.7-6.8,12.8-1.3,10,5.2c10.2-8.4,29.9-4.1,23.5,11.4
							c6.5-2.2,17.2,5.7,10.6,11.4c11.5-5.4,25.1,7.9,16.6,21.6c13,2.5,14.8,19.6-3,20.9c11.1,6.9,2.5,26.1-8.3,17.5
							c3.5,13.4-7.4,26.5-13.6,11.1c-4.2,8.1-8.9-0.2-9.9-4.5c-7.5,10.5-15.4-10.5-4-18.6c-10.7,3.4-12.3-11.6-9.3-15.6
							c-9.8,10-13.2-1.6-6.5-5.4c-7.6,2.6-17.4,1.8-16.4-8.3c-6.6,0.3-13.5-9.2-6.2-12.4c-5.5-1-19.3-10.9-19.2,2
							c0.1,12.9-22,1.1-24.6-6.6c-0.3,13.7-12.7,18.5-17.9,13.1c5.4,15.8-5.4,20-9.5,12.3c-0.5,12.5-17.8,7.5-14.2-0.5
							c-8.4,3-10.6-8.6-1.9-12.8c-11.5,0-6.9-20.7,5.8-19.5c-9.2-5.8-2.6-11.7,1.8-10.7c-4.5-8.9,4.5-18.4,13.2-12.2
							C178.4,82.4,201,78,205.8,82.5c-0.5-9.8,8.6-15.7,11.8,1.4c7.4-7.3,11.7-0.3,11.2,5.1C237.3,76.9,251.2,79.4,250,95.8
							L250,95.8z"/>
						<path class="st74" d="M238.2,255c0.6,0.6,40.3,51.3,39.7,51.8l-38.2,36.8c-0.6,0.5-1.5,0.5-2-0.1l-46.6-50.3
							c-0.6-0.6-0.5-1.5,0-2.1l36.7-35.3c1.4-1.4,2.2-1.4,3.6-1.4L238.2,255L238.2,255L238.2,255z"/>
						<path class="st75" d="M236.9,257.1c0.6,0.6,41.4,50.9,40.8,51.5l-29.1,32.5c-0.6,0.5-8,2.2-8.5,1.6l-46-49.7
							c-0.5-0.6-0.5-1.5,0-2.1l34.7-33.4c0.9-0.9,1.5-1,2.9-0.7L236.9,257.1L236.9,257.1z"/>
						<path class="st74" d="M286,305.8c0.5,0.6,0.5,1.5,0,2.1l-35.5,34.2c-0.6,0.5-1.5,0.5-2-0.1l-46.6-50.3c-0.6-0.6-0.5-1.5,0-2.1
							l35.6-34.2c0.6-0.5,1.5-0.5,2,0.1L286,305.8L286,305.8z"/>
						<path class="st61" d="M264.7,262.8c0,0,10.6,27.2-28.7,54.9c0.2,3.5-2.6,7-7.3,9.4c-2.7,2.8-5.1,4.2-5.9,2.9
							c-0.9-1.3,2.4-4.1,3.1-5c-0.2,0.1-3.4,2.2-4.4,2.9c-2.4,1.4-3-1.4-2-2.3c1.5-1.4,3.8-3.2,4-3.4c-0.2,0.1-4,2-4.9,2.5
							c-2.7,1.4-3.5-2.2-2.2-2.9c2.1-1.1,5.2-2.6,5.5-2.9c-0.2,0-3.2,0.6-5.1,0.9c-3,0.4-3.8-2.1-0.5-3.2c2.6-0.9,8.8-3.7,8.8-3.7
							s-5.6-2.4-4.2-4.5c1.4-2.1,9.8,2.9,9.8,2.9s23.2-17.5,25.7-38.2C258,271.1,261.6,268.5,264.7,262.8L264.7,262.8L264.7,262.8z"
							/>
						<path class="st76" d="M136.9,231.2c-5.2,3-11.6,6.2-12.8,6.3c-5,0.6-2.3-7.2-2.9-12.2l-5.5-49.1c-1.3,0.9-2.4,1.6-3.2,2.1
							c-0.1,0.1-0.3,0.2-0.4,0.2c-4.3,2.6-10,1.3-12.6-3.1c-2.6-4.3-1.3-10,3-12.6c0.2-0.1,0.4-0.2,0.6-0.4c2.7-1.6-1.2-1.4,0.6-10
							c0.9-4.4,14.4-10.9,18.9-10.7c4.5,0.2,8.2,3.7,8.7,8.2l10.5,72.2C142.1,225.9,140,229.4,136.9,231.2L136.9,231.2L136.9,231.2z
							"/>
						<path class="st77" d="M123.5,238.3c-1,0.5-2.1,0.9-3.3,1c-5,0.6-9.6-3.1-10.1-8.1l-5.5-49.1c-1.3,0.9-2.4,1.6-3.2,2.1
							c-0.2,0.1-0.3,0.2-0.4,0.2c-4.3,2.6-10,1.3-12.6-3.1c-2.7-4.3-1.3-10,3-12.6c0.2-0.1,0.4-0.2,0.6-0.4c2.7-1.6,8.2-4.9,10-13.4
							c0.9-4.4,4.9-7.5,9.4-7.3c4.5,0.2,8.2,3.7,8.7,8.2l9.6,72.6C130.2,232.2,126.8,236.6,123.5,238.3L123.5,238.3z"/>
						<path class="st0" d="M124.6,189.3l-18.3,8l2,18.1l19.6-0.5L124.6,189.3L124.6,189.3z"/>
						<path class="st0" d="M88.3,181.3c2.6,4.3,8.3,5.7,12.6,3.1c0.1-0.1,0.2-0.1,0.4-0.2c0.8-0.5,1.9-1.1,3.2-2.1l0.1,0.8
							l17.5-11.9l-2-15.2c-0.1-1.4-0.6-2.6-1.3-3.7l-31.1,28.3C88,180.6,88.2,181,88.3,181.3L88.3,181.3L88.3,181.3z"/>
						<path class="st78" d="M102.8,156c1.7-7.4,10.9-9.9,16-4c-1.5-2.6-4.3-4.3-7.4-4.4c-4.5-0.2-8.5,2.9-9.4,7.3
							c-1.8,8.6-7.3,11.8-10,13.4c-0.2,0.1-0.4,0.3-0.6,0.4c-3,1.9-4.6,5.2-4.4,8.5C87.9,167.4,99.5,170.6,102.8,156L102.8,156
							L102.8,156z"/>
						<path class="st78" d="M111.1,232.1c0,0-4.8-45.4-6.5-50l5.5,49.1c0.3,2.8,1.9,5.2,4.1,6.6
							C113.5,236.7,111.2,233.5,111.1,232.1L111.1,232.1z"/>
						<path class="st78" d="M120.2,156.9l9.6,71.9C128.5,213.2,128.4,197.7,120.2,156.9z"/>
						<path class="st61" d="M143.7,212.1c-1.5-2-7.3-5.3-9.2-2.5c-1.9,2.9,9.7,7.6,9.7,7.6L143.7,212.1L143.7,212.1L143.7,212.1z"/>
					</g>
				</g>
			</g>
		</g>
	</g>
	<g id="i">
		<rect y="837" class="st77" width="430" height="95"/>
		<rect x="1.9" y="852.5" class="st79" width="426.1" height="78"/>
		<path class="st2" d="M429.5,931.6H0.6V0.5h428.9V931.6z M7.4,924.6h415.2V7.4H7.4V924.6z"/>
	</g>
</g>
</svg>
