<?xml version="1.0" encoding="utf-8"?>
<!-- Generator: Adobe Illustrator 28.2.0, SVG Export Plug-In . SVG Version: 6.00 Build 0)  -->
<svg version="1.1" xmlns="http://www.w3.org/2000/svg" xmlns:xlink="http://www.w3.org/1999/xlink" x="0px" y="0px"
	 viewBox="0 0 430 932" style="enable-background:new 0 0 430 932;" xml:space="preserve">
<style type="text/css">
	.st0{display:none;}
	.st1{display:inline;}
	.st2{fill:#3ABFF0;}
	.st3{clip-path:url(#SVGID_00000042006421711982398430000009909749855267642278_);}
	.st4{fill:#009FE3;stroke:#ACDEF9;}
	.st5{fill:#FFFFFF;}
	.st6{clip-path:url(#SVGID_00000166648045382028532520000016212426508900906679_);}
	.st7{display:none;fill:#FFFFFF;}
	.st8{fill:#8EAA26;fill-opacity:0.2;stroke:#14953A;stroke-width:4;}
	.st9{fill:#FFD800;fill-opacity:0.2;stroke:#F7BC00;stroke-width:4;}
	.st10{fill:#69C2E4;fill-opacity:0.2;stroke:#008BC0;stroke-width:4;}
	.st11{fill:#EB5B21;fill-opacity:0.2;stroke:#C01E12;stroke-width:4;}
	.st12{fill:#868686;}
	.st13{fill:#14953A;}
	.st14{fill:#D94F89;}
	.st15{fill:#C01E12;}
	.st16{fill:#008BC0;}
	.st17{clip-path:url(#SVGID_00000157274187827769701190000007791138461722023605_);}
	.st18{fill:#F296A7;}
	.st19{fill:#EB5B21;}
	.st20{fill:#DD3410;}
	.st21{fill:#E53012;}
	.st22{fill:#F49A6F;}
	.st23{fill:#BEC4C4;}
	.st24{fill:#FFDE98;}
	.st25{fill:#3F3D41;}
	.st26{fill:#B9BFCF;}
	.st27{fill:#F9B655;}
	.st28{fill:#E28537;}
	.st29{clip-path:url(#SVGID_00000121973148118632605200000013337002402211838645_);}
	.st30{fill:#EB5E2D;}
	.st31{fill:#F29C66;}
	.st32{fill:#FFD800;}
	.st33{fill:#C5557D;}
	.st34{fill:#E997B5;}
	.st35{fill:#D4658D;}
	.st36{fill:#F7BFD9;}
	.st37{fill:#F9CCD9;}
	.st38{fill:#FCEBF1;}
	.st39{fill:#47BCCB;}
	.st40{fill:#01A5CC;}
	.st41{fill:#006B92;}
	.st42{fill:#A8DBEB;}
	.st43{fill:#C9E8F2;}
	.st44{fill:#F7BC00;}
	.st45{fill:#FDF1A6;}
	.st46{fill:#00A5CC;}
	.st47{fill:#9AC31C;}
	.st48{fill:#68B02E;}
	.st49{fill:#B4CC04;}
	.st50{fill:#D0DE86;}
	.st51{fill:#E74967;}
	.st52{fill:#F7BED1;}
	.st53{fill:#8EAA26;}
	.st54{fill:#B0C92E;}
	.st55{fill:#D6DD5E;}
	.st56{fill:#69C2E4;}
	.st57{fill:#F9B600;}
	.st58{fill:#EB9000;}
	.st59{fill:#FCC71E;}
	.st60{fill:#FFE241;}
	.st61{clip-path:url(#SVGID_00000019650196353099886200000013598081279195359643_);}
	.st62{fill:#EDEBEC;}
	.st63{fill:#CD7E39;}
	.st64{fill:#D2754E;}
	.st65{fill:#BB642B;}
	.st66{fill:#EC619F;}
	.st67{fill:#FFCB00;}
	.st68{fill:#00853E;}
	.st69{fill:#8E5322;}
	.st70{fill:#C7473D;}
	.st71{fill:#5C2926;}
	.st72{fill:#1D1D1B;}
	.st73{fill:#7C462F;}
	.st74{fill:#48251C;}
	.st75{fill:#64362C;}
	.st76{fill:#E42313;}
	.st77{fill:#F7F1EB;}
	.st78{fill:#0076C0;}
	.st79{fill:#009FE3;}
	.st80{fill:#ACDEF9;}
	.st81{fill:#3ABFF0;stroke:#FFFFFF;stroke-width:3;}
	.st82{clip-path:url(#SVGID_00000156580194268322040240000015624862193179333529_);}
	.st83{fill:#F3FAFF;}
	.st84{fill:#FEFEFE;}
	.st85{fill:none;stroke:#BBD3E5;stroke-width:2;}
	.st86{fill-rule:evenodd;clip-rule:evenodd;fill:#BBD3E5;}
	.st87{fill:#FE536B;}
	.st88{fill:#8DDF48;}
	.st89{fill:#FDB651;}
	.st90{clip-path:url(#SVGID_00000113322649015655004570000010110763438790634410_);}
	.st91{fill-rule:evenodd;clip-rule:evenodd;fill:#F3FAFF;}
	.st92{fill:url(#SVGID_00000120535132305067149060000002681212452306008206_);}
	.st93{fill-rule:evenodd;clip-rule:evenodd;fill:#48CEE0;}
	.st94{fill:#BBD3E5;}
	.st95{fill:#A7BBD4;fill-opacity:0.5;}
	.st96{fill:#FF7C8E;}
	.st97{fill:#525355;}
	.st98{fill:url(#SVGID_00000083072733288193621830000002848275570771432369_);}
	.st99{fill:url(#SVGID_00000067226792451637026710000012084446398862161072_);}
	.st100{fill:url(#SVGID_00000119838364661705675720000001853962125649535152_);}
	.st101{fill:url(#SVGID_00000095303180197390558820000008280151474803143063_);}
	.st102{clip-path:url(#SVGID_00000070827480900750371710000007384984588997266579_);}
	.st103{clip-path:url(#SVGID_00000013898170127047414380000017666528468904987821_);}
	.st104{fill:none;stroke:#A7BBD4;stroke-width:2;stroke-linecap:round;stroke-linejoin:round;}
	.st105{fill:url(#SVGID_00000152985775558824786520000010443046279246977974_);}
	.st106{fill:none;stroke:#FFFFFF;stroke-width:2;stroke-linecap:round;stroke-linejoin:round;}
	.st107{fill:url(#SVGID_00000084495158742811201460000017767805283863896728_);}
	.st108{fill:none;stroke:#A7BBD4;stroke-linecap:round;stroke-opacity:0.5;}
	.st109{fill:#FFFFFF;filter:url(#Adobe_OpacityMaskFilter);}
	.st110{mask:url(#mask0_107_1103_00000059267905945465614140000001614958546738451084_);}
	.st111{fill:#FFFFFF;filter:url(#Adobe_OpacityMaskFilter_00000168808536996817602950000003931767381720171406_);}
	.st112{mask:url(#mask1_107_1103_00000178915789549937930730000005734962901698578064_);}
	.st113{fill:#333333;}
	.st114{fill:#FFE200;}
	.st115{fill:#FFFFFF;filter:url(#Adobe_OpacityMaskFilter_00000147210636521367792480000012000930275944881038_);}
	.st116{mask:url(#mask2_107_1103_00000101094624338670179880000009456613827554684313_);}
	.st117{fill:#8EE048;}
</style>
<g id="Layer_1">
	<g id="Layer_1_00000082364445324606674460000014066969570348390071_" class="st0">
		<g class="st1">
			<g id="f">
				<g>
					<rect x="0.2" class="st2" width="430" height="843.4"/>
					<g>
						<g>
							<g>
								<defs>
									<rect id="SVGID_1_" x="0.2" width="430" height="852.5"/>
								</defs>
								<clipPath id="SVGID_00000121272657678577227280000006410090097574861245_">
									<use xlink:href="#SVGID_1_"  style="overflow:visible;"/>
								</clipPath>
								<g style="clip-path:url(#SVGID_00000121272657678577227280000006410090097574861245_);">
									<path class="st4" d="M-23.8,51L89.8-8l31-5L-19.8,86L-23.8,51z"/>
									<path class="st4" d="M-23.2,133.5l206.5-152l32.5-5.5l-239,198.5C-23.2,174.5-23.2,133.5-23.2,133.5z"/>
									<path class="st4" d="M-15.8,214.5L253.8-10l50-6L-15.8,255.5V214.5z"/>
									<path class="st4" d="M-13.8,309.5L354.8-18l62-7.5l-430.5,376L-13.8,309.5L-13.8,309.5z"/>
									<path class="st4" d="M-13.8,410l456-392.5l5.5,39.5L-13.8,451V410z"/>
									<path class="st4" d="M-7.8,505.5l456-392.5l5.5,39.5l-461.5,394L-7.8,505.5L-7.8,505.5z"/>
									<path class="st4" d="M-7.8,615.5l456-392.5v47.5l-456,386L-7.8,615.5L-7.8,615.5z"/>
									<path class="st4" d="M-4.8,734.5l451-401V389l-451,386.5L-4.8,734.5L-4.8,734.5z"/>
									<path class="st4" d="M3.2,840.5l448-382l-8,52.5l-386,329.5H3.2z"/>
									<path class="st4" d="M133.8,842l314-261.5V626l-266,216H133.8L133.8,842z"/>
									<path class="st4" d="M245.2,843l201-139l-6,54l-138.5,85H245.2z"/>
								</g>
							</g>
						</g>
					</g>
				</g>
				<path class="st5" d="M409,42.8c0-11.1-9-20-20-20H41c-11,0-20,9-20,20v866.3h388V42.8z"/>
			</g>
			<g id="a">
				<g>
					<g>
						<g>
							<defs>
								<rect id="SVGID_00000060743412894791073980000012321302135271976854_" width="430" height="932"/>
							</defs>
							<clipPath id="SVGID_00000155145856280383171620000005931019218279691697_">
								<use xlink:href="#SVGID_00000060743412894791073980000012321302135271976854_"  style="overflow:visible;"/>
							</clipPath>
							<g style="clip-path:url(#SVGID_00000155145856280383171620000005931019218279691697_);">
								<rect class="st7" width="430" height="932"/>
								<path shape-rendering="crispEdges" class="st8" d="M76,391.5h110c10.8,0,19.5,8.7,19.5,19.5v151c0,10.8-8.7,19.5-19.5,19.5
									H76c-10.8,0-19.5-8.7-19.5-19.5V411C56.5,400.2,65.2,391.5,76,391.5z"/>
								<path shape-rendering="crispEdges" class="st9" d="M76,603.5h110c10.8,0,19.5,8.7,19.5,19.5v150c0,10.8-8.7,19.5-19.5,19.5
									H76c-10.8,0-19.5-8.7-19.5-19.5V623C56.5,612.2,65.2,603.5,76,603.5z"/>
								<path shape-rendering="crispEdges" class="st10" d="M246,391.5h109c10.8,0,19.5,8.7,19.5,19.5v151
									c0,10.8-8.7,19.5-19.5,19.5H246c-10.8,0-19.5-8.7-19.5-19.5V411C226.5,400.2,235.2,391.5,246,391.5z"/>
								<path shape-rendering="crispEdges" class="st11" d="M246,603.5h109c10.8,0,19.5,8.7,19.5,19.5v150
									c0,10.8-8.7,19.5-19.5,19.5H246c-10.8,0-19.5-8.7-19.5-19.5V623C226.5,612.2,235.2,603.5,246,603.5z"/>
								<g>
									<polygon class="st12" points="227,655.5 268,604 320,604 227,698.5 									"/>
								</g>
								<path class="st13" d="M92.6,532H97v14h-4.6l-2.9-5.8v5.8h-4.4v-14h4.7l2.8,5.7V532z M104.6,546c-3.7,0-5.8-2.2-5.8-5.9V532
									h4.4v8.3c0,1.2,0.4,1.8,1.4,1.8c0.9,0,1.4-0.6,1.4-1.8V532h4.4v8.1C110.4,543.8,108.2,546,104.6,546L104.6,546z
									 M112.1,547.2V532h5.1l2.7,4.2l2.7-4.2h5.1v15.2h-4.4v-8.4l-2.5,3.9H119l-2.5-3.9v8.4H112.1z M129.7,547.2v-16.4h6.1
									c3.5,0,5.4,1.8,5.4,4.9c0,1.7-0.7,3.2-1.8,4c0.7,0.6,1.1,1.6,1.1,2.9c0,3-1.7,4.6-4.9,4.6H129.7z M134.1,543.2h1.2
									c0.6,0,0.9-0.3,0.9-1s-0.3-1-0.9-1h-1.2V543.2L134.1,543.2z M134.1,537.3h1.6c0.8,0,1.1-0.4,1.1-1.2s-0.4-1.2-1.1-1.2h-1.6
									V537.3z M142.5,547.2v-16.4h9.7v4.2h-5.3v2.2h4.5v4h-4.5v2.1h5.3v4L142.5,547.2L142.5,547.2z M159.4,532
									c3.6,0,5.5,1.8,5.5,5.1c0,2.2-0.9,3.8-2.5,4.6l3.6,5.5h-4.7l-3.2-4.9v4.9h-4.4V532H159.4L159.4,532z M158.1,538.6h1.2
									c0.8,0,1.2-0.4,1.2-1.2s-0.4-1.2-1.2-1.2h-1.2V538.6z M173,542.3c0-0.8-0.3-1-1.9-1.2c-3.5-0.5-5.1-2.1-5.1-5
									c0-3.2,2.2-5.3,5.6-5.3c3.4,0,5.4,2,5.5,5.4h-4.4c0-1-0.3-1.4-1.1-1.4c-0.7,0-1.2,0.4-1.2,1c0,0.7,0.3,0.9,1.9,1.1
									c3.5,0.5,5.1,2,5.1,4.9c0,3.4-2.1,5.4-5.6,5.4c-3.9,0-5.8-1.8-6-5.5h4.4c0,1.3,0.4,1.7,1.6,1.7
									C172.5,543.4,173,542.9,173,542.3L173,542.3z"/>
								<path class="st14" d="M90.2,741.8h4.4V753h4.8v4h-9.2C90.2,757,90.2,741.8,90.2,741.8z M100.8,758.2v-16.4h9.7v4.2h-5.3v2.2
									h4.5v4h-4.5v2.1h5.3v4L100.8,758.2L100.8,758.2z M115.2,758.2v-11h-3.6V743h11.6v4.2h-3.6v11H115.2z M128,758.2v-11h-3.6
									V743H136v4.2h-3.6v11H128z M137.5,758.2v-16.4h9.7v4.2h-5.3v2.2h4.5v4h-4.5v2.1h5.3v4L137.5,758.2L137.5,758.2z M154.3,743
									c3.6,0,5.5,1.8,5.5,5.1c0,2.2-0.9,3.8-2.5,4.6l3.6,5.5h-4.7l-3.2-4.9v4.9h-4.4V743H154.3L154.3,743z M153,749.6h1.2
									c0.8,0,1.2-0.4,1.2-1.2s-0.4-1.2-1.2-1.2H153V749.6z M167.9,753.3c0-0.8-0.3-1-1.9-1.2c-3.5-0.5-5.1-2.1-5.1-5
									c0-3.2,2.2-5.3,5.6-5.3c3.4,0,5.4,2,5.5,5.4h-4.4c0-1-0.3-1.4-1.1-1.4c-0.7,0-1.2,0.4-1.2,1c0,0.7,0.3,0.9,1.9,1.1
									c3.5,0.5,5.1,2,5.1,4.9c0,3.4-2.1,5.4-5.6,5.4c-3.9,0-5.8-1.8-6-5.5h4.4c0,1.3,0.4,1.7,1.6,1.7
									C167.4,754.4,167.9,753.9,167.9,753.3L167.9,753.3z"/>
								<path class="st15" d="M261,743c4.1,0,6.3,2.2,6.3,6.4v2.4c0,4.2-2.2,6.4-6.3,6.4h-5.7V743H261L261,743z M259.7,754.2h1.3
									c1.2,0,1.9-0.8,1.9-2.3v-2.6c0-1.4-0.7-2.2-1.9-2.2h-1.3V754.2z M274.4,743c3.6,0,5.5,1.8,5.5,5.1c0,2.2-0.9,3.8-2.5,4.6
									l3.6,5.5h-4.7l-3.2-4.9v4.9h-4.4V743H274.4L274.4,743z M273.1,749.6h1.2c0.8,0,1.2-0.4,1.2-1.2s-0.4-1.2-1.2-1.2h-1.2V749.6
									z M281.8,758.2L285,743h6.6l3.1,15.2h-4.5l-0.5-2.6h-3l-0.5,2.6H281.8L281.8,758.2z M287.5,751.7h1.6l-0.8-4.3L287.5,751.7z
									 M308.8,743h4.3l-1.9,15.2h-6.3l-1.1-7l-1.1,7h-6.3l-1.9-15.2h4.3l1.1,10l1.4-9.1h4.9l1.4,9.1L308.8,743L308.8,743z
									 M314.2,758.2V743h4.4v15.2H314.2z M328,743h4.4v14h-4.6l-2.9-5.8v5.8h-4.4v-14h4.7l2.8,5.7V743L328,743z M340.1,758.2
									c-4,0-6.3-2.3-6.3-6.3v-3c0-3.9,2.4-6.3,6.2-6.3c4,0,5.9,2.1,6.1,5.9h-4.4c-0.2-1.3-0.5-1.7-1.7-1.7s-1.7,0.7-1.7,2.1v3.2
									c0,1.6,0.5,2.1,1.9,2.1c1.2,0,1.6-0.4,1.6-1.3v-0.1h-2.3v-3.5h6.7v3C346.1,756.2,344,758.2,340.1,758.2L340.1,758.2z"/>
								<path class="st16" d="M270.8,542.3c0-0.8-0.3-1-1.9-1.2c-3.5-0.5-5.1-2.1-5.1-5c0-3.2,2.2-5.3,5.6-5.3s5.4,2,5.5,5.4h-4.4
									c0-1-0.3-1.4-1.1-1.4c-0.7,0-1.2,0.4-1.2,1c0,0.7,0.3,0.9,1.9,1.1c3.5,0.5,5.1,2,5.1,4.9c0,3.4-2.1,5.4-5.6,5.4
									c-3.9,0-5.8-1.8-6-5.5h4.4c0,1.3,0.4,1.7,1.6,1.7C270.3,543.4,270.8,542.9,270.8,542.3z M283.9,546v-5.2H281v5.2h-4.4v-15.2
									h4.4v6h2.9v-6h4.4V546H283.9z M289.4,547.2l3.1-15.2h6.6l3.1,15.2h-4.5l-0.5-2.6h-3l-0.5,2.6H289.4L289.4,547.2z
									 M295.1,540.7h1.6l-0.8-4.3L295.1,540.7z M309.3,530.8c3.6,0,5.5,2,5.5,5.7s-1.9,5.5-5.5,5.5h-1.4v4h-4.4v-15.2H309.3
									L309.3,530.8z M307.9,538h1.1c1,0,1.4-0.4,1.4-1.5S310,535,309,535h-1.1V538z M316.1,547.2v-16.4h9.7v4.2h-5.3v2.2h4.5v4
									h-4.5v2.1h5.3v4L316.1,547.2L316.1,547.2z M333.9,542.3c0-0.8-0.3-1-1.9-1.2c-3.5-0.5-5.1-2.1-5.1-5c0-3.2,2.2-5.3,5.6-5.3
									s5.4,2,5.5,5.4h-4.4c0-1-0.3-1.4-1.1-1.4c-0.7,0-1.2,0.4-1.2,1c0,0.7,0.3,0.9,1.9,1.1c3.5,0.5,5.1,2,5.1,4.9
									c0,3.4-2.1,5.4-5.6,5.4c-3.9,0-5.8-1.8-6-5.5h4.4c0,1.3,0.4,1.7,1.6,1.7C333.4,543.4,333.9,542.9,333.9,542.3z"/>
								<g>
									<g>
										<g>
											<defs>
												<rect id="SVGID_00000057132085429050634290000010130312582779060142_" x="258" y="629" width="90" height="94"/>
											</defs>
											<clipPath id="SVGID_00000142874697160081673970000016934754035064877735_">
												<use xlink:href="#SVGID_00000057132085429050634290000010130312582779060142_"  style="overflow:visible;"/>
											</clipPath>
											<g style="clip-path:url(#SVGID_00000142874697160081673970000016934754035064877735_);">
												<path class="st18" d="M332,664c0,0,11.9-1.7,15.3-10.6c4-10.8-10.1-24.8-19.1-24.4c-7.8,0.4-16.2,11.3-16.8,11.5
													C324.7,648.6,332,664,332,664L332,664z"/>
												<path class="st19" d="M329.5,668.8c0,0-25.8,16.6-45,42.1c-2.6-5.2-12.7-15.8-23.1-16.9c18.9-29,38.6-46.4,49-52.1
													C327.6,651.3,329.6,668.8,329.5,668.8L329.5,668.8z"/>
												<path class="st20" d="M329.3,669c-2.8,1.9-26.7,17.9-44.7,41.9c-0.8-1.5-2.2-3.6-4.1-5.7c16.5-22.6,32.6-36.4,41.6-41.3
													C324.9,665.4,327.2,667.1,329.3,669L329.3,669L329.3,669z"/>
												<path class="st21" d="M312.8,647.8c0,0-22.4,17.6-44.6,48.1c-2.2-1-4.4-1.7-6.7-1.9c18.9-29,38.6-46.4,49-52.1
													c0.5,0.3,1,0.6,1.5,0.9C312.8,645.8,312.8,647.8,312.8,647.8L312.8,647.8z"/>
												<path class="st22" d="M306.5,653.2c-8.4,6.1-24.5,23.1-34.7,38C288.2,671.6,306.5,653.2,306.5,653.2z"/>
												<path class="st22" d="M317.1,666.9c-8.4,6.1-22.4,17-34.3,35C298.5,682.2,317.1,666.9,317.1,666.9z"/>
												<path class="st23" d="M336.8,662c0.2,2,0.2,5-3.9,8.3c-3.6,2.8-7.5,5.3-9.6,3c-2-9.1-14-22.7-22.1-25.2
													c-2.1-2.2,6.7-11,11.8-11.1C321.4,636.8,335.5,651.8,336.8,662L336.8,662L336.8,662z"/>
												<path class="st24" d="M261.5,694c1.6-1.4,6.2-0.9,13.7,4c6.8,4.5,10.8,11,9.4,12.9c-8.3,4-20.5,9.9-24.9,11.9
													c-1,0.5-1.9,0.2-1.7-1C258.6,715.7,260.6,697.1,261.5,694L261.5,694L261.5,694z"/>
												<path class="st25" d="M264.3,714.9c2.4,1.7,3.5,3,3.8,3.9c-0.4,0.2-0.7,0.3-1,0.5c-3.1,1.5-5.7,2.7-7.3,3.5
													c-1,0.5-1.9,0.2-1.7-1c0.2-1.9,0.5-4.9,0.9-8.3c0,0,0,0,0-0.1C259.7,713.2,261.7,713,264.3,714.9L264.3,714.9z"/>
												<path class="st26" d="M259.1,721.2c-1,0.5,0.1-7.1,1.1-7.3C261.1,713.6,259.3,721.1,259.1,721.2z"/>
												<path class="st27" d="M262.9,711.7c-0.8,0.9,3.8-15.1,4.8-15.4C268.3,696.1,263.6,711,262.9,711.7z"/>
												<path class="st27" d="M268.4,715.7c-0.9,0.9,12.9-7.5,13.3-8.3C281.9,706.8,271,713,268.4,715.7z"/>
												<path class="st28" d="M265.4,713.2c-0.8,0.9,7.7-12,8.6-12.3C274.5,700.8,266.1,712.5,265.4,713.2z"/>
											</g>
										</g>
									</g>
								</g>
								<g>
									<g>
										<g>
											<defs>
												<rect id="SVGID_00000008150054656358549670000011287672695864048060_" x="100" y="611" width="63" height="123"/>
											</defs>
											<clipPath id="SVGID_00000065754086601120834490000009330971226384049794_">
												<use xlink:href="#SVGID_00000008150054656358549670000011287672695864048060_"  style="overflow:visible;"/>
											</clipPath>
											<g style="clip-path:url(#SVGID_00000065754086601120834490000009330971226384049794_);">
												<path class="st30" d="M159.7,691c0.6-0.4-15.7-7-25.4-8.7c-9.8,1.1-28.2,6.2-27.5,7c6.9,3,19.9,9,21.6,9
													C130.1,698.4,158.9,691.6,159.7,691L159.7,691L159.7,691z"/>
												<path class="st21" d="M159.7,691c0,0,1.9,30.6,0.4,32.3c-1.6,1.7-29,9.6-30.5,9.6c-0.6-12.5-1.3-33.1-1.2-34.5
													C134.5,695.9,159.7,691,159.7,691L159.7,691z"/>
												<path class="st15" d="M106.8,689.3c-0.6,0.4-0.4,30.9,0.2,31.7s21.8,12,22.6,11.9c0.9-0.1-0.9-33.8-1.2-34.5
													C128.1,697.6,106.8,689.3,106.8,689.3L106.8,689.3z"/>
												<path class="st30" d="M128.4,698.4c-0.6-1.8,0.6,34,1.2,34.5C130.2,733.5,129.6,701.7,128.4,698.4z"/>
												<path class="st31" d="M159.7,691c0,0-18,2-31.3,7.4C135.2,697.4,159.7,691,159.7,691z"/>
												<path class="st31" d="M106.8,689.3c0.8,1,19.9,8.7,21.6,9C125.7,696,106.8,689.3,106.8,689.3z"/>
												<path class="st32" d="M147.4,721.6c-1.4,0.2-2.6,0.2-3.9-0.1c-1.2-0.2-2.3-0.6-3.2-1.2c-0.9-0.6-1.7-1.2-2.4-2
													s-1.3-1.7-1.7-2.7s-0.7-2-0.8-3c-0.2-1.3-0.1-2.6,0.2-3.8c0.3-1.3,0.9-2.5,1.6-3.5c0.8-1.1,1.8-2,3.1-2.8
													s2.9-1.3,4.6-1.5c2.9-0.4,5.4-0.1,7.5,0.9l-2.1,5.6c0,0-2-2.5-4.2-2.1c-2.1,0.4-3.1,1.7-3.5,2.8s-0.5,2.2-0.4,3.4
													c0.1,0.9,0.4,1.8,0.9,2.6s1.1,1.4,2,1.8c0.9,0.4,1.8,0.6,2.9,0.4c0.6-0.1,1.2-0.3,1.8-0.6s1-0.7,1.4-1.2l3.2,3.2
													c-0.5,0.8-1.4,1.6-2.7,2.4C150.5,720.9,149,721.4,147.4,721.6L147.4,721.6z"/>
												<path class="st33" d="M106.9,655.8c-0.6-0.4,15.8-7.3,25.7-9.1c9.9,1,28.7,6,28,6.8c-7,3.1-20.1,9.3-21.8,9.4
													C137,663.1,107.8,656.4,106.9,655.8z"/>
												<path class="st34" d="M106.9,655.8c0,0-1.6,31.1,0,32.8s29.6,9.5,31,9.4c0.5-12.7,1-33.6,0.8-35.1
													C132.5,660.5,106.9,655.8,106.9,655.8L106.9,655.8L106.9,655.8z"/>
												<path class="st35" d="M160.6,653.5c0.6,0.4,0.7,31.4,0.2,32.2s-22,12.4-22.8,12.3c-0.9-0.1,0.6-34.4,0.8-35.1
													C139,662.2,160.6,653.5,160.6,653.5L160.6,653.5L160.6,653.5z"/>
												<path class="st36" d="M138.8,663c0.6-1.8-0.2,34.5-0.8,35.1C137.3,698.6,137.6,666.3,138.8,663z"/>
												<path class="st37" d="M106.9,655.8c0,0,18.3,1.8,31.9,7.1C131.8,662.1,106.9,655.8,106.9,655.8z"/>
												<path class="st37" d="M160.6,653.5c-0.8,1-20.1,9-21.8,9.4C141.5,660.5,160.6,653.5,160.6,653.5z"/>
												<path class="st38" d="M126.1,677c0.7,0.3,1.4,0.8,1.9,1.4c0.6,0.7,1,1.5,1.3,2.4s0.5,1.8,0.4,2.8c-0.1,2-1,3.1-2.6,3.4
													c-1.7,0.3-4.3-0.2-7.7-1.6l-3.7-1.5l0.7-19c0.6-0.2,1.5-0.1,2.7,0.3s2.4,0.7,3.5,1.1c1,0.4,2,1,2.9,1.8s1.6,1.7,2.2,2.6
													c0.6,0.9,0.8,1.8,0.8,2.7c0,1.1-0.3,1.9-0.9,2.6c-0.5,0.7-1.2,0.9-2.1,0.7C125.7,676.8,125.9,676.9,126.1,677L126.1,677
													L126.1,677z M123.5,671.2c-0.3-0.4-0.8-0.8-1.4-1c-0.4-0.2-0.8-0.2-1.1-0.2l-0.1,3c0.2,0.2,0.4,0.3,0.7,0.4
													c0.6,0.2,1.1,0.3,1.6,0.1s0.7-0.5,0.8-1C124,672,123.8,671.6,123.5,671.2L123.5,671.2L123.5,671.2z M123.7,682.1
													c0.6-0.2,0.9-0.7,0.9-1.3c0-0.5-0.2-1-0.6-1.6c-0.4-0.5-0.9-0.9-1.6-1.1c-0.6-0.2-1.2-0.3-1.7-0.2l-0.1,3.5
													c0.3,0.3,0.6,0.5,1,0.6C122.4,682.3,123.1,682.3,123.7,682.1L123.7,682.1z"/>
												<path class="st39" d="M101.7,621.8c-0.6-0.4,15.8-7.3,25.7-9.1c9.9,1,28.7,6,28,6.8c-7,3.1-20.1,9.3-21.8,9.4
													C131.9,629,102.6,622.4,101.7,621.8L101.7,621.8L101.7,621.8z"/>
												<path class="st40" d="M101.7,621.8c0,0-1.6,31.1,0,32.8s29.6,9.5,31,9.4c0.5-12.7,1-33.6,0.8-35.1
													C127.3,626.5,101.7,621.8,101.7,621.8z"/>
												<path class="st41" d="M155.4,619.5c0.6,0.4,0.7,31.4,0.2,32.2s-22,12.4-22.8,12.3c-0.9-0.1,0.6-34.3,0.8-35.1
													C133.9,628.2,155.4,619.5,155.4,619.5L155.4,619.5L155.4,619.5z"/>
												<path class="st39" d="M133.6,628.9c0.6-1.8-0.2,34.5-0.8,35.1C132.1,664.6,132.4,632.3,133.6,628.9z"/>
												<path class="st42" d="M101.7,621.8c0,0,18.3,1.8,31.9,7.1C126.7,628,101.7,621.8,101.7,621.8z"/>
												<path class="st42" d="M155.4,619.5c-0.8,1-20.1,9-21.8,9.4C136.3,626.5,155.4,619.5,155.4,619.5z"/>
												<path class="st43" d="M119.5,648.3l-6.2-1.4l-1.7,3.8l-4.8-3.2l8.6-15.8l4.9,1.1l5.2,19.9l-4.9,0.2L119.5,648.3
													L119.5,648.3L119.5,648.3z M118.4,642.7l-1-5l-1.9,4.3L118.4,642.7L118.4,642.7L118.4,642.7z"/>
											</g>
										</g>
									</g>
								</g>
								<path class="st32" d="M102.1,479.3c-0.6-0.4,14.7-7.3,23.9-9.3c9.3,0.7,27,5,26.4,5.8c-6.5,3.1-18.6,9.4-20.2,9.5
									C130.6,485.5,103,479.8,102.1,479.3L102.1,479.3z"/>
								<path class="st32" d="M102.1,479.3c0,0-0.8,29.8,0.8,31.4c1.6,1.6,28,8.3,29.3,8.2c0.2-12.1,0.1-32.2-0.1-33.5
									C126.3,483.2,102.1,479.3,102.1,479.3L102.1,479.3z"/>
								<path class="st44" d="M152.5,475.8c0.5,0.4,1.4,30,0.9,30.8s-20.3,12.4-21.1,12.3c-0.8-0.1-0.3-32.9,0-33.5
									C132.4,484.6,152.5,475.8,152.5,475.8L152.5,475.8L152.5,475.8z"/>
								<path class="st45" d="M132.2,485.3c0.5-1.7,0.6,33,0.1,33.5C131.7,519.5,131.2,488.6,132.2,485.3L132.2,485.3z"/>
								<path class="st45" d="M102.1,479.3c0,0,17.2,1.3,30.1,6C125.7,484.6,102.1,479.3,102.1,479.3z"/>
								<path class="st45" d="M152.5,475.8c-0.7,1-18.6,9.1-20.2,9.5C134.7,483,152.5,475.8,152.5,475.8z"/>
								<path class="st46" d="M123.3,508.9l-14.3-3.4l-0.4-4.7c1.2-0.3,2.4-0.8,3.8-1.5s2.4-1.5,3.4-2.5c0.9-0.9,1.4-1.8,1.4-2.8
									c0-0.5-0.1-1.1-0.4-1.6s-0.7-0.8-1.1-0.9c-0.6-0.1-1,0-1.5,0.5c-0.4,0.5-0.7,1.1-0.7,1.8l-4.6-2c0.1-1.3,0.4-2.5,1-3.4
									s1.4-1.6,2.5-2s2.2-0.4,3.5-0.1s2.4,0.9,3.4,1.7c1,0.8,1.7,1.9,2.2,3.1s0.8,2.5,0.8,3.9c0,2.8-1.4,5.3-4.2,7.7l4.9,1.1
									L123.3,508.9L123.3,508.9z"/>
								<path class="st47" d="M102.1,444.7c-0.6-0.4,14.7-7.4,23.9-9.3c9.3,0.7,27,5,26.4,5.8c-6.5,3.1-18.6,9.4-20.2,9.5
									C130.6,450.9,103,445.3,102.1,444.7L102.1,444.7z"/>
								<path class="st48" d="M102.1,444.7c0,0-0.5,31.5,1.1,33c1.6,1.6,27.7,6.6,29.1,6.5c0.2-12.1,0.1-32.1-0.1-33.5
									C126.3,448.6,102.1,444.7,102.1,444.7L102.1,444.7z"/>
								<path class="st13" d="M152.5,441.3c0.5,0.4,1.4,32.8,0.9,33.5c-0.5,0.8-20.3,9.6-21.1,9.5s-0.3-32.9,0-33.5
									C132.4,450.1,152.5,441.3,152.5,441.3L152.5,441.3L152.5,441.3z"/>
								<path class="st49" d="M132.2,450.8c0.5-1.7,0.6,32.9,0.1,33.5S131.2,454.1,132.2,450.8z"/>
								<path class="st50" d="M102.1,444.7c0,0,17.2,1.3,30.1,6C125.7,450.1,102.1,444.7,102.1,444.7z"/>
								<path class="st50" d="M152.5,441.3c-0.7,1-18.6,9.1-20.2,9.5C134.7,448.4,152.5,441.3,152.5,441.3z"/>
								<path class="st51" d="M122.7,462.6c0.6,0.8,1.1,1.7,1.4,2.8c0.4,1,0.5,2,0.5,3c0,1.3-0.3,2.5-1,3.4s-1.6,1.5-2.8,1.9
									s-2.6,0.3-4,0s-2.7-0.9-3.7-1.8c-1-0.8-1.9-2-2.6-3.4l2.6-3.4c0.4,0.9,1,1.6,1.6,2.2s1.2,0.9,1.9,1.1
									c0.7,0.2,1.3,0.1,1.8-0.3s0.7-0.9,0.7-1.6s-0.2-1.3-0.6-1.9s-0.9-0.9-1.5-1.1c-0.4-0.1-0.8-0.1-1.2-0.1
									c-0.4,0-0.8,0.2-1.2,0.4l-1.3-3.8l3.7-2.4l-5.9-1.3v-4.7l12.9,3l0.1,4.5l-3.4,1.7C121.4,461.1,122.1,461.7,122.7,462.6
									L122.7,462.6L122.7,462.6z"/>
								<path class="st36" d="M105.9,410.6c-0.6-0.4,14.8-7.4,24.1-9.4c9.4,0.8,27.3,5.1,26.6,5.9c-6.5,3.2-18.8,9.5-20.4,9.6
									S106.7,411.2,105.9,410.6L105.9,410.6z"/>
								<path class="st34" d="M105.9,410.6c0,0-0.8,30,0.8,31.6c1.6,1.6,28.2,8.4,29.6,8.3c0.2-12.2,0.1-32.5-0.1-33.9
									C130.2,414.5,105.9,410.6,105.9,410.6L105.9,410.6z"/>
								<path class="st14" d="M156.6,407.1c0.6,0.4,1.4,30.2,0.9,31s-20.5,12.5-21.3,12.4s-0.3-33.1,0-33.9S156.6,407.1,156.6,407.1
									L156.6,407.1L156.6,407.1z"/>
								<path class="st52" d="M136.2,416.7c0.5-1.8,0.6,33.2,0,33.9C135.7,451.2,135.2,420,136.2,416.7z"/>
								<path class="st37" d="M105.9,410.6c0,0,17.4,1.3,30.3,6.1C129.6,416,105.9,410.6,105.9,410.6z"/>
								<path class="st37" d="M156.6,407.1c-0.7,1-18.8,9.2-20.4,9.6C138.7,414.3,156.6,407.1,156.6,407.1z"/>
								<path class="st32" d="M121,420l3.6,1.2V441l-5.6-1.2v-14.6l-3.6-0.8v-5.5L121,420L121,420L121,420z"/>
								<path class="st53" d="M256,444v36.5c0,5.2,10.1,9.5,22.5,9.5s22.5-4.2,22.5-9.5V444H256L256,444z"/>
								<path class="st54" d="M301,444c0,5.5-10.1,10-22.5,10s-22.5-4.5-22.5-10s10.1-10,22.5-10S301,438.5,301,444z"/>
								<path class="st55" d="M278.5,453c-10.6,0-19.6-3.4-22.5-8c1.9,5.1,11.3,9,22.5,9s20.6-3.9,22.5-9
									C298.1,449.6,289.1,453,278.5,453z"/>
								<path class="st21" d="M297,440c0,5-8.5,9-19,9s-19-4-19-9c3.2-6.5,11.1-19.8,18.1-32.6c0.3-0.6,1.6-0.6,1.9,0.1
									C284.6,417.2,293.9,433.9,297,440L297,440z"/>
								<path class="st16" d="M257,504.5c0,5.2,4,9.5,9,9.5s9-4.3,9-9.5s-4-9.5-9-9.5S257,499.2,257,504.5z"/>
								<path class="st56" d="M263.4,498.1c2.3-0.4,3.8,1.1,1.4,1.8c-2.3,0.8-4.6,2.9-4.7,5.2c-0.1,1.9-2.9,0.5-2-2.3
									S261.2,498.5,263.4,498.1L263.4,498.1L263.4,498.1z"/>
								<path class="st32" d="M283.3,465.4c-0.9-0.6,21.6-10.6,35.2-13.5c13.8,1.1,39.8,7.3,38.9,8.4c-9.5,4.5-27.4,13.6-29.8,13.8
									C325.2,474.4,284.5,466.3,283.3,465.4L283.3,465.4L283.3,465.4z"/>
								<path class="st57" d="M283.3,465.4c0,0-1.2,43.2,1.1,45.5c2.3,2.3,41.2,12.1,43.2,12c0.3-17.6,0.1-46.6-0.1-48.7
									C318.9,471.1,283.3,465.4,283.3,465.4L283.3,465.4z"/>
								<path class="st58" d="M357.4,460.4c0.8,0.6,2.1,43.5,1.4,44.6c-0.7,1.2-29.9,18-31.1,17.9c-1.2-0.2-0.4-47.6-0.1-48.7
									C328,473.2,357.4,460.4,357.4,460.4z"/>
								<path class="st59" d="M327.6,474.2c0.8-2.5,1,47.8,0.1,48.7C326.8,523.7,326.1,479,327.6,474.2z"/>
								<path class="st60" d="M283.3,465.4c0,0,25.4,1.9,44.3,8.8C318,473.2,283.3,465.4,283.3,465.4z"/>
								<path class="st60" d="M357.4,460.4c-1.1,1.4-27.4,13.2-29.8,13.8C331.3,470.8,357.4,460.4,357.4,460.4z"/>
								<g>
									<g>
										<g>
											<defs>
												<rect id="SVGID_00000049917848129664334020000004433332081074209422_" x="87" y="37" width="257" height="307"/>
											</defs>
											<clipPath id="SVGID_00000008839075143551222560000008137182934866146459_">
												<use xlink:href="#SVGID_00000049917848129664334020000004433332081074209422_"  style="overflow:visible;"/>
											</clipPath>
											<g style="clip-path:url(#SVGID_00000008839075143551222560000008137182934866146459_);">
												<path class="st62" d="M290.9,285.9c40.1-40.2,40.1-105.4,0-145.6s-105.2-40.2-145.4,0s-40.1,105.4,0,145.6
													S250.7,326.1,290.9,285.9z"/>
												<path class="st63" d="M207.3,251.1c0,0-25.8,8.6-65.1-26.7c-3.3,1.8-7.2-0.1-11.7-3.6c-4-1.5-6.5-3.1-5.6-4.6
													s5.2,0.5,6.4,0.9c-0.1-0.1-5.2-3.1-6.2-3.9c-2.4-1.7-1.1-4.3,1.2-3.2c2,0.9,6.4,3.3,6.7,3.4c-0.2-0.2-4.9-4-5.8-4.7
													c-2.6-2.1-0.7-5.2,2.3-2.9c2.1,1.6,5.6,4.4,5.9,4.6c0-0.2-2.1-2.9-3.2-4.7c-1.8-2.8,0.3-4.8,2.9-1.9
													c2,2.2,6.3,4.9,8.3,6.6c3.1,2.6,3.5,5.3,3.5,5.3s22.5,28.7,59.9,24.4C215.1,243.6,207.3,251.1,207.3,251.1L207.3,251.1
													L207.3,251.1z"/>
												<path class="st64" d="M140.8,217.4L140.8,217.4c0.2-0.1,0.2-0.3,0.1-0.5c-1.8-2.2-0.2-4.7,1.1-5.7
													c0.1-0.1,0.1-0.3,0-0.4c-0.1-0.1-0.3-0.1-0.4,0c-1.4,1.2-3.3,4-1.1,6.6C140.5,217.5,140.7,217.5,140.8,217.4
													L140.8,217.4L140.8,217.4z"/>
												<path class="st63" d="M243.3,244.1c0,0-5.7-1.4-10.1-3.5c0.4-4.8,2.2-10.7,2.2-10.7l-10.4-2.8c0,0-2,8-2.4,11.1
													c-6.5,0.5-14.2,0.4-14.2,0.4s-7.6,18.8,14.2,21.7C228.3,261.1,242.7,253.1,243.3,244.1L243.3,244.1z"/>
												<path class="st65" d="M223.9,233.1l9.1,2c0,0-1,4.5-1.9,7c-1.3-3.6-6.9-3.8-8.3-1.4C223,237.4,223.9,233.1,223.9,233.1
													L223.9,233.1L223.9,233.1z"/>
												<path class="st66" d="M264.2,255.7c-10-11.9-20.2-11-23.4-12.8c-4.2,23.8-35.1,14-30-4.4c-3.4,0.2-17.7,0.7-24.8,0.3
													c-0.4,1.2-5,5.2-5.4,16.5c5,4.3,12.8,3.6,12.6,4.2c-5,22.7-12.4,41.6-15.5,47.9c0.3,0.3,0.7,0.5,1.1,0.8
													c12.1,5,25.4,7.8,39.4,7.8c13.9,0,28.5-3.1,41.1-8.6c-7.4-10.7-8.6-24.5-9.5-39.4c-0.1-0.3,5.4,2.8,5.3,3.8
													C258.5,264,265.5,259.5,264.2,255.7L264.2,255.7L264.2,255.7z"/>
												<path class="st67" d="M255.1,271.8c0,0,0,0.1-0.1,0.2C255,272,255.1,271.9,255.1,271.8z"/>
												<path class="st68" d="M215.4,276.1c2.3-0.5,2-11.5,5.7-10.4c2.1,0.6,0.9,9.6,3.4,10.3c3,0.8,9.7-2.1,9.9,0.1
													c0.3,3.1-10.6,4.6-8.7,7.4c2.8,4.1,5.8,9.2,4.4,10.2c-2.6,1.8-7.7-6.9-10.9-7.4c-3.6-0.6-12,9.6-12.7,5.9
													c-0.5-2.7,7.1-8.2,5.8-10.2c-2.6-4-8.9-8.1-5.9-8.8C209.1,272.5,213.2,276.6,215.4,276.1L215.4,276.1L215.4,276.1z"/>
												<path class="st5" d="M188.2,238.9c-1.9,2.1-3.8,9.1-4.2,18.5c-3.2-0.6-5.8-2.2-5.8-2.2s0.9-11.7,6.8-16.7
													C186,238.8,188.2,238.9,188.2,238.9L188.2,238.9L188.2,238.9z"/>
												<path class="st5" d="M264,255.2c0.2,1.2-6.3,12.3-12.4,15.6c1.7,1.9,4.5,3,4.5,3s9.3-10,10.3-15.9
													C266,257,264,255.2,264,255.2L264,255.2z"/>
												<path class="st5" d="M212.8,238.2c-1.1,10.4,2.3,16.2,10.8,17.6c8.6,1.4,15-6.3,16.4-13c0.6,0,2.9,1,2.9,1
													s-1.5,17.5-19.8,15.4c-18.3-2.1-13.6-20.6-13.6-20.6L212.8,238.2L212.8,238.2z"/>
												<path class="st63" d="M290.1,197.6c-9.9,33.1-42.3,47.3-74.1,37.8c-31.8-9.6-51-39.3-41.1-72.4s43.4-50.9,75.1-41.4
													S300.1,164.5,290.1,197.6L290.1,197.6L290.1,197.6z"/>
												<path class="st63" d="M287.8,197.2c0,0,2.8-6.5,11.2-5.2c8.9,1.3,9.3,13.6,2.8,19.1s-16.1,3-17.6-3.1L287.8,197.2
													L287.8,197.2L287.8,197.2z"/>
												<path class="st69" d="M299.9,195.3c-5.4-2.5-12.5,6.3-6.2,13.4c-1.4-7.9,2.2-9.5,5.3-5.1c0.5-2.3-0.5-4.1-3.9-4.7
													C296.1,196,299.9,195.3,299.9,195.3L299.9,195.3L299.9,195.3z"/>
												<path class="st63" d="M176.9,163.9c0,0,1.2-6.9-6.5-10.6c-8.2-3.8-15.2,6.2-12.9,14.4c2.4,8.1,11.8,11.4,16.4,7.1
													L176.9,163.9L176.9,163.9z"/>
												<path class="st69" d="M167.7,155.7c5.8,0.9,7,12.1-2.2,14.6c5.5-5.8,3.4-9.1-1.7-7.2c0.8-2.2,2.6-3.2,5.9-1.8
													C170.5,158.3,167.8,155.7,167.7,155.7L167.7,155.7z"/>
												<path class="st70" d="M236.6,178.6c-1.6,3.3-11.8,4.6-9.7,9.8c1.3,3.2,6.2,4,7.8-1.3
													C235.5,184.1,236.6,178.6,236.6,178.6L236.6,178.6z"/>
												<path class="st70" d="M248.2,205c-1,3.4,3.3,7.7,9.6,9.6c6.3,1.9,12.3,0.7,13.3-2.7s-3.3-7.7-9.6-9.6
													C255.2,200.4,249.2,201.6,248.2,205L248.2,205z"/>
												<path class="st70" d="M183,185.4c-1,3.4,3.3,7.7,9.6,9.6c6.3,1.9,12.3,0.7,13.3-2.7s-3.3-7.7-9.6-9.6
													C190,180.8,184,182,183,185.4L183,185.4L183,185.4z"/>
												<path class="st71" d="M210.4,194.9c5.4-1.6,5.6,3.6,15.7,6.5c10.2,3,13.1-1.5,16.9,3.8c3.1,4.3-5.6,21-22.4,15.8
													S205.3,196.5,210.4,194.9L210.4,194.9L210.4,194.9z"/>
												<path class="st70" d="M233.3,220.8c-3.4,1.4-7.7,1.8-12.6,0.2c-4.6-1.4-7.9-4-10-6.9c3.1-0.1,7.1,0.4,12.1,1.8
													C227.4,217.4,230.8,219.1,233.3,220.8L233.3,220.8L233.3,220.8z"/>
												<path class="st5" d="M212.3,194.6c3.7,0,5.1,4.3,13.8,6.9c8.8,2.6,12.2-0.4,15.4,2.2c-1.5,4.8-10,6.1-17,3.9
													C217.4,205.3,210.8,199.3,212.3,194.6L212.3,194.6z"/>
												<path class="st5" d="M254.7,181.5c-3.8,4.9-3.1,11.8,1.6,15.4c4.6,3.6,11.5,2.5,15.3-2.4s3.1-11.8-1.6-15.4
													C265.3,175.5,258.5,176.6,254.7,181.5L254.7,181.5z"/>
												<path class="st72" d="M257.9,184c-2.3,3-1.9,7.3,1,9.5s7.1,1.5,9.4-1.5s1.9-7.3-1-9.5
													C264.5,180.2,260.2,180.9,257.9,184L257.9,184z"/>
												<path class="st5" d="M264.6,186.5c-0.3,1.1,0.3,2.2,1.3,2.5s2.1-0.4,2.4-1.4c0.3-1.1-0.3-2.2-1.3-2.5
													C266,184.7,264.9,185.4,264.6,186.5L264.6,186.5z"/>
												<path class="st5" d="M257.9,189.4c-0.2,0.7,0.2,1.4,0.8,1.5c0.6,0.2,1.3-0.2,1.5-0.9s-0.2-1.4-0.8-1.5
													C258.7,188.3,258.1,188.8,257.9,189.4L257.9,189.4L257.9,189.4z"/>
												<path class="st73" d="M275.4,186.7c0,0-5.3-11.9-18.5-8.5C271.4,169.6,275.4,186.7,275.4,186.7z"/>
												<path class="st5" d="M213.5,169.1c0.4,6.2-3.9,11.6-9.8,12c-5.9,0.4-11-4.3-11.4-10.5c-0.5-6.2,3.9-11.6,9.8-12
													C207.9,158.2,213,162.9,213.5,169.1L213.5,169.1L213.5,169.1z"/>
												<path class="st72" d="M209.4,169.4c0.3,3.8-2.4,7.1-6,7.4s-6.8-2.6-7-6.4c-0.3-3.8,2.4-7.1,6-7.4
													C206,162.7,209.1,165.6,209.4,169.4z"/>
												<path class="st5" d="M202.4,167.8c-0.3,1.1-1.4,1.7-2.4,1.3s-1.5-1.4-1.2-2.5c0.4-1.1,1.4-1.7,2.4-1.4
													C202.2,165.6,202.8,166.7,202.4,167.8L202.4,167.8L202.4,167.8z"/>
												<path class="st5" d="M206.4,174c-0.2,0.7-0.9,1-1.5,0.8s-1-0.9-0.7-1.6s0.9-1,1.5-0.8S206.6,173.3,206.4,174L206.4,174z
													"/>
												<path class="st73" d="M193.3,162c0,0,11-7,20.1,3.1C206.1,150,193.3,162,193.3,162z"/>
												<path class="st74" d="M208.9,146.3c6.4-0.6,6.4,6.3,2.4,5.6c-4.3-0.8-8.2,0.1-8.7-0.4
													C201.6,150.4,205.3,146.7,208.9,146.3L208.9,146.3L208.9,146.3z"/>
												<path class="st74" d="M271.7,166.6c-5.5-3.3-8.5,2.9-4.6,4c4.2,1.2,7.4,3.7,8,3.4C276.5,173.4,274.8,168.4,271.7,166.6
													L271.7,166.6z"/>
												<path class="st74" d="M296,132.4c7.8,2.8,13.6-2.5,10.7-9.3c13.2,11.1,24,2,15.5-6.4c13.2,4.3,9.5-7,5.5-10.6
													c21.2,6.9,23.4-29-3.7-31.5c21-4.3,5.9-11.6-3.9-10.5c21-15.1-15.2-43.4-31.2-14.4c-3.1-11.5-13-6.1-13.6,2.5
													c-2.5-17.2-28.6-8.3-19.5,8.3c-12.1-7.8-9.6,5.3-5.6,8.6c-11.5-7-15.3,4.8-8.2,12.4c-17-6.1-7.8,16.5,1,21
													C251.9,106.8,287.4,129.3,296,132.4L296,132.4L296,132.4z"/>
												<path class="st66" d="M277.5,103.4c0,0,28.3-21.7,45.6-17.5c3.2,13.9-3.4,28.1-3.4,28.1L277.5,103.4L277.5,103.4
													L277.5,103.4z"/>
												<path class="st66" d="M278.1,104.4c0,0,9.6-30.8,1.1-46.4C265,58.5,253,68.7,253,68.7L278.1,104.4z"/>
												<path class="st75" d="M250,95.8c8-12.7,19.4-13.6,17.9,2.2c9.7-6.8,12.8-1.3,10,5.2c10.2-8.4,29.9-4.1,23.5,11.4
													c6.5-2.2,17.2,5.7,10.6,11.4c11.5-5.4,25.1,7.9,16.6,21.6c13,2.5,14.8,19.6-3,20.9c11.1,6.9,2.5,26.1-8.3,17.5
													c3.5,13.4-7.4,26.5-13.6,11.1c-4.2,8.1-8.9-0.2-9.9-4.5c-7.5,10.5-15.4-10.5-4-18.6c-10.7,3.4-12.3-11.6-9.3-15.6
													c-9.8,10-13.2-1.6-6.5-5.4c-7.6,2.6-17.4,1.8-16.4-8.3c-6.6,0.3-13.5-9.2-6.2-12.4c-5.5-1-19.3-10.9-19.2,2
													s-22,1.1-24.6-6.6c-0.3,13.7-12.7,18.5-17.9,13.1c5.4,15.8-5.4,20-9.5,12.3c-0.5,12.5-17.8,7.5-14.2-0.5
													c-8.4,3-10.6-8.6-1.9-12.8c-11.5,0-6.9-20.7,5.8-19.5c-9.2-5.8-2.6-11.7,1.8-10.7c-4.5-8.9,4.5-18.4,13.2-12.2
													c-6.5-15,16.1-19.4,20.9-14.9c-0.5-9.8,8.6-15.7,11.8,1.4c7.4-7.3,11.7-0.3,11.2,5.1C237.3,76.9,251.2,79.4,250,95.8
													L250,95.8z"/>
												<path class="st76" d="M238.2,255c0.6,0.6,40.3,51.3,39.7,51.8l-38.2,36.8c-0.6,0.5-1.5,0.5-2-0.1l-46.6-50.3
													c-0.6-0.6-0.5-1.5,0-2.1l36.7-35.3c1.4-1.4,2.2-1.4,3.6-1.4L238.2,255L238.2,255L238.2,255z"/>
												<path class="st77" d="M236.9,257.1c0.6,0.6,41.4,50.9,40.8,51.5l-29.1,32.5c-0.6,0.5-8,2.2-8.5,1.6l-46-49.7
													c-0.5-0.6-0.5-1.5,0-2.1l34.7-33.4c0.9-0.9,1.5-1,2.9-0.7L236.9,257.1L236.9,257.1z"/>
												<path class="st76" d="M286,305.8c0.5,0.6,0.5,1.5,0,2.1l-35.5,34.2c-0.6,0.5-1.5,0.5-2-0.1l-46.6-50.3
													c-0.6-0.6-0.5-1.5,0-2.1l35.6-34.2c0.6-0.5,1.5-0.5,2,0.1L286,305.8L286,305.8z"/>
												<path class="st63" d="M264.7,262.8c0,0,10.6,27.2-28.7,54.9c0.2,3.5-2.6,7-7.3,9.4c-2.7,2.8-5.1,4.2-5.9,2.9
													c-0.9-1.3,2.4-4.1,3.1-5c-0.2,0.1-3.4,2.2-4.4,2.9c-2.4,1.4-3-1.4-2-2.3c1.5-1.4,3.8-3.2,4-3.4c-0.2,0.1-4,2-4.9,2.5
													c-2.7,1.4-3.5-2.2-2.2-2.9c2.1-1.1,5.2-2.6,5.5-2.9c-0.2,0-3.2,0.6-5.1,0.9c-3,0.4-3.8-2.1-0.5-3.2
													c2.6-0.9,8.8-3.7,8.8-3.7s-5.6-2.4-4.2-4.5c1.4-2.1,9.8,2.9,9.8,2.9s23.2-17.5,25.7-38.2
													C258,271.1,261.6,268.5,264.7,262.8L264.7,262.8L264.7,262.8z"/>
												<path class="st78" d="M136.9,231.2c-5.2,3-11.6,6.2-12.8,6.3c-5,0.6-2.3-7.2-2.9-12.2l-5.5-49.1
													c-1.3,0.9-2.4,1.6-3.2,2.1c-0.1,0.1-0.3,0.2-0.4,0.2c-4.3,2.6-10,1.3-12.6-3.1c-2.6-4.3-1.3-10,3-12.6
													c0.2-0.1,0.4-0.2,0.6-0.4c2.7-1.6-1.2-1.4,0.6-10c0.9-4.4,14.4-10.9,18.9-10.7s8.2,3.7,8.7,8.2l10.5,72.2
													C142.1,225.9,140,229.4,136.9,231.2L136.9,231.2L136.9,231.2z"/>
												<path class="st79" d="M123.5,238.3c-1,0.5-2.1,0.9-3.3,1c-5,0.6-9.6-3.1-10.1-8.1l-5.5-49.1c-1.3,0.9-2.4,1.6-3.2,2.1
													c-0.2,0.1-0.3,0.2-0.4,0.2c-4.3,2.6-10,1.3-12.6-3.1c-2.7-4.3-1.3-10,3-12.6c0.2-0.1,0.4-0.2,0.6-0.4
													c2.7-1.6,8.2-4.9,10-13.4c0.9-4.4,4.9-7.5,9.4-7.3s8.2,3.7,8.7,8.2l9.6,72.6C130.2,232.2,126.8,236.6,123.5,238.3
													L123.5,238.3z"/>
												<path class="st2" d="M124.6,189.3l-18.3,8l2,18.1l19.6-0.5L124.6,189.3L124.6,189.3z"/>
												<path class="st2" d="M88.3,181.3c2.6,4.3,8.3,5.7,12.6,3.1c0.1-0.1,0.2-0.1,0.4-0.2c0.8-0.5,1.9-1.1,3.2-2.1l0.1,0.8
													l17.5-11.9l-2-15.2c-0.1-1.4-0.6-2.6-1.3-3.7l-31.1,28.3C88,180.6,88.2,181,88.3,181.3L88.3,181.3L88.3,181.3z"/>
												<path class="st80" d="M102.8,156c1.7-7.4,10.9-9.9,16-4c-1.5-2.6-4.3-4.3-7.4-4.4c-4.5-0.2-8.5,2.9-9.4,7.3
													c-1.8,8.6-7.3,11.8-10,13.4c-0.2,0.1-0.4,0.3-0.6,0.4c-3,1.9-4.6,5.2-4.4,8.5C87.9,167.4,99.5,170.6,102.8,156
													L102.8,156L102.8,156z"/>
												<path class="st80" d="M111.1,232.1c0,0-4.8-45.4-6.5-50l5.5,49.1c0.3,2.8,1.9,5.2,4.1,6.6
													C113.5,236.7,111.2,233.5,111.1,232.1L111.1,232.1z"/>
												<path class="st80" d="M120.2,156.9l9.6,71.9C128.5,213.2,128.4,197.7,120.2,156.9z"/>
												<path class="st63" d="M143.7,212.1c-1.5-2-7.3-5.3-9.2-2.5c-1.9,2.9,9.7,7.6,9.7,7.6L143.7,212.1L143.7,212.1
													L143.7,212.1z"/>
											</g>
										</g>
									</g>
								</g>
							</g>
						</g>
					</g>
				</g>
			</g>
			<g id="i">
				<rect y="837" class="st79" width="430" height="95"/>
				<rect x="1.9" y="852.5" class="st81" width="426.1" height="78"/>
				<path class="st4" d="M429.5,931.6H0.6V0.5h428.9V931.6z M7.4,924.6h415.2V7.4H7.4V924.6z"/>
			</g>
		</g>
	</g>
	<g id="Layer_2_00000037661174108145099750000011721023284991967662_">
		<g>
			<g>
				<defs>
					<rect id="SVGID_00000128483433836424881340000005611774513546611134_" x="0.1" width="429.9" height="932"/>
				</defs>
				<clipPath id="SVGID_00000027577217058784392520000014280033539997826965_">
					<use xlink:href="#SVGID_00000128483433836424881340000005611774513546611134_"  style="overflow:visible;"/>
				</clipPath>
				<g style="clip-path:url(#SVGID_00000027577217058784392520000014280033539997826965_);">
					<rect x="0.1" class="st83" width="429.9" height="932"/>
					<path class="st84" d="M51.5,836.8h341.3c6,0,10.9,4.9,10.9,10.9v138.9c0,6-4.9,10.9-10.9,10.9H51.5c-6,0-10.9-4.9-10.9-10.9
						V847.8C40.6,841.7,45.5,836.8,51.5,836.8z"/>
					<g>
						<path class="st5" d="M0.1,0H430v189.2c0,22.4-18.1,40.5-40.5,40.5h-349C18.1,229.7,0,211.6,0,189.2V0H0.1z"/>
					</g>
					<path class="st85" d="M341.6,25c0-2.8,2.3-5.2,5.2-5.2h20c2.8,0,5.2,2.3,5.2,5.2v20c0,2.8-2.3,5.2-5.2,5.2h-20
						c-2.8,0-5.2-2.3-5.2-5.2V25z"/>
					<path class="st86" d="M353.7,31c0-1.7,1.3-3,3-3s3,1.3,3,3s-1.3,3-3,3c-0.9,0-1.6,0.7-1.6,1.6v1.8c0,0.9,0.7,1.6,1.6,1.6
						s1.6-0.7,1.6-1.6V37c2.6-0.7,4.6-3.1,4.6-5.9c0-3.4-2.7-6.1-6.1-6.1s-6.1,2.7-6.1,6.1c0,0.9,0.7,1.6,1.6,1.6
						C353,32.6,353.7,31.9,353.7,31z M356.7,45.1c1.2,0,2.2-1,2.2-2.2s-1-2.2-2.2-2.2s-2.2,1-2.2,2.2
						C354.5,44.2,355.5,45.1,356.7,45.1z"/>
					<g>
						<circle shape-rendering="crispEdges" class="st85" cx="163.4" cy="94.4" r="12.4"/>
					</g>
					<g>
						<circle shape-rendering="crispEdges" class="st85" cx="198.6" cy="94.4" r="12.4"/>
					</g>
					<g>
						<circle shape-rendering="crispEdges" class="st85" cx="233.7" cy="94.4" r="12.4"/>
					</g>
					<g>
						<circle shape-rendering="crispEdges" class="st85" cx="268.9" cy="94.4" r="12.4"/>
					</g>
					<circle class="st87" cx="163.4" cy="94.4" r="9.2"/>
					<circle class="st88" cx="198.6" cy="94.4" r="9.2"/>
					<circle class="st89" cx="233.7" cy="94.4" r="9.2"/>
					<g>
						<path class="st87" d="M293.3,131.3h68.9c6,0,10.9,4.9,10.9,10.9v42.7c0,6-4.9,10.9-10.9,10.9h-68.9c-6,0-10.9-4.9-10.9-10.9
							v-42.7C282.3,136.2,287.2,131.3,293.3,131.3z"/>
					</g>
					<g>
						<g>
							<defs>
								<rect id="SVGID_00000160158072449406824650000007551925129263126440_" x="314" y="148.8" width="29.5" height="29.5"/>
							</defs>
							<clipPath id="SVGID_00000163767818300811288780000005260285142700149396_">
								<use xlink:href="#SVGID_00000160158072449406824650000007551925129263126440_"  style="overflow:visible;"/>
							</clipPath>
							<g style="clip-path:url(#SVGID_00000163767818300811288780000005260285142700149396_);">
								<path class="st91" d="M320.1,175.2c-0.3,0.1-0.5,0.1-0.8,0l-4-1c-0.6-0.2-1.1-0.7-1.2-1.3s0.2-1.3,0.8-1.6l0.9-0.6
									c-1.1-2.2-1.7-4.7-1.7-7.2l0,0h1.6h-1.6c0-2.9,0.9-5.8,2.5-8.2s3.9-4.3,6.6-5.4c2.7-1.1,5.7-1.4,8.5-0.8
									c2.9,0.6,5.5,2,7.6,4l0,0c0.7,0.8,1.4,1.6,2,2.5c0.5,0.7,0.3,1.7-0.5,2.2c-0.7,0.5-1.7,0.3-2.2-0.5c-0.4-0.7-1-1.4-1.6-1.9
									l0,0c-1.6-1.6-3.7-2.7-5.9-3.2c-2.3-0.4-4.6-0.2-6.7,0.7s-3.9,2.4-5.2,4.3c-1.3,1.9-2,4.2-2,6.4l0,0c0,1.9,0.4,3.9,1.2,5.6
									l1.4-0.9c0.5-0.3,1.2-0.3,1.8,0.1c0.5,0.4,0.7,1,0.6,1.7l-1,4c0,0.2-0.1,0.3-0.2,0.4C320.8,174.8,320.5,175.1,320.1,175.2z
									 M327.2,176.7c0-0.9,0.7-1.6,1.6-1.6c1,0,2-0.1,2.9-0.4c0.8-0.2,1.7,0.3,1.9,1.1c0.2,0.8-0.3,1.7-1.1,1.9
									c-1.2,0.3-2.4,0.5-3.7,0.5C327.9,178.3,327.2,177.6,327.2,176.7z M334.8,175.4c-0.5-0.7-0.3-1.7,0.4-2.2
									c1.1-0.7,2.1-1.6,2.8-2.7c0.5-0.7,1.5-0.8,2.2-0.3s0.8,1.5,0.3,2.2c-1,1.3-2.2,2.5-3.6,3.4
									C336.3,176.3,335.3,176.1,334.8,175.4z M340.9,169c-0.8-0.3-1.3-1.2-1-2c0.6-1.9,0.7-3.9,0.3-5.8c-0.2-0.9,0.4-1.7,1.2-1.9
									c0.9-0.2,1.7,0.4,1.9,1.2c0.5,2.5,0.3,5-0.4,7.4C342.6,168.9,341.7,169.3,340.9,169z"/>
							</g>
						</g>
					</g>
					<g>
						
							<linearGradient id="SVGID_00000153695972420080218960000005868234140925945510_" gradientUnits="userSpaceOnUse" x1="348" y1="-357.45" x2="551.4" y2="-357.45" gradientTransform="matrix(1 0 0 1 -291 521)">
							<stop  offset="0" style="stop-color:#ACDE5F"/>
							<stop  offset="1" style="stop-color:#66CD5C"/>
						</linearGradient>
						<path style="fill:url(#SVGID_00000153695972420080218960000005868234140925945510_);" d="M67.9,131.3h181.6
							c6,0,10.9,4.9,10.9,10.9v42.7c0,6-4.9,10.9-10.9,10.9H67.9c-6,0-10.9-4.9-10.9-10.9v-42.7C57,136.2,61.9,131.3,67.9,131.3z"/>
					</g>
					<path class="st93" d="M174.1,155.6c-0.7-1-2.1-1.3-3.1-0.7c-1.1,0.6-1.4,1.8-0.8,2.8c1.6,2.4,2.5,5.2,2.5,8s-0.9,5.6-2.5,8
						c-0.7,1-0.3,2.2,0.8,2.8s2.5,0.3,3.1-0.7c2.1-3,3.2-6.5,3.2-10.1v-0.1C177.3,162.1,176.2,158.7,174.1,155.6z M168.2,160.5
						c-0.8-0.9-2.2-1-3.2-0.3s-1.1,2-0.3,2.9c0.6,0.7,1,1.6,0.9,2.5c0,0.1,0,0.1,0,0.2c0,0.9-0.3,1.8-0.9,2.5
						c-0.8,0.9-0.7,2.2,0.3,2.9s2.4,0.6,3.2-0.3c1.3-1.5,2-3.3,2-5.2C170.2,163.8,169.5,162,168.2,160.5z"/>
					<path class="st86" d="M153.6,150c3-1.9,7,0.1,7,3.4v24.7c-0.1,3.2-4.3,5.2-7.2,3.3c-0.1,0-0.1-0.1-0.2-0.1l-9.9-8.7h-4
						c-2.5,0-4.6-1.9-4.6-4.1V163c0-2.2,2.1-4.1,4.6-4.1h4l10.2-8.7C153.5,150.1,153.5,150.1,153.6,150z"/>
					<g>
						<g>
							<g>
								<path class="st94" d="M0.1,7H430v189.2c0,22.4-18.1,40.5-40.5,40.5h-349C18.1,236.7,0,218.6,0,196.2V7H0.1z"/>
							</g>
							<g>
								<path class="st5" d="M0.1,0H430v189.2c0,22.4-18.1,40.5-40.5,40.5h-349C18.1,229.7,0,211.6,0,189.2V0H0.1z"/>
							</g>
						</g>
					</g>
					<path class="st85" d="M341.6,25c0-2.8,2.3-5.2,5.2-5.2h20c2.8,0,5.2,2.3,5.2,5.2v20c0,2.8-2.3,5.2-5.2,5.2h-20
						c-2.8,0-5.2-2.3-5.2-5.2V25z"/>
					<path class="st86" d="M353.7,31c0-1.7,1.3-3,3-3s3,1.3,3,3s-1.3,3-3,3c-0.9,0-1.6,0.7-1.6,1.6v1.8c0,0.9,0.7,1.6,1.6,1.6
						s1.6-0.7,1.6-1.6V37c2.6-0.7,4.6-3.1,4.6-5.9c0-3.4-2.7-6.1-6.1-6.1s-6.1,2.7-6.1,6.1c0,0.9,0.7,1.6,1.6,1.6
						C353,32.6,353.7,31.9,353.7,31z M356.7,45.1c1.2,0,2.2-1,2.2-2.2s-1-2.2-2.2-2.2s-2.2,1-2.2,2.2
						C354.5,44.2,355.5,45.1,356.7,45.1z"/>
					<path class="st95" d="M235,156.4v-0.9l4.7-6h1.4l-4.7,6l-0.7-0.2h7.3v1.1L235,156.4L235,156.4z M240.1,158.6v-2.3v-1.1v-2h1.2
						v5.4L240.1,158.6L240.1,158.6z M243.6,161.2c-0.3,0-0.6,0-0.8-0.1c-0.3-0.1-0.5-0.2-0.7-0.3l0.4-1c0.3,0.2,0.6,0.3,1,0.3
						c0.3,0,0.6-0.1,0.8-0.3s0.3-0.5,0.3-0.9v-7.3h1.3v7.3c0,0.7-0.2,1.3-0.6,1.7C244.8,161,244.3,161.2,243.6,161.2z M245.2,150.3
						c-0.2,0-0.5-0.1-0.6-0.2c-0.2-0.2-0.2-0.4-0.2-0.6c0-0.2,0.1-0.4,0.2-0.6c0.2-0.2,0.4-0.2,0.6-0.2c0.2,0,0.4,0.1,0.6,0.2
						c0.2,0.1,0.2,0.3,0.2,0.6c0,0.2-0.1,0.4-0.2,0.6C245.6,150.2,245.4,150.3,245.2,150.3z"/>
					<path class="st95" d="M138.5,180.5l-0.1-1.6l5.2-5.4h1.5l-4,4.3l-0.7,0.8L138.5,180.5z M137.4,182.7v-9.2h1.3v9.2H137.4z
						 M143.9,182.7l-3.8-4.4l0.9-1l4.4,5.4H143.9z M146.8,182.7v-9.2h1.3v8h5v1.1L146.8,182.7L146.8,182.7z M153.2,182.7l4.2-9.2
						h1.3l4.2,9.2h-1.4l-3.7-8.5h0.5l-3.7,8.5H153.2z M155,180.4l0.4-1.1h5.2l0.4,1.1H155z M166.9,182.8c-0.7,0-1.4-0.1-2-0.3
						s-1.1-0.5-1.5-0.8l0.5-1c0.4,0.3,0.8,0.6,1.3,0.8s1.1,0.3,1.7,0.3c0.5,0,1-0.1,1.3-0.2c0.3-0.1,0.6-0.3,0.7-0.5
						c0.2-0.2,0.2-0.5,0.2-0.7c0-0.3-0.1-0.6-0.3-0.8s-0.5-0.3-0.8-0.5c-0.3-0.1-0.7-0.2-1.1-0.3c-0.4-0.1-0.8-0.2-1.2-0.3
						s-0.8-0.3-1.1-0.5s-0.6-0.4-0.8-0.7s-0.3-0.7-0.3-1.2s0.1-0.9,0.4-1.3c0.3-0.4,0.6-0.7,1.2-1c0.5-0.2,1.2-0.4,2-0.4
						c0.5,0,1.1,0.1,1.6,0.2s1,0.3,1.4,0.6l-0.4,1.1c-0.4-0.3-0.8-0.5-1.2-0.6s-0.9-0.2-1.3-0.2c-0.5,0-0.9,0.1-1.3,0.2
						s-0.6,0.3-0.7,0.5c-0.1,0.2-0.2,0.5-0.2,0.7c0,0.3,0.1,0.6,0.3,0.8s0.5,0.3,0.8,0.5c0.3,0.1,0.7,0.2,1.1,0.3
						c0.4,0.1,0.8,0.2,1.2,0.3s0.8,0.3,1.1,0.4c0.3,0.2,0.6,0.4,0.8,0.7s0.3,0.7,0.3,1.2s-0.1,0.9-0.4,1.3c-0.3,0.4-0.6,0.7-1.2,1
						C168.4,182.7,167.7,182.8,166.9,182.8z M178.6,182.7l-4-9.2h1.4l3.7,8.5h-0.8l3.7-8.5h1.3l-4,9.2H178.6z M183.4,182.7l4.2-9.2
						h1.3l4.2,9.2h-1.4l-3.7-8.5h0.5l-3.7,8.5H183.4z M185.1,180.4l0.4-1.1h5.2l0.4,1.1H185.1z M194.4,182.7v-9.2h1.1l6.1,7.5H201
						v-7.5h1.3v9.2h-1.1l-6.1-7.5h0.6v7.5H194.4z M209.7,182.8c-0.5,0-1.1-0.1-1.5-0.3c-0.5-0.2-0.9-0.6-1.2-1l0.8-0.9
						c0.3,0.4,0.5,0.6,0.9,0.8c0.3,0.2,0.7,0.3,1.1,0.3c1.1,0,1.6-0.6,1.6-1.9v-5.2H208v-1.1h4.6v6.2c0,1-0.2,1.8-0.7,2.3
						C211.4,182.5,210.7,182.8,209.7,182.8z M219.1,182.8c-1.2,0-2.2-0.3-2.8-1c-0.7-0.7-1-1.7-1-3v-5.2h1.3v5.2
						c0,1,0.2,1.8,0.7,2.2c0.5,0.5,1.1,0.7,1.9,0.7c0.8,0,1.5-0.2,1.9-0.7c0.5-0.5,0.7-1.2,0.7-2.2v-5.2h1.3v5.2c0,1.3-0.3,2.3-1,3
						C221.3,182.4,220.3,182.8,219.1,182.8z M226.9,177.8h4.7v1.1h-4.7V177.8z M227,182.7h-1.3v-9.2h6.5v1.1H227V182.7z
						 M236.1,182.7l4.2-9.2h1.3l4.2,9.2h-1.4l-3.7-8.5h0.5l-3.7,8.5H236.1z M237.9,180.4l0.4-1.1h5.2l0.4,1.1H237.9z M247.1,182.7
						v-9.2h1.1l6.1,7.5h-0.6v-7.5h1.3v9.2h-1l-6.1-7.5h0.6v7.5H247.1z M257.8,182.7v-9.2h1.1l6.1,7.5h-0.6v-7.5h1.3v9.2h-1.1
						l-6.1-7.5h0.6v7.5H257.8z M269.6,177.5h4.7v1.1h-4.7V177.5z M269.8,181.5h5.4v1.1h-6.7v-9.2h6.5v1.1h-5.2L269.8,181.5
						L269.8,181.5z M278.4,180.5l-0.1-1.6l5.2-5.4h1.5l-4,4.3l-0.7,0.8L278.4,180.5z M277.2,182.7v-9.2h1.3v9.2H277.2z M283.8,182.7
						l-3.8-4.4l0.9-1l4.4,5.4H283.8z M287.9,177.5h4.7v1.1h-4.7V177.5z M288,181.5h5.4v1.1h-6.7v-9.2h6.5v1.1H288V181.5z"/>
					<g>
						
							<ellipse transform="matrix(0.1602 -0.9871 0.9871 0.1602 88.0178 293.8525)" class="st96" cx="216.7" cy="95.2" rx="40.5" ry="40.5"/>
					</g>
					<path class="st97" d="M188.2,160.9c-0.9,0-1.8-0.1-2.7-0.4c-0.9-0.3-1.5-0.7-2-1.1l0.6-1.4c0.5,0.4,1.1,0.7,1.8,1
						s1.5,0.4,2.3,0.4c0.7,0,1.3-0.1,1.7-0.2c0.4-0.2,0.8-0.4,1-0.7s0.3-0.6,0.3-1s-0.1-0.8-0.4-1c-0.3-0.3-0.6-0.5-1.1-0.6
						c-0.4-0.2-0.9-0.3-1.4-0.4c-0.5-0.1-1.1-0.3-1.6-0.4c-0.5-0.2-1-0.4-1.5-0.6c-0.4-0.2-0.8-0.6-1.1-1s-0.4-1-0.4-1.6
						s0.2-1.2,0.5-1.7s0.9-1,1.5-1.3c0.7-0.3,1.6-0.5,2.7-0.5c0.7,0,1.4,0.1,2.1,0.3s1.3,0.5,1.8,0.8l-0.6,1.4
						c-0.5-0.4-1.1-0.6-1.7-0.8c-0.6-0.2-1.1-0.2-1.7-0.2c-0.7,0-1.3,0.1-1.7,0.3s-0.8,0.4-1,0.7s-0.3,0.6-0.3,1s0.1,0.8,0.4,1
						c0.3,0.3,0.6,0.5,1.1,0.6c0.4,0.2,0.9,0.3,1.5,0.4c0.5,0.1,1.1,0.3,1.6,0.4c0.5,0.2,1,0.4,1.5,0.6c0.4,0.2,0.8,0.6,1.1,1
						s0.4,0.9,0.4,1.6c0,0.6-0.2,1.2-0.5,1.7s-0.9,1-1.6,1.3S189.3,160.9,188.2,160.9z M199.2,160.9c-0.9,0-1.8-0.2-2.5-0.6
						c-0.7-0.4-1.3-1-1.7-1.7s-0.6-1.5-0.6-2.5c0-0.9,0.2-1.7,0.6-2.5s1-1.3,1.7-1.7s1.6-0.6,2.5-0.6s1.7,0.2,2.5,0.6
						c0.7,0.4,1.3,1,1.7,1.7s0.6,1.5,0.6,2.5c0,0.9-0.2,1.7-0.6,2.5c-0.4,0.7-1,1.3-1.7,1.7C201,160.7,200.1,160.9,199.2,160.9z
						 M199.2,159.4c0.6,0,1.1-0.1,1.6-0.4c0.5-0.3,0.9-0.6,1.1-1.1c0.3-0.5,0.4-1.1,0.4-1.7c0-0.7-0.1-1.2-0.4-1.7
						c-0.3-0.5-0.6-0.9-1.1-1.1c-0.5-0.3-1-0.4-1.6-0.4s-1.1,0.1-1.6,0.4c-0.5,0.3-0.8,0.6-1.1,1.1s-0.4,1.1-0.4,1.7
						c0,0.7,0.1,1.2,0.4,1.7c0.3,0.5,0.7,0.9,1.1,1.1C198.1,159.3,198.6,159.4,199.2,159.4z M206.6,160.8v-10.1
						c0-0.9,0.3-1.6,0.8-2.2c0.5-0.5,1.3-0.8,2.3-0.8c0.4,0,0.7,0,1,0.1s0.6,0.2,0.9,0.4l-0.5,1.3c-0.2-0.1-0.4-0.2-0.6-0.3
						c-0.2-0.1-0.5-0.1-0.7-0.1c-0.5,0-0.9,0.1-1.1,0.4c-0.3,0.3-0.4,0.7-0.4,1.2v1.2v0.8v8.1L206.6,160.8L206.6,160.8z M205,152.9
						v-1.4h5.9v1.4H205z M212.5,160.8v-9.3h1.7v9.3H212.5z M213.4,149.7c-0.3,0-0.6-0.1-0.8-0.3s-0.3-0.5-0.3-0.8s0.1-0.6,0.3-0.8
						s0.5-0.3,0.8-0.3s0.6,0.1,0.8,0.3s0.3,0.4,0.3,0.8c0,0.3-0.1,0.6-0.3,0.8C214,149.6,213.7,149.7,213.4,149.7z M221.5,160.9
						c-1,0-1.9-0.2-2.6-0.6c-0.7-0.4-1.3-1-1.8-1.7c-0.4-0.7-0.6-1.5-0.6-2.5c0-0.9,0.2-1.7,0.6-2.5c0.4-0.7,1-1.3,1.7-1.7
						s1.5-0.6,2.4-0.6s1.7,0.2,2.4,0.6c0.7,0.4,1.2,1,1.6,1.7c0.4,0.7,0.6,1.5,0.6,2.5c0,0.1,0,0.2,0,0.2c0,0.1,0,0.2,0,0.3h-7.9
						v-1.2h7l-0.7,0.4c0-0.6-0.1-1.1-0.4-1.6c-0.3-0.5-0.6-0.8-1.1-1.1c-0.4-0.3-1-0.4-1.6-0.4s-1.1,0.1-1.6,0.4
						c-0.5,0.3-0.8,0.6-1.1,1.1s-0.4,1-0.4,1.6v0.3c0,0.6,0.1,1.2,0.4,1.7c0.3,0.5,0.7,0.9,1.2,1.1c0.5,0.3,1.1,0.4,1.8,0.4
						c0.5,0,1-0.1,1.5-0.3s0.9-0.5,1.2-0.8l0.9,1.1c-0.4,0.5-0.9,0.9-1.6,1.1C223,160.8,222.3,160.9,221.5,160.9z"/>
					<g>
						
							<linearGradient id="SVGID_00000083792676412323478250000001399624853124253106_" gradientUnits="userSpaceOnUse" x1="331.6" y1="-98.25" x2="495.6" y2="-98.25" gradientTransform="matrix(1 0 0 1 -291 521)">
							<stop  offset="0.5021" style="stop-color:#E88FFD"/>
							<stop  offset="1" style="stop-color:#868BFF"/>
						</linearGradient>
						<path style="fill:url(#SVGID_00000083792676412323478250000001399624853124253106_);" d="M51.5,318.3h142.2
							c6,0,10.9,4.9,10.9,10.9v187.1c0,6-4.9,10.9-10.9,10.9H51.5c-6,0-10.9-4.9-10.9-10.9v-187C40.6,323.2,45.5,318.3,51.5,318.3z"
							/>
					</g>
					<g>
						
							<linearGradient id="SVGID_00000136386892931771502760000013146288960543207082_" gradientUnits="userSpaceOnUse" x1="331.6" y1="133.1" x2="495.6" y2="133.1" gradientTransform="matrix(1 0 0 1 -291 521)">
							<stop  offset="0.4989" style="stop-color:#FFE200"/>
							<stop  offset="1" style="stop-color:#FDB651"/>
						</linearGradient>
						<path style="fill:url(#SVGID_00000136386892931771502760000013146288960543207082_);" d="M51.5,550.2h142.2
							c6,0,10.9,4.9,10.9,10.9v186c0,6-4.9,10.9-10.9,10.9H51.5c-6,0-10.9-4.9-10.9-10.9v-186C40.6,555.1,45.5,550.2,51.5,550.2z"/>
					</g>
					<g>
						
							<linearGradient id="SVGID_00000012449799008446091820000011762765339321697460_" gradientUnits="userSpaceOnUse" x1="517.5985" y1="-98.25" x2="680.5" y2="-98.25" gradientTransform="matrix(1 0 0 1 -291 521)">
							<stop  offset="0.4968" style="stop-color:#48CEE0"/>
							<stop  offset="1" style="stop-color:#529FFF"/>
						</linearGradient>
						<path style="fill:url(#SVGID_00000012449799008446091820000011762765339321697460_);" d="M237.5,318.3h141.1
							c6,0,10.9,4.9,10.9,10.9v187.1c0,6-4.9,10.9-10.9,10.9H237.5c-6,0-10.9-4.9-10.9-10.9v-187
							C226.5,323.2,231.4,318.3,237.5,318.3z"/>
					</g>
					<g>
						
							<linearGradient id="SVGID_00000100351037613459913670000017398035494177799593_" gradientUnits="userSpaceOnUse" x1="517.5985" y1="133.1" x2="680.5" y2="133.1" gradientTransform="matrix(1 0 0 1 -291 521)">
							<stop  offset="0.5019" style="stop-color:#FF7C8E"/>
							<stop  offset="1" style="stop-color:#FE536B"/>
						</linearGradient>
						<path style="fill:url(#SVGID_00000100351037613459913670000017398035494177799593_);" d="M237.5,550.2h141.1
							c6,0,10.9,4.9,10.9,10.9v186c0,6-4.9,10.9-10.9,10.9H237.5c-6,0-10.9-4.9-10.9-10.9v-186C226.5,555.1,231.4,550.2,237.5,550.2
							z"/>
					</g>
					<path class="st5" d="M98.4,502.3c-1.2,0-2.2-0.2-3.2-0.6c-1-0.4-1.8-0.9-2.6-1.6c-0.7-0.7-1.3-1.5-1.7-2.5
						c-0.4-0.9-0.6-2-0.6-3.1s0.2-2.2,0.6-3.1c0.4-0.9,1-1.8,1.7-2.5c0.7-0.7,1.6-1.3,2.6-1.6c1-0.4,2.1-0.6,3.2-0.6
						c1.2,0,2.3,0.2,3.3,0.6c1,0.4,1.9,1,2.6,1.8l-1.4,1.4c-0.6-0.6-1.2-1.1-2-1.4c-0.7-0.3-1.5-0.5-2.3-0.5c-0.9,0-1.7,0.1-2.4,0.4
						c-0.7,0.3-1.4,0.7-1.9,1.2c-0.5,0.5-1,1.2-1.3,1.9c-0.3,0.7-0.4,1.5-0.4,2.3s0.1,1.6,0.4,2.4c0.3,0.7,0.7,1.3,1.3,1.9
						c0.5,0.5,1.2,0.9,1.9,1.2c0.7,0.3,1.5,0.4,2.4,0.4c0.8,0,1.6-0.1,2.3-0.4c0.7-0.3,1.4-0.8,2-1.4l1.4,1.4
						c-0.7,0.8-1.6,1.4-2.6,1.8C100.7,502.1,99.6,502.3,98.4,502.3z M107,502.1v-11.6h2.1v11.6H107z M108.1,488.3
						c-0.4,0-0.8-0.1-1-0.4c-0.3-0.3-0.4-0.6-0.4-1c0-0.4,0.1-0.7,0.4-1c0.3-0.3,0.6-0.4,1-0.4c0.4,0,0.7,0.1,1,0.4
						c0.3,0.2,0.4,0.6,0.4,0.9c0,0.4-0.1,0.7-0.4,1C108.8,488.1,108.5,488.3,108.1,488.3z M111.6,506.5c-0.5,0-0.9-0.1-1.4-0.2
						c-0.5-0.1-0.8-0.3-1.1-0.5l0.7-1.6c0.4,0.4,1,0.5,1.7,0.5c0.6,0,1-0.2,1.3-0.5c0.3-0.3,0.5-0.8,0.5-1.5v-12.2h2.1v12.1
						c0,1.2-0.3,2.1-1,2.8C113.7,506.1,112.8,506.5,111.6,506.5z M114.3,488.3c-0.4,0-0.8-0.1-1-0.4c-0.3-0.3-0.4-0.6-0.4-1
						c0-0.4,0.1-0.7,0.4-1c0.3-0.3,0.6-0.4,1-0.4c0.4,0,0.7,0.1,1,0.4c0.3,0.2,0.4,0.6,0.4,0.9c0,0.4-0.1,0.7-0.4,1
						C115.1,488.1,114.7,488.3,114.3,488.3z M119.7,502.1v-12.6c0-1.1,0.3-2,1-2.7c0.7-0.7,1.6-1,2.8-1c0.5,0,0.9,0.1,1.3,0.2
						c0.4,0.1,0.8,0.3,1.1,0.5l-0.6,1.6c-0.2-0.2-0.5-0.3-0.7-0.4c-0.3-0.1-0.6-0.2-0.9-0.2c-0.6,0-1.1,0.2-1.4,0.5
						c-0.3,0.3-0.5,0.8-0.5,1.5v1.6l0,1v10.1H119.7z M117.7,492.2v-1.7h7.4v1.7H117.7z M132,502.2c-1.2,0-2.3-0.3-3.3-0.8
						c-0.9-0.5-1.7-1.2-2.2-2.1c-0.5-0.9-0.8-1.9-0.8-3.1s0.2-2.2,0.7-3.1c0.5-0.9,1.2-1.6,2.1-2.1c0.9-0.5,1.9-0.8,3-0.8
						c1.1,0,2.1,0.2,3,0.7c0.9,0.5,1.5,1.2,2,2.1c0.5,0.9,0.7,1.9,0.7,3.1c0,0.1,0,0.2,0,0.3c0,0.1,0,0.2,0,0.3h-9.9v-1.5h8.8
						l-0.9,0.5c0-0.7-0.1-1.4-0.5-2c-0.3-0.6-0.8-1-1.3-1.4c-0.6-0.3-1.2-0.5-1.9-0.5c-0.7,0-1.4,0.2-1.9,0.5
						c-0.6,0.3-1,0.8-1.3,1.4c-0.3,0.6-0.5,1.3-0.5,2v0.4c0,0.8,0.2,1.5,0.5,2.1c0.4,0.6,0.9,1.1,1.5,1.4c0.6,0.3,1.4,0.5,2.2,0.5
						c0.7,0,1.3-0.1,1.9-0.4c0.6-0.2,1.1-0.6,1.5-1.1l1.2,1.4c-0.5,0.6-1.2,1.1-2,1.4C133.9,502.1,133,502.2,132,502.2z
						 M140.3,502.1v-11.6h2v3.2l-0.2-0.8c0.3-0.8,0.9-1.4,1.6-1.8c0.8-0.4,1.7-0.6,2.8-0.6v2c-0.1,0-0.2,0-0.3,0c-0.1,0-0.1,0-0.2,0
						c-1.1,0-2,0.3-2.7,1s-1,1.6-1,2.9v5.8H140.3z M152.6,502.2c-1,0-1.9-0.1-2.8-0.4c-0.9-0.3-1.5-0.6-2-1l0.9-1.7
						c0.5,0.3,1.1,0.6,1.8,0.9c0.7,0.2,1.5,0.4,2.2,0.4c1,0,1.7-0.1,2.1-0.4c0.4-0.3,0.7-0.7,0.7-1.2c0-0.4-0.1-0.6-0.4-0.9
						c-0.3-0.2-0.6-0.4-1.1-0.5c-0.4-0.1-0.9-0.2-1.4-0.3c-0.5-0.1-1.1-0.2-1.6-0.3c-0.5-0.1-1-0.3-1.4-0.5
						c-0.4-0.2-0.8-0.5-1.1-0.9c-0.3-0.4-0.4-0.9-0.4-1.6c0-0.7,0.2-1.3,0.6-1.8c0.4-0.5,0.9-0.9,1.7-1.2c0.7-0.3,1.6-0.4,2.6-0.4
						c0.8,0,1.5,0.1,2.3,0.3c0.8,0.2,1.4,0.4,1.9,0.8l-0.9,1.7c-0.5-0.4-1.1-0.6-1.6-0.7s-1.1-0.2-1.7-0.2c-0.9,0-1.6,0.2-2.1,0.5
						c-0.5,0.3-0.7,0.7-0.7,1.1c0,0.4,0.1,0.7,0.4,0.9c0.3,0.2,0.6,0.4,1.1,0.5c0.4,0.1,0.9,0.2,1.4,0.3c0.5,0.1,1.1,0.2,1.6,0.3
						c0.5,0.1,1,0.3,1.4,0.5c0.4,0.2,0.8,0.5,1.1,0.9c0.3,0.4,0.4,0.9,0.4,1.6c0,0.7-0.2,1.3-0.6,1.8c-0.4,0.5-1,0.9-1.7,1.2
						C154.5,502.1,153.6,502.2,152.6,502.2z"/>
					<path class="st7" d="M70.5,502.1v-15.3h1.8l10.1,12.6h-0.9v-12.6h2.2v15.3h-1.8l-10.1-12.6h0.9v12.6H70.5z M92.8,502.2
						c-1,0-1.9-0.2-2.6-0.5c-0.7-0.4-1.3-0.9-1.8-1.7c-0.4-0.8-0.6-1.7-0.6-2.8v-6.7h2.1v6.4c0,1.1,0.3,2,0.8,2.6
						c0.6,0.6,1.3,0.9,2.3,0.9c0.7,0,1.4-0.1,1.9-0.4s1-0.7,1.2-1.3c0.3-0.6,0.4-1.3,0.4-2.1v-6h2.1v11.6h-2V499l0.3,0.8
						c-0.4,0.8-0.9,1.4-1.7,1.8C94.6,502,93.8,502.2,92.8,502.2z M117.3,490.4c0.9,0,1.8,0.2,2.5,0.5c0.7,0.4,1.3,0.9,1.7,1.7
						c0.4,0.7,0.6,1.7,0.6,2.8v6.7H120v-6.4c0-1.1-0.3-2-0.8-2.5c-0.5-0.6-1.3-0.9-2.2-0.9c-0.7,0-1.3,0.1-1.8,0.4s-0.9,0.7-1.2,1.3
						c-0.3,0.6-0.4,1.3-0.4,2.1v6h-2.1v-6.4c0-1.1-0.3-2-0.8-2.5c-0.5-0.6-1.2-0.9-2.2-0.9c-0.7,0-1.3,0.1-1.8,0.4s-0.9,0.7-1.2,1.3
						c-0.3,0.6-0.4,1.3-0.4,2.1v6H103v-11.6h2v3.1l-0.3-0.8c0.4-0.8,0.9-1.3,1.7-1.8c0.8-0.4,1.6-0.6,2.6-0.6c1.1,0,2.1,0.3,2.9,0.8
						s1.3,1.4,1.6,2.5l-0.9-0.4c0.4-0.9,1-1.6,1.8-2.1C115.1,490.7,116.1,490.4,117.3,490.4z M140.4,490.4c0.9,0,1.8,0.2,2.5,0.5
						c0.7,0.4,1.3,0.9,1.7,1.7c0.4,0.7,0.6,1.7,0.6,2.8v6.7H143v-6.4c0-1.1-0.3-2-0.8-2.5c-0.5-0.6-1.3-0.9-2.2-0.9
						c-0.7,0-1.3,0.1-1.8,0.4s-0.9,0.7-1.2,1.3c-0.3,0.6-0.4,1.3-0.4,2.1v6h-2.1v-6.4c0-1.1-0.3-2-0.8-2.5c-0.5-0.6-1.2-0.9-2.2-0.9
						c-0.7,0-1.3,0.1-1.8,0.4s-0.9,0.7-1.2,1.3c-0.3,0.6-0.4,1.3-0.4,2.1v6H126v-11.6h2v3.1l-0.3-0.8c0.4-0.8,0.9-1.3,1.7-1.8
						c0.8-0.4,1.6-0.6,2.6-0.6c1.1,0,2.1,0.3,2.9,0.8c0.8,0.5,1.3,1.4,1.6,2.5l-0.9-0.4c0.4-0.9,1-1.6,1.8-2.1
						C138.2,490.7,139.2,490.4,140.4,490.4z M154.2,502.2c-1.2,0-2.3-0.3-3.3-0.8c-0.9-0.5-1.7-1.2-2.2-2.1s-0.8-1.9-0.8-3.1
						s0.2-2.2,0.7-3.1s1.2-1.6,2.1-2.1c0.9-0.5,1.9-0.8,3-0.8s2.1,0.2,3,0.7s1.5,1.2,2,2.1s0.7,1.9,0.7,3.1c0,0.1,0,0.2,0,0.3
						c0,0.1,0,0.2,0,0.3h-9.9v-1.5h8.8l-0.9,0.5c0-0.7-0.1-1.4-0.5-2c-0.3-0.6-0.8-1-1.3-1.4c-0.6-0.3-1.2-0.5-1.9-0.5
						s-1.4,0.2-1.9,0.5c-0.6,0.3-1,0.8-1.3,1.4s-0.5,1.3-0.5,2v0.4c0,0.8,0.2,1.5,0.5,2.1c0.4,0.6,0.9,1.1,1.5,1.4s1.4,0.5,2.2,0.5
						c0.7,0,1.3-0.1,1.9-0.4c0.6-0.2,1.1-0.6,1.5-1.1l1.2,1.4c-0.5,0.6-1.2,1.1-2,1.4C156,502.1,155.1,502.2,154.2,502.2z
						 M162.4,502.1v-11.6h2v3.2l-0.2-0.8c0.3-0.8,0.9-1.4,1.6-1.8c0.8-0.4,1.7-0.6,2.8-0.6v2c-0.1,0-0.2,0-0.3,0s-0.1,0-0.2,0
						c-1.1,0-2,0.3-2.7,1s-1,1.6-1,2.9v5.8h-2V502.1z M174.7,502.2c-1,0-1.9-0.1-2.8-0.4c-0.9-0.3-1.5-0.6-2-1l0.9-1.7
						c0.5,0.3,1.1,0.6,1.8,0.9c0.7,0.2,1.5,0.4,2.2,0.4c1,0,1.7-0.1,2.1-0.4c0.4-0.3,0.7-0.7,0.7-1.2c0-0.4-0.1-0.6-0.4-0.9
						c-0.3-0.2-0.6-0.4-1.1-0.5c-0.4-0.1-0.9-0.2-1.4-0.3c-0.5-0.1-1.1-0.2-1.6-0.3c-0.5-0.1-1-0.3-1.4-0.5s-0.8-0.5-1.1-0.9
						s-0.4-0.9-0.4-1.6s0.2-1.3,0.6-1.8c0.4-0.5,0.9-0.9,1.7-1.2c0.7-0.3,1.6-0.4,2.6-0.4c0.8,0,1.5,0.1,2.3,0.3
						c0.8,0.2,1.4,0.4,1.9,0.8l-0.9,1.7c-0.5-0.4-1.1-0.6-1.6-0.7c-0.6-0.1-1.1-0.2-1.7-0.2c-0.9,0-1.6,0.2-2.1,0.5
						s-0.7,0.7-0.7,1.1s0.1,0.7,0.4,0.9c0.3,0.2,0.6,0.4,1.1,0.5c0.4,0.1,0.9,0.2,1.4,0.3c0.5,0.1,1.1,0.2,1.6,0.3
						c0.5,0.1,1,0.3,1.4,0.5s0.8,0.5,1.1,0.9s0.4,0.9,0.4,1.6s-0.2,1.3-0.6,1.8c-0.4,0.5-1,0.9-1.7,1.2
						C176.6,502.1,175.7,502.2,174.7,502.2z"/>
					<path class="st5" d="M275.1,736.2v-15.3h2.2v13.4h8.3v1.9L275.1,736.2L275.1,736.2z M292.8,736.3c-1.2,0-2.3-0.3-3.3-0.8
						c-0.9-0.5-1.7-1.2-2.2-2.1c-0.5-0.9-0.8-1.9-0.8-3.1c0-1.2,0.2-2.2,0.7-3.1c0.5-0.9,1.2-1.6,2.1-2.1s1.9-0.8,3-0.8
						s2.1,0.2,3,0.7s1.5,1.2,2,2.1c0.5,0.9,0.7,1.9,0.7,3.1c0,0.1,0,0.2,0,0.3s0,0.2,0,0.3h-9.9v-1.5h8.8l-0.9,0.5
						c0-0.7-0.1-1.4-0.5-2c-0.3-0.6-0.8-1-1.3-1.4c-0.6-0.3-1.2-0.5-1.9-0.5c-0.7,0-1.4,0.2-1.9,0.5c-0.6,0.3-1,0.8-1.3,1.4
						c-0.3,0.6-0.5,1.3-0.5,2v0.4c0,0.8,0.2,1.5,0.5,2.1c0.4,0.6,0.9,1.1,1.5,1.4c0.6,0.3,1.4,0.5,2.2,0.5c0.7,0,1.3-0.1,1.9-0.4
						c0.6-0.2,1.1-0.6,1.5-1.1l1.2,1.4c-0.5,0.6-1.2,1.1-2,1.4C294.6,736.2,293.8,736.3,292.8,736.3z M305,736.3
						c-1.2,0-2.1-0.3-2.7-0.9c-0.6-0.6-1-1.5-1-2.7v-10.6h2.1v10.5c0,0.6,0.2,1.1,0.5,1.4c0.3,0.3,0.8,0.5,1.4,0.5
						c0.7,0,1.2-0.2,1.6-0.5l0.7,1.5c-0.3,0.3-0.7,0.5-1.2,0.6C306,736.3,305.5,736.3,305,736.3z M299.4,726.3v-1.7h7.4v1.7H299.4z
						 M313.8,736.3c-1.2,0-2.1-0.3-2.7-0.9c-0.6-0.6-1-1.5-1-2.7v-10.6h2.1v10.5c0,0.6,0.2,1.1,0.5,1.4c0.3,0.3,0.8,0.5,1.4,0.5
						c0.7,0,1.2-0.2,1.6-0.5l0.7,1.5c-0.3,0.3-0.7,0.5-1.2,0.6C314.7,736.3,314.3,736.3,313.8,736.3z M308.2,726.3v-1.7h7.4v1.7
						H308.2z M323.7,736.3c-1.2,0-2.3-0.3-3.3-0.8c-0.9-0.5-1.7-1.2-2.2-2.1c-0.5-0.9-0.8-1.9-0.8-3.1c0-1.2,0.2-2.2,0.7-3.1
						c0.5-0.9,1.2-1.6,2.1-2.1s1.9-0.8,3-0.8s2.1,0.2,3,0.7s1.5,1.2,2,2.1c0.5,0.9,0.7,1.9,0.7,3.1c0,0.1,0,0.2,0,0.3s0,0.2,0,0.3
						H319v-1.5h8.8l-0.9,0.5c0-0.7-0.1-1.4-0.5-2c-0.3-0.6-0.8-1-1.3-1.4c-0.6-0.3-1.2-0.5-1.9-0.5c-0.7,0-1.4,0.2-1.9,0.5
						c-0.6,0.3-1,0.8-1.3,1.4c-0.3,0.6-0.5,1.3-0.5,2v0.4c0,0.8,0.2,1.5,0.5,2.1c0.4,0.6,0.9,1.1,1.5,1.4c0.6,0.3,1.4,0.5,2.2,0.5
						c0.7,0,1.3-0.1,1.9-0.4c0.6-0.2,1.1-0.6,1.5-1.1l1.2,1.4c-0.5,0.6-1.2,1.1-2,1.4C325.5,736.2,324.6,736.3,323.7,736.3z
						 M331.9,736.2v-11.6h2v3.2l-0.2-0.8c0.3-0.8,0.9-1.4,1.6-1.8c0.8-0.4,1.7-0.6,2.8-0.6v2c-0.1,0-0.2,0-0.3,0c-0.1,0-0.1,0-0.2,0
						c-1.1,0-2,0.3-2.7,1s-1,1.6-1,2.9v5.8h-2V736.2z M344.2,736.3c-1,0-1.9-0.1-2.8-0.4c-0.9-0.3-1.5-0.6-2-1l0.9-1.7
						c0.5,0.3,1.1,0.6,1.8,0.9c0.7,0.2,1.5,0.4,2.2,0.4c1,0,1.7-0.1,2.1-0.4c0.4-0.3,0.7-0.7,0.7-1.2c0-0.4-0.1-0.6-0.4-0.9
						c-0.3-0.2-0.6-0.4-1.1-0.5c-0.4-0.1-0.9-0.2-1.4-0.3s-1.1-0.2-1.6-0.3s-1-0.3-1.4-0.5s-0.8-0.5-1.1-0.9
						c-0.3-0.4-0.4-0.9-0.4-1.6c0-0.7,0.2-1.3,0.6-1.8s0.9-0.9,1.7-1.2c0.7-0.3,1.6-0.4,2.6-0.4c0.8,0,1.5,0.1,2.3,0.3
						s1.4,0.4,1.9,0.8l-0.9,1.7c-0.5-0.4-1.1-0.6-1.6-0.7c-0.6-0.1-1.1-0.2-1.7-0.2c-0.9,0-1.6,0.2-2.1,0.5s-0.7,0.7-0.7,1.1
						c0,0.4,0.1,0.7,0.4,0.9s0.6,0.4,1.1,0.5c0.4,0.1,0.9,0.2,1.4,0.3s1.1,0.2,1.6,0.3s1,0.3,1.4,0.5s0.8,0.5,1.1,0.9
						c0.3,0.4,0.4,0.9,0.4,1.6c0,0.7-0.2,1.3-0.6,1.8s-1,0.9-1.7,1.2C346.1,736.2,345.2,736.3,344.2,736.3z"/>
					<path class="st5" d="M82.3,729.6v-13.4H77v-1.9h12.7v1.9h-5.3v13.4H82.3z M95.8,729.8c-1.2,0-2.3-0.3-3.3-0.8
						c-0.9-0.5-1.7-1.2-2.2-2.1c-0.5-0.9-0.8-1.9-0.8-3.1c0-1.2,0.2-2.2,0.7-3.1c0.5-0.9,1.2-1.6,2.1-2.1s1.9-0.8,3-0.8
						s2.1,0.2,3,0.7s1.5,1.2,2,2.1c0.5,0.9,0.7,1.9,0.7,3.1c0,0.1,0,0.2,0,0.3s0,0.2,0,0.3h-9.9V723h8.8l-0.9,0.5
						c0-0.7-0.1-1.4-0.5-2c-0.3-0.6-0.8-1-1.3-1.4c-0.6-0.3-1.2-0.5-1.9-0.5c-0.7,0-1.4,0.2-1.9,0.5c-0.6,0.3-1,0.8-1.3,1.4
						c-0.3,0.6-0.5,1.3-0.5,2v0.4c0,0.8,0.2,1.5,0.5,2.1c0.4,0.6,0.9,1.1,1.5,1.4c0.6,0.3,1.4,0.5,2.2,0.5c0.7,0,1.3-0.1,1.9-0.4
						c0.6-0.2,1.1-0.6,1.5-1.1l1.2,1.4c-0.5,0.6-1.2,1.1-2,1.4C97.6,729.6,96.7,729.8,95.8,729.8z M105.7,726.8v-2.7l6.7-6.1h2.5
						l-5.1,5l-1.1,1L105.7,726.8z M104,729.6v-16.2h2.1v16.2H104z M112.8,729.6l-4.6-5.6l1.4-1.7l5.8,7.3H112.8z M122.1,729.8
						c-1.2,0-2.3-0.3-3.3-0.8c-0.9-0.5-1.7-1.2-2.2-2.1c-0.5-0.9-0.8-1.9-0.8-3.1c0-1.2,0.2-2.2,0.7-3.1c0.5-0.9,1.2-1.6,2.1-2.1
						s1.9-0.8,3-0.8s2.1,0.2,3,0.7s1.5,1.2,2,2.1c0.5,0.9,0.7,1.9,0.7,3.1c0,0.1,0,0.2,0,0.3s0,0.2,0,0.3h-9.9V723h8.8l-0.9,0.5
						c0-0.7-0.1-1.4-0.5-2c-0.3-0.6-0.8-1-1.3-1.4c-0.6-0.3-1.2-0.5-1.9-0.5c-0.7,0-1.4,0.2-1.9,0.5c-0.6,0.3-1,0.8-1.3,1.4
						c-0.3,0.6-0.5,1.3-0.5,2v0.4c0,0.8,0.2,1.5,0.5,2.1c0.4,0.6,0.9,1.1,1.5,1.4c0.6,0.3,1.4,0.5,2.2,0.5c0.7,0,1.3-0.1,1.9-0.4
						c0.6-0.2,1.1-0.6,1.5-1.1l1.2,1.4c-0.5,0.6-1.2,1.1-2,1.4C124,729.6,123.1,729.8,122.1,729.8z M136.6,717.9
						c0.9,0,1.8,0.2,2.5,0.5c0.7,0.4,1.3,0.9,1.7,1.7c0.4,0.7,0.6,1.7,0.6,2.8v6.7h-2.1v-6.4c0-1.1-0.3-2-0.8-2.5
						c-0.5-0.6-1.3-0.9-2.3-0.9c-0.7,0-1.4,0.1-1.9,0.4c-0.6,0.3-1,0.7-1.3,1.3s-0.4,1.3-0.4,2.1v6h-2.1V718h2v3.1l-0.3-0.8
						c0.4-0.8,1-1.3,1.8-1.8C134.6,718.1,135.5,717.9,136.6,717.9z M150.4,729.8c-1.2,0-2.3-0.3-3.3-0.8c-0.9-0.5-1.7-1.2-2.2-2.1
						c-0.5-0.9-0.8-1.9-0.8-3.1c0-1.2,0.2-2.2,0.7-3.1c0.5-0.9,1.2-1.6,2.1-2.1c0.9-0.5,1.9-0.8,3-0.8s2.1,0.2,3,0.7s1.5,1.2,2,2.1
						c0.5,0.9,0.7,1.9,0.7,3.1c0,0.1,0,0.2,0,0.3s0,0.2,0,0.3h-9.9V723h8.8l-0.9,0.5c0-0.7-0.1-1.4-0.5-2c-0.3-0.6-0.8-1-1.3-1.4
						c-0.6-0.3-1.2-0.5-1.9-0.5s-1.4,0.2-1.9,0.5c-0.6,0.3-1,0.8-1.3,1.4c-0.3,0.6-0.5,1.3-0.5,2v0.4c0,0.8,0.2,1.5,0.5,2.1
						c0.4,0.6,0.9,1.1,1.5,1.4c0.6,0.3,1.4,0.5,2.2,0.5c0.7,0,1.3-0.1,1.9-0.4c0.6-0.2,1.1-0.6,1.5-1.1l1.2,1.4
						c-0.5,0.6-1.2,1.1-2,1.4C152.3,729.6,151.4,729.8,150.4,729.8z M164.8,717.9c0.9,0,1.8,0.2,2.5,0.5c0.7,0.4,1.3,0.9,1.7,1.7
						s0.6,1.7,0.6,2.8v6.7h-2.1v-6.4c0-1.1-0.3-2-0.8-2.5c-0.5-0.6-1.3-0.9-2.3-0.9c-0.7,0-1.4,0.1-1.9,0.4c-0.6,0.3-1,0.7-1.3,1.3
						s-0.4,1.3-0.4,2.1v6h-2.1V718h2v3.1l-0.3-0.8c0.4-0.8,1-1.3,1.8-1.8C162.9,718.1,163.8,717.9,164.8,717.9z"/>
					<path class="st5" d="M272.7,502.1l-6.7-15.3h2.4l6.2,14.1h-1.4l6.2-14.1h2.2l-6.7,15.3H272.7z M287.3,502.2
						c-1.2,0-2.2-0.3-3.1-0.8s-1.6-1.2-2.1-2.1s-0.8-1.9-0.8-3.1s0.3-2.2,0.8-3.1s1.2-1.6,2.1-2.1s1.9-0.8,3.1-0.8s2.2,0.3,3.1,0.8
						s1.6,1.2,2.1,2.1s0.8,1.9,0.8,3.1s-0.3,2.2-0.8,3.1s-1.2,1.6-2.1,2.1C289.5,502,288.5,502.2,287.3,502.2z M287.3,500.4
						c0.7,0,1.4-0.2,2-0.5s1.1-0.8,1.4-1.4s0.5-1.3,0.5-2.2c0-0.8-0.2-1.5-0.5-2.1s-0.8-1.1-1.4-1.4s-1.2-0.5-2-0.5s-1.4,0.2-2,0.5
						s-1.1,0.8-1.4,1.4c-0.4,0.6-0.5,1.3-0.5,2.1c0,0.8,0.2,1.5,0.5,2.2c0.4,0.6,0.8,1.1,1.4,1.4
						C285.9,500.2,286.6,500.4,287.3,500.4z M296.2,502.1v-11.6h2v3.2l-0.2-0.8c0.3-0.8,0.9-1.4,1.6-1.8c0.8-0.4,1.7-0.6,2.8-0.6v2
						c-0.1,0-0.2,0-0.3,0c-0.1,0-0.1,0-0.2,0c-1.1,0-2,0.3-2.7,1s-1,1.6-1,2.9v5.8h-2V502.1z M319.6,490.4c0.9,0,1.8,0.2,2.5,0.5
						c0.7,0.4,1.3,0.9,1.7,1.7c0.4,0.7,0.6,1.7,0.6,2.8v6.7h-2.1v-6.4c0-1.1-0.3-2-0.8-2.5c-0.5-0.6-1.3-0.9-2.2-0.9
						c-0.7,0-1.3,0.1-1.8,0.4s-0.9,0.7-1.2,1.3c-0.3,0.6-0.4,1.3-0.4,2.1v6h-2.1v-6.4c0-1.1-0.3-2-0.8-2.5c-0.5-0.6-1.2-0.9-2.2-0.9
						c-0.7,0-1.3,0.1-1.8,0.4s-0.9,0.7-1.2,1.3c-0.3,0.6-0.4,1.3-0.4,2.1v6h-2.1v-11.6h2v3.1l-0.3-0.8c0.4-0.8,0.9-1.3,1.7-1.8
						c0.8-0.4,1.6-0.6,2.6-0.6c1.1,0,2.1,0.3,2.9,0.8s1.3,1.4,1.6,2.5l-0.9-0.4c0.4-0.9,1-1.6,1.8-2.1
						C317.4,490.7,318.4,490.4,319.6,490.4z M333.3,502.2c-1.2,0-2.3-0.3-3.3-0.8c-0.9-0.5-1.7-1.2-2.2-2.1s-0.8-1.9-0.8-3.1
						s0.2-2.2,0.7-3.1s1.2-1.6,2.1-2.1s1.9-0.8,3-0.8s2.1,0.2,3,0.7s1.5,1.2,2,2.1s0.7,1.9,0.7,3.1c0,0.1,0,0.2,0,0.3
						c0,0.1,0,0.2,0,0.3h-9.9v-1.5h8.8l-0.9,0.5c0-0.7-0.1-1.4-0.5-2c-0.3-0.6-0.8-1-1.3-1.4c-0.6-0.3-1.2-0.5-1.9-0.5
						c-0.7,0-1.4,0.2-1.9,0.5c-0.6,0.3-1,0.8-1.3,1.4s-0.5,1.3-0.5,2v0.4c0,0.8,0.2,1.5,0.5,2.1c0.4,0.6,0.9,1.1,1.5,1.4
						s1.4,0.5,2.2,0.5c0.7,0,1.3-0.1,1.9-0.4c0.6-0.2,1.1-0.6,1.5-1.1l1.2,1.4c-0.5,0.6-1.2,1.1-2,1.4
						C335.2,502.1,334.3,502.2,333.3,502.2z M347.8,490.4c0.9,0,1.8,0.2,2.5,0.5c0.7,0.4,1.3,0.9,1.7,1.7s0.6,1.7,0.6,2.8v6.7h-2.1
						v-6.4c0-1.1-0.3-2-0.8-2.5c-0.5-0.6-1.3-0.9-2.3-0.9c-0.7,0-1.4,0.1-1.9,0.4c-0.6,0.3-1,0.7-1.3,1.3c-0.3,0.6-0.4,1.3-0.4,2.1
						v6h-2.1v-11.6h2v3.1l-0.3-0.8c0.4-0.8,1-1.3,1.8-1.8C345.8,490.6,346.7,490.4,347.8,490.4z"/>
					<g>
						<g>
							<defs>
								<rect id="SVGID_00000005248286085977193520000011972773438967970700_" x="75.6" y="590.7" width="98.5" height="102.8"/>
							</defs>
							<clipPath id="SVGID_00000179616015529073151570000011909909862149143231_">
								<use xlink:href="#SVGID_00000005248286085977193520000011972773438967970700_"  style="overflow:visible;"/>
							</clipPath>
							<g style="clip-path:url(#SVGID_00000179616015529073151570000011909909862149143231_);">
								<path class="st18" d="M156.6,628.9c0,0,13.1-1.8,16.7-11.6c4.4-11.8-11-27.2-20.9-26.7c-8.5,0.4-17.7,12.3-18.4,12.6
									C148.6,612.1,156.6,628.9,156.6,628.9z"/>
								<path class="st19" d="M153.8,634.2c0,0-28.3,18.1-49.2,46.1c-2.8-5.7-13.9-17.3-25.3-18.5c20.7-31.7,42.3-50.7,53.6-57
									C151.7,615.1,153.8,634.2,153.8,634.2z"/>
								<path class="st20" d="M153.5,634.4c-3.1,2-29.2,19.6-48.9,45.9c-0.8-1.7-2.4-3.9-4.5-6.2c18-24.7,35.6-39.8,45.5-45.2
									C148.7,630.5,151.3,632.4,153.5,634.4L153.5,634.4z"/>
								<path class="st21" d="M135.5,611.3c0,0-24.5,19.2-48.8,52.6c-2.4-1.1-4.8-1.8-7.3-2.1c20.7-31.7,42.3-50.7,53.6-57
									c0.6,0.3,1.1,0.6,1.7,1C135.5,609.1,135.5,611.3,135.5,611.3z"/>
								<path class="st22" d="M128.6,617.2c-9.2,6.7-26.8,25.3-38,41.6C108.6,637.3,128.6,617.2,128.6,617.2z"/>
								<path class="st22" d="M140.2,632.2c-9.2,6.7-24.5,18.6-37.5,38.3C119.9,648.9,140.2,632.2,140.2,632.2z"/>
								<path class="st23" d="M161.8,626.8c0.3,2.2,0.3,5.5-4.3,9.1c-3.9,3.1-8.2,5.8-10.5,3.3c-2.2-9.9-15.3-24.8-24.2-27.5
									c-2.3-2.5,7.3-12,12.9-12.2C144.9,599.2,160.4,615.7,161.8,626.8L161.8,626.8z"/>
								<path class="st24" d="M79.4,661.8c1.8-1.5,6.8-1,15,4.4c7.5,5,11.9,12,10.3,14.1c-9.1,4.4-22.5,10.8-27.2,13
									c-1,0.5-2,0.2-1.9-1.1C76.3,685.5,78.4,665.2,79.4,661.8L79.4,661.8z"/>
								<path class="st25" d="M82.5,684.7c2.7,1.9,3.8,3.3,4.1,4.3c-0.4,0.2-0.8,0.4-1.1,0.5c-3.4,1.6-6.3,3-8,3.8
									c-1,0.5-2,0.2-1.9-1.1c0.2-2.1,0.6-5.4,1-9.1V683C77.4,682.8,79.6,682.6,82.5,684.7z"/>
								<path class="st26" d="M76.8,691.6c-1.1,0.5,0.1-7.8,1.2-8C79,683.3,77,691.5,76.8,691.6z"/>
								<path class="st27" d="M81,681.2c-0.9,1,4.2-16.6,5.2-16.9C86.8,664.1,81.8,680.4,81,681.2z"/>
								<path class="st27" d="M86.9,685.6c-1,1,14.1-8.2,14.5-9.1C101.7,675.8,89.8,682.6,86.9,685.6z"/>
								<path class="st28" d="M83.6,682.9c-0.9,1,8.4-13.1,9.4-13.5C93.7,669.2,84.4,682,83.6,682.9z"/>
							</g>
						</g>
					</g>
					<g>
						<g>
							<defs>
								<rect id="SVGID_00000052820582380202895790000002110351569677060526_" x="279" y="574.3" width="68.9" height="134.5"/>
							</defs>
							<clipPath id="SVGID_00000047061907336590394330000006811332063015340222_">
								<use xlink:href="#SVGID_00000052820582380202895790000002110351569677060526_"  style="overflow:visible;"/>
							</clipPath>
							<g style="clip-path:url(#SVGID_00000047061907336590394330000006811332063015340222_);">
								<path class="st30" d="M344.4,661.8c0.7-0.5-17.1-7.7-27.8-9.5c-10.7,1.2-30.8,6.8-30.1,7.6c7.5,3.3,21.8,9.8,23.6,9.9
									C312,670,343.5,662.5,344.4,661.8L344.4,661.8z"/>
								<path class="st21" d="M344.4,661.8c0,0,2.1,33.5,0.4,35.4s-31.8,10.5-33.3,10.5c-0.7-13.6-1.4-36.2-1.3-37.8
									C316.8,667.2,344.4,661.8,344.4,661.8z"/>
								<path class="st15" d="M286.5,660c-0.6,0.5-0.4,33.8,0.2,34.7s23.8,13.1,24.7,13c0.9-0.2-1-37-1.3-37.8
									C309.8,669.1,286.5,660,286.5,660z"/>
								<path class="st30" d="M310.1,669.9c-0.7-1.9,0.6,37.1,1.3,37.8C312.1,708.3,311.4,673.5,310.1,669.9z"/>
								<path class="st31" d="M344.4,661.8c0,0-19.7,2.2-34.3,8.1C317.6,668.8,344.4,661.8,344.4,661.8z"/>
								<path class="st31" d="M286.5,660c0.9,1.1,21.8,9.5,23.6,9.9C307.2,667.3,286.5,660,286.5,660z"/>
								<path class="st32" d="M330.8,695.3c-1.5,0.2-2.9,0.2-4.2-0.1c-1.3-0.3-2.5-0.7-3.5-1.3s-1.9-1.4-2.7-2.2
									c-0.8-0.9-1.4-1.9-1.8-2.9c-0.5-1.1-0.8-2.2-0.9-3.3c-0.2-1.4-0.1-2.8,0.3-4.2s1-2.7,1.8-3.9s2-2.2,3.4-3
									c1.5-0.8,3.1-1.4,5-1.6c3.1-0.4,5.9-0.1,8.2,1l-2.3,6.2c0,0-2.2-2.7-4.6-2.3s-3.3,1.8-3.8,3.1c-0.4,1.2-0.6,2.4-0.4,3.7
									c0.1,1,0.5,2,1,2.8s1.2,1.5,2.2,2c0.9,0.5,2,0.6,3.1,0.5c0.7-0.1,1.3-0.3,1.9-0.7s1.1-0.8,1.5-1.3l3.5,3.5
									c-0.5,0.9-1.5,1.8-2.9,2.6C334.2,694.5,332.6,695,330.8,695.3z"/>
								<path class="st33" d="M286.6,623.3c-0.7-0.5,17.3-8,28.1-9.9c10.9,1.1,31.4,6.5,30.6,7.4c-7.6,3.4-22,10.2-23.9,10.3
									C319.6,631.2,287.6,624,286.6,623.3z"/>
								<path class="st34" d="M286.6,623.3c0,0-1.8,34,0,35.9s32.4,10.3,34,10.3c0.6-13.8,1-36.8,0.9-38.4
									C314.6,628.5,286.6,623.3,286.6,623.3L286.6,623.3z"/>
								<path class="st35" d="M345.3,620.8c0.6,0.5,0.8,34.3,0.2,35.2c-0.6,0.9-24,13.6-25,13.5c-1-0.2,0.6-37.6,0.9-38.4
									C321.8,630.4,345.3,620.8,345.3,620.8L345.3,620.8z"/>
								<path class="st36" d="M321.5,631.1c0.7-2-0.2,37.7-0.9,38.4C319.8,670.2,320.2,634.8,321.5,631.1z"/>
								<path class="st37" d="M286.6,623.3c0,0,20,2,34.9,7.8C313.9,630.2,286.6,623.3,286.6,623.3z"/>
								<path class="st37" d="M345.3,620.8c-0.9,1.1-22,9.9-23.9,10.3C324.4,628.5,345.3,620.8,345.3,620.8z"/>
								<path class="st38" d="M307.6,646.4c0.8,0.3,1.5,0.8,2.1,1.6c0.6,0.7,1.1,1.6,1.4,2.6c0.4,1,0.5,2,0.5,3.1
									c-0.1,2.2-1,3.4-2.9,3.8c-1.9,0.3-4.7-0.2-8.4-1.7l-4.1-1.6l0.8-20.7c0.7-0.2,1.7-0.1,3,0.3c1.3,0.4,2.6,0.8,3.8,1.2
									c1.1,0.4,2.2,1.1,3.2,2s1.8,1.8,2.4,2.8s0.9,2,0.9,3c0,1.2-0.4,2.1-1,2.8s-1.3,1-2.3,0.8
									C307.2,646.3,307.4,646.4,307.6,646.4L307.6,646.4z M304.8,640.1c-0.4-0.5-0.9-0.8-1.5-1.1c-0.4-0.2-0.9-0.2-1.3-0.2
									l-0.1,3.2c0.2,0.2,0.5,0.3,0.8,0.4c0.7,0.3,1.3,0.3,1.8,0.1s0.8-0.5,0.8-1.1C305.3,641.1,305.1,640.6,304.8,640.1
									L304.8,640.1z M305,652c0.6-0.2,1-0.7,1-1.5c0-0.6-0.2-1.1-0.7-1.7c-0.5-0.5-1-0.9-1.7-1.2s-1.3-0.4-1.9-0.2l-0.1,3.8
									c0.3,0.3,0.7,0.5,1.1,0.7C303.6,652.3,304.3,652.3,305,652z"/>
								<path class="st39" d="M280.9,586.1c-0.7-0.5,17.3-8,28.1-9.9c10.9,1.1,31.4,6.5,30.6,7.4c-7.6,3.4-22,10.2-23.9,10.3
									C313.9,594,281.9,586.8,280.9,586.1L280.9,586.1z"/>
								<path class="st40" d="M280.9,586.1c0,0-1.8,34,0,35.9s32.4,10.4,33.9,10.3c0.6-13.8,1-36.8,0.9-38.4
									C309,591.2,280.9,586.1,280.9,586.1z"/>
								<path class="st41" d="M339.7,583.6c0.6,0.5,0.8,34.3,0.2,35.2c-0.6,0.9-24,13.6-25,13.4c-1-0.1,0.6-37.6,0.9-38.4
									C316.1,593.1,339.7,583.6,339.7,583.6L339.7,583.6z"/>
								<path class="st39" d="M315.8,593.9c0.7-2-0.2,37.7-0.9,38.4C314.2,632.9,314.5,597.6,315.8,593.9z"/>
								<path class="st42" d="M280.9,586.1c0,0,20,2,34.9,7.8C308.2,592.9,280.9,586.1,280.9,586.1z"/>
								<path class="st42" d="M339.7,583.6c-0.9,1.1-22,9.9-23.9,10.3C318.8,591.3,339.7,583.6,339.7,583.6z"/>
								<path class="st43" d="M300.4,615.1l-6.8-1.5l-1.9,4.2l-5.3-3.5l9.4-17.3l5.4,1.2l5.7,21.7l-5.4,0.2L300.4,615.1L300.4,615.1
									z M299.1,609l-1.1-5.4l-2.1,4.7L299.1,609L299.1,609z"/>
							</g>
						</g>
					</g>
					<path class="st32" d="M91,432.4c-0.6-0.4,16-8,26.2-10.2c10.2,0.8,29.6,5.5,28.9,6.4C139,432,125.7,438.9,124,439
						C122.2,439.2,92,433,91,432.4z"/>
					<path class="st32" d="M91,432.4c0,0-0.9,32.6,0.9,34.3c1.7,1.7,30.6,9.1,32.1,9c0.2-13.2,0.1-35.2-0.1-36.7
						C117.5,436.6,91,432.4,91,432.4z"/>
					<path class="st44" d="M146.1,428.6c0.6,0.4,1.6,32.8,1,33.7c-0.5,0.9-22.2,13.6-23.1,13.5s-0.3-35.9-0.1-36.7
						C124.2,438.3,146.1,428.6,146.1,428.6L146.1,428.6z"/>
					<path class="st45" d="M123.9,439c0.6-1.9,0.7,36,0.1,36.7C123.4,476.4,122.8,442.6,123.9,439z"/>
					<path class="st45" d="M91,432.4c0,0,18.8,1.4,32.9,6.6C116.8,438.3,91,432.4,91,432.4z"/>
					<path class="st45" d="M146.1,428.6c-0.8,1.1-20.4,10-22.1,10.4C126.7,436.4,146.1,428.6,146.1,428.6z"/>
					<path class="st46" d="M114.2,464.7L98.5,461l-0.4-5.2c1.3-0.3,2.7-0.8,4.1-1.6c1.5-0.8,2.7-1.7,3.7-2.7s1.5-2,1.5-3
						c0-0.6-0.2-1.2-0.5-1.7s-0.7-0.9-1.2-1c-0.6-0.1-1.1,0-1.6,0.6c-0.5,0.5-0.7,1.2-0.8,2l-5-2.2c0.1-1.5,0.5-2.7,1.1-3.8
						c0.7-1,1.6-1.7,2.7-2.2c1.1-0.4,2.4-0.4,3.9-0.1c1.4,0.3,2.6,1,3.7,1.9s1.9,2.1,2.5,3.4s0.9,2.8,0.8,4.3c0,3-1.5,5.8-4.6,8.4
						l5.3,1.2L114.2,464.7z"/>
					<path class="st47" d="M91,394.6c-0.6-0.4,16-8,26.2-10.1c10.2,0.8,29.6,5.5,28.9,6.3c-7.1,3.4-20.4,10.3-22.1,10.4
						C122.2,401.4,92,395.2,91,394.6z"/>
					<path class="st48" d="M91,394.6c0,0-0.5,34.4,1.2,36.1s30.3,7.3,31.8,7.2c0.2-13.2,0.1-35.2-0.1-36.7
						C117.5,398.9,91,394.6,91,394.6z"/>
					<path class="st13" d="M146.1,390.8c0.6,0.4,1.5,35.8,1,36.7c-0.5,0.9-22.2,10.5-23.1,10.4s-0.3-35.9-0.1-36.7
						C124.2,400.5,146.1,390.8,146.1,390.8L146.1,390.8z"/>
					<path class="st49" d="M123.9,401.2c0.6-1.9,0.7,36,0.1,36.7C123.4,438.6,122.8,404.8,123.9,401.2z"/>
					<path class="st50" d="M91,394.6c0,0,18.8,1.4,32.9,6.6C116.8,400.5,91,394.6,91,394.6z"/>
					<path class="st50" d="M146.1,390.8c-0.8,1.1-20.4,10-22.1,10.4C126.7,398.6,146.1,390.8,146.1,390.8z"/>
					<path class="st51" d="M113.5,414.1c0.7,0.9,1.2,1.9,1.6,3s0.6,2.2,0.6,3.2c0,1.5-0.4,2.7-1.1,3.7s-1.8,1.7-3.1,2
						c-1.3,0.4-2.8,0.3-4.4-0.1s-2.9-1-4-1.9s-2-2.2-2.8-3.7l2.9-3.7c0.5,1,1.1,1.8,1.7,2.4c0.7,0.6,1.3,1,2.1,1.2
						c0.8,0.2,1.4,0.1,1.9-0.3s0.8-1,0.8-1.8c0-0.7-0.2-1.4-0.7-2s-1-1-1.7-1.2c-0.5-0.1-0.9-0.1-1.3-0.1s-0.8,0.2-1.3,0.4l-1.4-4.2
						l4-2.6l-6.5-1.4v-5.1l14.1,3.3l0.1,5l-3.7,1.8C112.1,412.5,112.8,413.2,113.5,414.1L113.5,414.1z"/>
					<path class="st36" d="M95.1,357.3c-0.6-0.4,16.2-8.1,26.4-10.2c10.3,0.8,29.9,5.5,29.2,6.4c-7.1,3.5-20.6,10.4-22.3,10.5
						C126.5,364.1,96.1,357.9,95.1,357.3L95.1,357.3z"/>
					<path class="st34" d="M95.1,357.3c0,0-0.9,32.9,0.9,34.6c1.7,1.8,30.9,9.2,32.4,9.1c0.2-13.4,0.1-35.5-0.1-37
						C121.8,361.6,95.1,357.3,95.1,357.3z"/>
					<path class="st14" d="M150.7,353.4c0.6,0.4,1.6,33.1,1,34c-0.5,0.9-22.4,13.7-23.3,13.6c-0.9-0.1-0.3-36.3-0.1-37
						C128.6,363.2,150.7,353.4,150.7,353.4L150.7,353.4z"/>
					<path class="st52" d="M128.3,364c0.6-1.9,0.7,36.4,0.1,37C127.7,401.6,127.2,367.6,128.3,364z"/>
					<path class="st37" d="M95.1,357.3c0,0,19,1.4,33.2,6.7C121.1,363.2,95.1,357.3,95.1,357.3z"/>
					<path class="st37" d="M150.7,353.4c-0.8,1.1-20.6,10.1-22.3,10.5C131.1,361.3,150.7,353.4,150.7,353.4z"/>
					<path class="st32" d="M111.7,367.6l4,1.3v21.6l-6.1-1.3v-16l-3.9-0.8v-6.1L111.7,367.6L111.7,367.6z"/>
					<path class="st53" d="M258.3,387.2v40c0,5.7,11,10.3,24.6,10.3s24.6-4.6,24.6-10.3v-40H258.3z"/>
					<path class="st54" d="M307.5,387.2c0,6-11,10.9-24.6,10.9s-24.6-4.9-24.6-10.9s11-10.9,24.6-10.9
						C296.5,376.3,307.5,381.2,307.5,387.2z"/>
					<path class="st55" d="M282.9,397.1c-11.6,0-21.5-3.7-24.6-8.8c2.1,5.6,12.3,9.8,24.6,9.8c12.3,0,22.5-4.2,24.6-9.8
						C304.3,393.4,294.5,397.1,282.9,397.1z"/>
					<path class="st21" d="M303.1,382.9c0,5.4-9.3,9.8-20.8,9.8s-20.8-4.4-20.8-9.8c3.5-7.1,12.2-21.6,19.8-35.6
						c0.3-0.6,1.7-0.7,2.1,0.1C289.5,357.9,299.7,376.2,303.1,382.9z"/>
					<path class="st16" d="M259.4,453.4c0,5.7,4.4,10.4,9.8,10.4s9.8-4.7,9.8-10.4s-4.4-10.4-9.8-10.4S259.4,447.7,259.4,453.4z"/>
					<path class="st56" d="M266.3,446.4c2.6-0.5,4.1,1.2,1.6,2s-5,3.2-5.1,5.7c-0.1,2-3.1,0.5-2.2-2.5
						C261.6,448.6,264,446.8,266.3,446.4L266.3,446.4z"/>
					<path class="st32" d="M288.1,410.7c-0.9-0.6,23.6-11.6,38.5-14.7c15.1,1.2,43.6,7.9,42.6,9.2c-10.4,5-30,14.9-32.6,15.1
						C334,420.5,289.5,411.6,288.1,410.7L288.1,410.7z"/>
					<path class="st57" d="M288.1,410.7c0,0-1.3,47.2,1.3,49.8c2.5,2.5,45.1,13.2,47.3,13.1c0.3-19.2,0.2-51-0.1-53.2
						C327,416.9,288.1,410.7,288.1,410.7z"/>
					<path class="st58" d="M369.2,405.2c0.9,0.6,2.3,47.5,1.5,48.8s-32.7,19.7-34,19.5s-0.5-52.1-0.1-53.2
						C337,419.2,369.2,405.2,369.2,405.2z"/>
					<path class="st59" d="M336.6,420.3c0.9-2.8,1,52.3,0.1,53.2C335.7,474.5,334.9,425.5,336.6,420.3z"/>
					<path class="st60" d="M288.1,410.7c0,0,27.7,2,48.5,9.6C326.1,419.2,288.1,410.7,288.1,410.7z"/>
					<path class="st60" d="M369.2,405.2c-1.2,1.6-30,14.5-32.6,15.1C340.6,416.5,369.2,405.2,369.2,405.2z"/>
					<g>
						<path class="st5" d="M0.1,842.3h121.4c6,0,10.9,4.9,10.9,10.9V932H0.1V842.3z"/>
					</g>
					<path class="st104" d="M42.4,889.3H65"/>
					<path class="st104" d="M49.9,881.8c-3.7,1.9-5.6,3.7-7.5,7.5c1.9,3.8,3.8,5.6,7.5,7.5"/>
					<g>
						
							<linearGradient id="SVGID_00000060021656606359146060000002130182392723884432_" gradientUnits="userSpaceOnUse" x1="436.6" y1="366.15" x2="721" y2="366.15" gradientTransform="matrix(1 0 0 1 -291 521)">
							<stop  offset="0" style="stop-color:#ACDE5F"/>
							<stop  offset="0" style="stop-color:#A3DB5E"/>
							<stop  offset="1.000000e-04" style="stop-color:#A3DB5E"/>
							<stop  offset="1" style="stop-color:#66CD5C"/>
						</linearGradient>
						<path style="fill:url(#SVGID_00000060021656606359146060000002130182392723884432_);" d="M145.6,853.2c0-6,4.9-10.9,10.9-10.9
							H430V932H145.6V853.2z"/>
					</g>
					<path class="st5" d="M182.2,893.7v-12.3h5.4c1.3,0,2.5,0.3,3.5,0.8s1.8,1.2,2.3,2.1c0.6,0.9,0.8,2,0.8,3.2s-0.3,2.3-0.8,3.2
						c-0.6,0.9-1.3,1.6-2.3,2.1s-2.2,0.8-3.5,0.8h-5.4V893.7z M184.5,891.8h3c0.9,0,1.7-0.2,2.4-0.5c0.7-0.4,1.2-0.8,1.6-1.5
						c0.4-0.6,0.6-1.4,0.6-2.2c0-0.9-0.2-1.6-0.6-2.2c-0.4-0.6-0.9-1.1-1.6-1.5c-0.7-0.4-1.5-0.5-2.4-0.5h-3V891.8z M194.8,893.7
						l5.5-12.3h2.2l5.5,12.3h-2.4l-4.7-11h0.9l-4.7,11H194.8z M197.3,890.9l0.6-1.8h6.6l0.6,1.8H197.3z M215.2,893.9
						c-1,0-1.8-0.2-2.6-0.5s-1.5-0.8-2.1-1.3c-0.6-0.6-1.1-1.2-1.4-2c-0.3-0.8-0.5-1.6-0.5-2.5s0.2-1.8,0.5-2.5
						c0.3-0.8,0.8-1.4,1.4-2c0.6-0.6,1.3-1,2.1-1.3s1.7-0.5,2.6-0.5c1,0,2,0.2,2.8,0.5s1.5,0.8,2.1,1.5l-1.4,1.4
						c-0.5-0.5-1-0.8-1.6-1.1c-0.5-0.2-1.2-0.4-1.8-0.4s-1.2,0.1-1.8,0.3c-0.5,0.2-1,0.5-1.4,0.9s-0.7,0.8-0.9,1.4
						c-0.2,0.5-0.3,1.1-0.3,1.7c0,0.6,0.1,1.2,0.3,1.7s0.5,1,0.9,1.4s0.9,0.7,1.4,0.9s1.1,0.3,1.8,0.3c0.6,0,1.2-0.1,1.8-0.3
						s1.1-0.5,1.6-1l1.3,1.7c-0.6,0.5-1.4,0.9-2.2,1.2C216.9,893.8,216.1,893.9,215.2,893.9z M217.8,892v-4.6h2.2v4.9L217.8,892z
						 M225.1,886.6h6.1v1.9h-6.1V886.6z M225.3,891.8h6.9v1.9H223v-12.3h8.9v1.9h-6.7v8.5H225.3z M234.7,893.7v-12.3h2.3v10.3h6.4
						v1.9L234.7,893.7L234.7,893.7z M245.2,893.7v-12.3h2.3v12.3H245.2z M252.7,893.9c-0.8,0-1.5-0.2-2.2-0.5s-1.2-0.7-1.6-1.3
						l1.3-1.6c0.3,0.5,0.7,0.8,1.1,1.1c0.4,0.2,0.9,0.4,1.3,0.4c1.3,0,1.9-0.8,1.9-2.3v-6.3h-4.4v-1.9h6.6v8.1
						c0,1.4-0.4,2.5-1.1,3.2C255,893.5,254,893.9,252.7,893.9z M262,890.8l-0.1-2.7l6.4-6.7h2.6l-5.3,5.7l-1.3,1.4L262,890.8z
						 M260,893.7v-12.3h2.3v12.3H260z M268.5,893.7l-4.7-5.6l1.5-1.7l5.8,7.2L268.5,893.7L268.5,893.7z M276.3,893.9
						c-1,0-1.9-0.1-2.7-0.4c-0.9-0.3-1.6-0.6-2.1-1.1l0.8-1.8c0.5,0.4,1.1,0.7,1.8,1c0.7,0.3,1.5,0.4,2.2,0.4c0.6,0,1.2-0.1,1.6-0.2
						c0.4-0.1,0.7-0.3,0.9-0.6c0.2-0.2,0.3-0.5,0.3-0.8c0-0.4-0.1-0.7-0.4-0.9s-0.6-0.4-1.1-0.5c-0.4-0.1-0.9-0.3-1.4-0.4
						c-0.5-0.1-1-0.3-1.6-0.4c-0.5-0.2-1-0.4-1.4-0.6c-0.4-0.3-0.8-0.6-1-1c-0.3-0.4-0.4-1-0.4-1.6c0-0.7,0.2-1.3,0.5-1.8
						c0.4-0.6,0.9-1,1.6-1.3s1.7-0.5,2.8-0.5c0.7,0,1.5,0.1,2.2,0.3s1.4,0.5,1.9,0.8l-0.7,1.8c-0.5-0.3-1.1-0.6-1.7-0.7
						c-0.6-0.2-1.1-0.2-1.7-0.2s-1.1,0.1-1.5,0.2c-0.4,0.2-0.7,0.4-0.9,0.6c-0.2,0.2-0.3,0.5-0.3,0.8c0,0.4,0.1,0.7,0.4,0.9
						s0.6,0.4,1,0.5s0.9,0.3,1.4,0.4c0.5,0.1,1,0.3,1.6,0.4c0.5,0.2,1,0.4,1.4,0.6c0.4,0.2,0.8,0.6,1,1c0.3,0.4,0.4,1,0.4,1.6
						c0,0.7-0.2,1.3-0.5,1.8c-0.4,0.5-0.9,1-1.6,1.3C278.3,893.7,277.4,893.9,276.3,893.9z M291.2,893.7l-4.1-12.3h2.4l3.6,11.1H292
						l3.8-11.1h2.1l3.7,11.1h-1.1l3.7-11.1h2.2l-4.1,12.3h-2.4l-3.3-10h0.6l-3.4,10H291.2z M310.2,886.6h6.1v1.9h-6.1V886.6z
						 M310.4,891.8h6.9v1.9h-9.2v-12.3h8.9v1.9h-6.7v8.5H310.4z M319.8,893.7v-12.3h5c1.1,0,2,0.2,2.8,0.5s1.4,0.9,1.8,1.5
						c0.4,0.7,0.6,1.4,0.6,2.3s-0.2,1.7-0.6,2.3s-1,1.1-1.8,1.5c-0.8,0.3-1.7,0.5-2.8,0.5H321l1-1v4.6h-2.2V893.7z M327.8,893.7
						l-3.1-4.4h2.4l3.1,4.4H327.8z M322.1,889.4l-1-1.1h3.7c1,0,1.8-0.2,2.3-0.6c0.5-0.4,0.8-1,0.8-1.8s-0.3-1.4-0.8-1.8
						c-0.5-0.4-1.3-0.6-2.3-0.6h-3.7l1-1.1V889.4z M334.7,890.8l-0.1-2.7l6.4-6.7h2.6l-5.3,5.7l-1.3,1.4L334.7,890.8z M332.6,893.7
						v-12.3h2.3v12.3H332.6z M341.2,893.7l-4.7-5.6l1.5-1.7l5.8,7.2L341.2,893.7L341.2,893.7z"/>
					<path class="st106" d="M387.8,890.5l-22.5,0.3"/>
					<path class="st106" d="M380.4,898.1c3.7-1.9,5.6-3.8,7.4-7.6c-1.9-3.7-3.8-5.6-7.6-7.4"/>
					<g>
						
							<linearGradient id="SVGID_00000160880938526265622640000014354386386631979436_" gradientUnits="userSpaceOnUse" x1="383" y1="-291.85" x2="629" y2="-291.85" gradientTransform="matrix(1 0 0 1 -291 521)">
							<stop  offset="0.5025" style="stop-color:#48CEE0"/>
							<stop  offset="1" style="stop-color:#529FFF"/>
						</linearGradient>
						<path style="fill:url(#SVGID_00000160880938526265622640000014354386386631979436_);" d="M102.9,201.3h224.2
							c6,0,10.9,4.9,10.9,10.9v33.9c0,6-4.9,10.9-10.9,10.9H102.9c-6,0-10.9-4.9-10.9-10.9v-33.9C92,206.2,96.9,201.3,102.9,201.3z"
							/>
					</g>
					<path class="st5" d="M112.2,236.3V224h5.7c1.5,0,2.6,0.3,3.4,0.9c0.8,0.6,1.2,1.3,1.2,2.3c0,0.7-0.2,1.2-0.5,1.7
						s-0.7,0.8-1.2,1.1c-0.5,0.2-1.1,0.4-1.6,0.4l0.3-0.6c0.7,0,1.3,0.1,1.9,0.4c0.5,0.2,1,0.6,1.3,1.1s0.5,1.1,0.5,1.8
						c0,1.1-0.4,1.9-1.2,2.5c-0.8,0.6-2,0.9-3.6,0.9h-6.2V236.3z M114.5,234.5h3.7c0.9,0,1.5-0.1,2-0.4c0.5-0.3,0.7-0.7,0.7-1.3
						s-0.2-1.1-0.7-1.3c-0.5-0.3-1.1-0.4-2-0.4h-3.9v-1.8h3.4c0.8,0,1.4-0.1,1.8-0.4c0.4-0.3,0.6-0.7,0.6-1.3s-0.2-1-0.6-1.3
						s-1-0.4-1.8-0.4h-3.2V234.5z M127.7,229.1h6.1v1.9h-6.1C127.7,231,127.7,229.1,127.7,229.1z M127.8,234.4h6.9v1.9h-9.2V224h8.9
						v1.9h-6.7v8.5H127.8z M139.3,233.4l-0.1-2.7l6.4-6.7h2.6l-5.3,5.7l-1.3,1.4L139.3,233.4z M137.3,236.3V224h2.3v12.3H137.3z
						 M145.8,236.3l-4.7-5.6l1.5-1.7l5.8,7.2h-2.6V236.3z M150,236.3V224h2.3v12.3H150z M157.5,236.5c-0.8,0-1.5-0.2-2.2-0.5
						s-1.2-0.7-1.6-1.3l1.3-1.6c0.3,0.5,0.7,0.8,1.1,1.1c0.4,0.2,0.9,0.4,1.3,0.4c1.3,0,1.9-0.8,1.9-2.3V226H155v-2h6.6v8.1
						c0,1.4-0.4,2.5-1.1,3.2C159.9,236.1,158.9,236.5,157.5,236.5z M166.9,233.4l-0.1-2.7l6.4-6.7h2.6l-5.3,5.7l-1.3,1.4
						L166.9,233.4z M164.8,236.3V224h2.3v12.3H164.8z M173.4,236.3l-4.7-5.6l1.5-1.7l5.8,7.2h-2.6V236.3z M186.1,236.3l-5.4-12.3
						h2.5l4.8,11.1h-1.4l4.8-11.1h2.3l-5.3,12.3H186.1z M200.5,236.5c-1,0-1.8-0.2-2.6-0.5s-1.5-0.8-2.1-1.3c-0.6-0.6-1.1-1.2-1.4-2
						c-0.3-0.8-0.5-1.6-0.5-2.5s0.2-1.7,0.5-2.5s0.8-1.4,1.4-2c0.6-0.6,1.3-1,2.1-1.3s1.7-0.5,2.6-0.5c1,0,1.8,0.2,2.6,0.5
						s1.5,0.8,2.1,1.3c0.6,0.6,1.1,1.2,1.4,2c0.3,0.8,0.5,1.6,0.5,2.5s-0.2,1.8-0.5,2.5c-0.3,0.8-0.8,1.4-1.4,2
						c-0.6,0.6-1.3,1-2.1,1.3C202.4,236.3,201.5,236.5,200.5,236.5z M200.5,234.5c0.6,0,1.2-0.1,1.7-0.3s1-0.5,1.4-0.9
						s0.7-0.9,0.9-1.4s0.3-1.1,0.3-1.7s-0.1-1.2-0.3-1.7s-0.5-1-0.9-1.4s-0.8-0.7-1.4-0.9c-0.5-0.2-1.1-0.3-1.7-0.3
						c-0.6,0-1.2,0.1-1.7,0.3s-1,0.5-1.4,0.9s-0.7,0.8-0.9,1.4c-0.2,0.5-0.3,1.1-0.3,1.7c0,0.6,0.1,1.2,0.3,1.7s0.5,1,0.9,1.4
						s0.8,0.7,1.4,0.9C199.3,234.4,199.9,234.5,200.5,234.5z M215.3,236.5c-1,0-1.8-0.2-2.6-0.5s-1.5-0.8-2.1-1.3
						c-0.6-0.6-1.1-1.2-1.4-2c-0.3-0.8-0.5-1.6-0.5-2.5s0.2-1.7,0.5-2.5s0.8-1.4,1.4-2c0.6-0.6,1.3-1,2.1-1.3s1.7-0.5,2.6-0.5
						c1,0,1.8,0.2,2.6,0.5s1.5,0.8,2.1,1.3c0.6,0.6,1.1,1.2,1.4,2c0.3,0.8,0.5,1.6,0.5,2.5s-0.2,1.8-0.5,2.5c-0.3,0.8-0.8,1.4-1.4,2
						c-0.6,0.6-1.3,1-2.1,1.3S216.2,236.5,215.3,236.5z M215.3,234.5c0.6,0,1.2-0.1,1.7-0.3s1-0.5,1.4-0.9s0.7-0.9,0.9-1.4
						s0.3-1.1,0.3-1.7s-0.1-1.2-0.3-1.7s-0.5-1-0.9-1.4s-0.8-0.7-1.4-0.9c-0.5-0.2-1.1-0.3-1.7-0.3c-0.6,0-1.2,0.1-1.7,0.3
						s-1,0.5-1.4,0.9s-0.7,0.8-0.9,1.4c-0.2,0.5-0.3,1.1-0.3,1.7c0,0.6,0.1,1.2,0.3,1.7s0.5,1,0.9,1.4s0.8,0.7,1.4,0.9
						C214.1,234.4,214.6,234.5,215.3,234.5z M224.3,236.3V224h5c1.1,0,2,0.2,2.8,0.5c0.8,0.4,1.4,0.9,1.8,1.5
						c0.4,0.7,0.6,1.4,0.6,2.3s-0.2,1.7-0.6,2.3c-0.4,0.6-1,1.1-1.8,1.5c-0.8,0.3-1.7,0.5-2.8,0.5h-3.8l1-1v4.6L224.3,236.3
						L224.3,236.3z M232.3,236.3l-3.1-4.4h2.4l3.1,4.4H232.3z M226.6,231.9l-1-1.1h3.7c1,0,1.8-0.2,2.3-0.6c0.5-0.4,0.8-1,0.8-1.8
						s-0.3-1.4-0.8-1.8c-0.5-0.4-1.3-0.6-2.3-0.6h-3.7l1-1.1V231.9z M242.3,236.5c-1.7,0-3-0.5-4-1.4c-0.9-0.9-1.4-2.3-1.4-4.1v-7
						h2.3v6.8c0,1.3,0.3,2.2,0.8,2.7c0.5,0.6,1.3,0.9,2.3,0.9s1.8-0.3,2.3-0.9c0.5-0.6,0.8-1.5,0.8-2.7V224h2.2v6.9
						c0,1.8-0.5,3.2-1.4,4.1C245.3,236,244,236.5,242.3,236.5z M250.9,236.3V224h2.3v12.3H250.9z M259,236.3V226h-4.1v-2h10.4v1.9
						h-4.1v10.3H259V236.3z M272.6,236.5c-1,0-1.8-0.2-2.6-0.5c-0.8-0.3-1.5-0.8-2.1-1.3c-0.6-0.6-1.1-1.2-1.4-2s-0.5-1.6-0.5-2.5
						s0.2-1.8,0.5-2.5c0.3-0.8,0.8-1.4,1.4-2s1.3-1,2.1-1.3c0.8-0.3,1.7-0.5,2.6-0.5c1,0,2,0.2,2.8,0.5s1.5,0.8,2.1,1.5l-1.4,1.4
						c-0.5-0.5-1-0.8-1.6-1.1c-0.5-0.2-1.2-0.4-1.8-0.4c-0.6,0-1.2,0.1-1.8,0.3c-0.5,0.2-1,0.5-1.4,0.9s-0.7,0.8-0.9,1.4
						c-0.2,0.5-0.3,1.1-0.3,1.7c0,0.6,0.1,1.2,0.3,1.7c0.2,0.5,0.5,1,0.9,1.4s0.9,0.7,1.4,0.9s1.1,0.3,1.8,0.3
						c0.6,0,1.2-0.1,1.8-0.3c0.6-0.2,1.1-0.5,1.6-1l1.3,1.7c-0.6,0.5-1.4,0.9-2.2,1.2C274.3,236.3,273.4,236.5,272.6,236.5z
						 M275.2,234.6V230h2.2v4.9L275.2,234.6z M278.6,236.3l5.5-12.3h2.2l5.5,12.3h-2.4l-4.7-11h0.9l-4.7,11H278.6z M281.2,233.4
						l0.6-1.8h6.6l0.6,1.8H281.2z M293.5,236.3V224h1.9l7.7,9.4h-0.9V224h2.3v12.3h-1.9l-7.7-9.4h0.9v9.4H293.5z M313.4,236.5
						c-1,0-1.8-0.2-2.6-0.5c-0.8-0.3-1.5-0.8-2.1-1.3c-0.6-0.6-1.1-1.2-1.4-2s-0.5-1.6-0.5-2.5s0.2-1.8,0.5-2.5
						c0.3-0.8,0.8-1.4,1.4-2s1.3-1,2.1-1.3c0.8-0.3,1.7-0.5,2.6-0.5c1,0,2,0.2,2.8,0.5s1.5,0.8,2.1,1.5l-1.4,1.4
						c-0.5-0.5-1-0.8-1.6-1.1c-0.5-0.2-1.2-0.4-1.8-0.4c-0.6,0-1.2,0.1-1.8,0.3c-0.5,0.2-1,0.5-1.4,0.9s-0.7,0.8-0.9,1.4
						c-0.2,0.5-0.3,1.1-0.3,1.7c0,0.6,0.1,1.2,0.3,1.7c0.2,0.5,0.5,1,0.9,1.4s0.9,0.7,1.4,0.9s1.1,0.3,1.8,0.3
						c0.6,0,1.2-0.1,1.8-0.3c0.6-0.2,1.1-0.5,1.6-1l1.3,1.7c-0.6,0.5-1.4,0.9-2.2,1.2C315.1,236.3,314.2,236.5,313.4,236.5z
						 M316,234.6V230h2.2v4.9L316,234.6z"/>
					<path class="st95" d="M176.8,297.6c-0.7,0-1.4-0.1-2-0.4c-0.6-0.2-1.1-0.6-1.5-1s-0.8-0.9-1-1.5s-0.4-1.2-0.4-1.9
						s0.1-1.3,0.4-1.9c0.2-0.6,0.6-1.1,1-1.5s1-0.8,1.5-1c0.6-0.2,1.2-0.4,2-0.4c0.7,0,1.3,0.1,1.9,0.4c0.6,0.2,1.1,0.6,1.5,1
						s0.8,0.9,1,1.5s0.4,1.2,0.4,1.9c0,0.7-0.1,1.3-0.4,1.9c-0.2,0.6-0.6,1.1-1,1.5s-1,0.7-1.5,1S177.5,297.6,176.8,297.6z
						 M176.8,296.5c0.5,0,1-0.1,1.4-0.3c0.4-0.2,0.8-0.4,1.1-0.7c0.3-0.3,0.6-0.7,0.7-1.1c0.2-0.4,0.3-0.9,0.3-1.4s-0.1-1-0.3-1.4
						s-0.4-0.8-0.7-1.1c-0.3-0.3-0.7-0.6-1.1-0.7c-0.4-0.2-0.9-0.3-1.4-0.3s-1,0.1-1.4,0.3c-0.4,0.2-0.8,0.4-1.1,0.7
						c-0.3,0.3-0.6,0.7-0.8,1.1s-0.3,0.9-0.3,1.4s0.1,1,0.3,1.4s0.4,0.8,0.8,1.1c0.3,0.3,0.7,0.6,1.1,0.7
						C175.8,296.4,176.3,296.5,176.8,296.5z M184.9,292.3h4.7v1.1h-4.7V292.3z M185,296.4h5.4v1.1h-6.7v-9.2h6.5v1.1H185V296.4z
						 M193.7,292.7h4.7v1.1h-4.7V292.7z M193.8,297.5h-1.3v-9.2h6.5v1.1h-5.2V297.5z M202,292.3h4.7v1.1H202V292.3z M202.1,296.4
						h5.4v1.1h-6.7v-9.2h6.5v1.1h-5.2V296.4z M209.6,297.5v-9.2h1.1l6.1,7.5h-0.6v-7.5h1.3v9.2h-1.1l-6.1-7.5h0.6v7.5H209.6z
						 M220.3,297.5v-9.2h1.3v9.2H220.3z M224.3,297.5v-9.2h1.1l6.1,7.5h-0.6v-7.5h1.3v9.2h-1.1L225,290h0.6v7.5H224.3z M239.1,297.6
						c-0.7,0-1.4-0.1-2-0.3c-0.6-0.2-1.1-0.6-1.5-1s-0.8-0.9-1-1.5s-0.4-1.2-0.4-1.9c0-0.7,0.1-1.3,0.4-1.9c0.2-0.6,0.6-1.1,1-1.5
						s1-0.8,1.6-1s1.3-0.4,2-0.4s1.4,0.1,2,0.4c0.6,0.2,1.1,0.6,1.5,1.1l-0.8,0.8c-0.4-0.4-0.8-0.6-1.2-0.8
						c-0.4-0.2-0.9-0.3-1.4-0.3s-1,0.1-1.5,0.3c-0.4,0.2-0.8,0.4-1.2,0.7c-0.3,0.3-0.6,0.7-0.8,1.1s-0.3,0.9-0.3,1.4s0.1,1,0.3,1.4
						s0.4,0.8,0.8,1.1c0.3,0.3,0.7,0.6,1.2,0.7c0.4,0.2,0.9,0.3,1.5,0.3c0.5,0,1-0.1,1.4-0.2c0.5-0.2,0.9-0.4,1.3-0.8l0.7,1
						c-0.5,0.4-1,0.7-1.6,0.9C240.4,297.5,239.8,297.6,239.1,297.6z M241.3,296.3v-3.4h1.3v3.6L241.3,296.3z M246.3,292.3h4.7v1.1
						h-4.7V292.3z M246.4,296.4h5.4v1.1h-6.7v-9.2h6.5v1.1h-5.2V296.4z M253.9,297.5v-9.2h1.1l6.1,7.5h-0.6v-7.5h1.3v9.2h-1.1
						l-6.1-7.5h0.6v7.5H253.9z"/>
					<path class="st108" d="M272.5,293.2l124.7,0.5"/>
					<path class="st108" d="M34,293.2h130.2"/>
					<path class="st95" d="M179,805.1v-9.2h4.1c1.1,0,1.9,0.2,2.4,0.6c0.6,0.4,0.9,1,0.9,1.7c0,0.5-0.1,0.9-0.3,1.3
						c-0.2,0.3-0.5,0.6-0.9,0.8s-0.8,0.3-1.2,0.3l0.2-0.4c0.5,0,1,0.1,1.4,0.3s0.7,0.5,1,0.8c0.2,0.4,0.4,0.8,0.4,1.3
						c0,0.8-0.3,1.4-0.9,1.8c-0.6,0.4-1.5,0.6-2.6,0.6H179V805.1z M180.3,804h3c0.7,0,1.3-0.1,1.7-0.4s0.6-0.6,0.6-1.2
						c0-0.5-0.2-0.9-0.6-1.2c-0.4-0.2-0.9-0.4-1.7-0.4h-3.1v-1.1h2.8c0.7,0,1.2-0.1,1.5-0.4c0.4-0.2,0.6-0.6,0.6-1.1
						s-0.2-0.9-0.6-1.1c-0.4-0.2-0.9-0.4-1.5-0.4h-2.7V804z M190.1,799.9h4.7v1.1h-4.7V799.9z M190.3,804h5.4v1.1H189v-9.2h6.5v1.1
						h-5.2V804z M197.7,805.1v-9.2h1.3v8h5v1.1h-6.3V805.1z M209.5,805.2c-0.7,0-1.4-0.1-2-0.4c-0.6-0.2-1.1-0.6-1.5-1
						s-0.8-0.9-1-1.5s-0.4-1.2-0.4-1.9s0.1-1.3,0.4-1.9c0.2-0.6,0.6-1.1,1-1.5s1-0.8,1.5-1c0.6-0.2,1.2-0.4,2-0.4
						c0.7,0,1.3,0.1,1.9,0.4c0.6,0.2,1.1,0.6,1.5,1s0.8,0.9,1,1.5s0.4,1.2,0.4,1.9s-0.1,1.3-0.4,1.9c-0.2,0.6-0.6,1.1-1,1.5
						s-1,0.7-1.5,1S210.2,805.2,209.5,805.2z M209.5,804c0.5,0,1-0.1,1.4-0.3s0.8-0.4,1.1-0.7s0.6-0.7,0.7-1.1
						c0.2-0.4,0.3-0.9,0.3-1.4s-0.1-1-0.3-1.4s-0.4-0.8-0.7-1.1s-0.7-0.6-1.1-0.7c-0.4-0.2-0.9-0.3-1.4-0.3s-1,0.1-1.4,0.3
						s-0.8,0.4-1.1,0.7s-0.6,0.7-0.8,1.1c-0.2,0.4-0.3,0.9-0.3,1.4s0.1,1,0.3,1.4s0.4,0.8,0.8,1.1c0.3,0.3,0.7,0.6,1.1,0.7
						C208.5,804,209,804,209.5,804z M216.4,805.1v-9.2h1.1l6.1,7.5H223v-7.5h1.3v9.2h-1.1l-6.1-7.5h0.6v7.5H216.4z M227,805.1v-9.2
						h1.3v9.2H227z M231.1,805.1v-9.2h1.1l6.1,7.5h-0.6v-7.5h1.3v9.2h-1.1l-6.1-7.5h0.6v7.5H231.1z M245.9,805.2
						c-0.7,0-1.4-0.1-2-0.3s-1.1-0.6-1.5-1s-0.8-0.9-1-1.5s-0.4-1.2-0.4-1.9s0.1-1.3,0.4-1.9c0.2-0.6,0.6-1.1,1-1.5s1-0.8,1.6-1
						s1.3-0.4,2-0.4s1.4,0.1,2,0.4c0.6,0.2,1.1,0.6,1.5,1.1l-0.8,0.8c-0.4-0.4-0.8-0.6-1.2-0.8s-0.9-0.3-1.4-0.3s-1,0.1-1.5,0.3
						c-0.4,0.2-0.8,0.4-1.2,0.7c-0.3,0.3-0.6,0.7-0.8,1.1c-0.2,0.4-0.3,0.9-0.3,1.4s0.1,1,0.3,1.4s0.4,0.8,0.8,1.1
						c0.3,0.3,0.7,0.6,1.2,0.7c0.4,0.2,0.9,0.3,1.5,0.3c0.5,0,1-0.1,1.4-0.2c0.5-0.2,0.9-0.4,1.3-0.8l0.7,1c-0.5,0.4-1,0.7-1.6,0.9
						C247.2,805.1,246.6,805.2,245.9,805.2z M248.1,803.9v-3.4h1.3v3.6L248.1,803.9z M253.1,799.9h4.7v1.1h-4.7L253.1,799.9
						L253.1,799.9z M253.2,804h5.4v1.1h-6.7v-9.2h6.5v1.1h-5.2L253.2,804L253.2,804z M260.7,805.1v-9.2h1.1l6.1,7.5h-0.6v-7.5h1.3
						v9.2h-1.1l-6.1-7.5h0.6v7.5H260.7z"/>
					<path class="st108" d="M279,800.7l124.7,0.5"/>
					<path class="st108" d="M40.6,800.7h126.9"/>
				</g>
			</g>
		</g>
	</g>
</g>
<g id="Layer_2">
	<defs>
		<filter id="Adobe_OpacityMaskFilter" filterUnits="userSpaceOnUse" x="171.3" y="64.6" width="93.1" height="96">
			<feColorMatrix  type="matrix" values="1 0 0 0 0  0 1 0 0 0  0 0 1 0 0  0 0 0 1 0"/>
		</filter>
	</defs>
	
		<mask maskUnits="userSpaceOnUse" x="171.3" y="64.6" width="93.1" height="96" id="mask0_107_1103_00000059267905945465614140000001614958546738451084_">
		<path class="st109" d="M216.1,133.1c20.1,0,36.3-16.7,36.3-37.3c0-20.6-16.3-37.3-36.3-37.3c-20.1,0-36.3,16.7-36.3,37.3
			C179.8,116.4,196.1,133.1,216.1,133.1z"/>
	</mask>
	<g class="st110">
		<path class="st83" d="M209.6,160.6c14.8,0,26.8-12.3,26.8-27.5s-12-27.5-26.8-27.5c-14.8,0-26.8,12.3-26.8,27.5
			S194.8,160.6,209.6,160.6z"/>
		<defs>
			
				<filter id="Adobe_OpacityMaskFilter_00000137822943193794584580000015603998549704282757_" filterUnits="userSpaceOnUse" x="177.2" y="109.3" width="67.3" height="45.6">
				<feColorMatrix  type="matrix" values="1 0 0 0 0  0 1 0 0 0  0 0 1 0 0  0 0 0 1 0"/>
			</filter>
		</defs>
		
			<mask maskUnits="userSpaceOnUse" x="177.2" y="109.3" width="67.3" height="45.6" id="mask1_107_1103_00000178915789549937930730000005734962901698578064_">
			<path style="fill:#FFFFFF;filter:url(#Adobe_OpacityMaskFilter_00000137822943193794584580000015603998549704282757_);" d="
				M209.6,160.6c14.8,0,26.8-12.3,26.8-27.5s-12-27.5-26.8-27.5c-14.8,0-26.8,12.3-26.8,27.5S194.8,160.6,209.6,160.6z"/>
		</mask>
		<g class="st112">
			<path class="st113" d="M188.3,136.7c6.1,0,11.1-5.1,11.1-11.4c0-6.3-5-11.4-11.1-11.4c-6.1,0-11.1,5.1-11.1,11.4
				C177.2,131.6,182.1,136.7,188.3,136.7z"/>
			<path class="st113" d="M218.1,132.1c6.1,0,11.1-5.1,11.1-11.4c0-6.3-5-11.4-11.1-11.4c-6.1,0-11.1,5.1-11.1,11.4
				C207,127,212,132.1,218.1,132.1z"/>
			<path class="st113" d="M233.4,153.2c6.1,0,11.1-5.1,11.1-11.4c0-6.3-5-11.4-11.1-11.4c-6.1,0-11.1,5.1-11.1,11.4
				C222.2,148.1,227.2,153.2,233.4,153.2z"/>
			<path class="st113" d="M205.5,155c6.1,0,11.1-5.1,11.1-11.4c0-6.3-5-11.4-11.1-11.4c-6.1,0-11.1,5.1-11.1,11.4
				C194.3,149.9,199.3,155,205.5,155z"/>
		</g>
		<path class="st114" d="M222.9,70.6c0,3.3-1.3,6-2.8,6s-2.7-3.2-2.7-6.5c0-3.3,2.2-5.4,2.6-5.4C221,64.6,222.9,67.3,222.9,70.6z"/>
		<path class="st114" d="M203.6,73.9c2,2.6,2.6,5.5,1.4,6.5c-1.2,1-4.1-0.8-6.1-3.4c-2-2.6-1.6-5.6-1.2-5.9
			C198.5,70.4,201.6,71.3,203.6,73.9z"/>
		<path class="st83" d="M241.4,92.7c4.4,14.1-3.2,25.7-16,29.8c-13,4.2-26.1-2.5-30.5-16.6c-4.4-14.1-3.6-28.9,14.7-34.4
			C226.1,66.6,237,78.7,241.4,92.7L241.4,92.7z"/>
		<defs>
			
				<filter id="Adobe_OpacityMaskFilter_00000091731550739060733100000010907582331923306624_" filterUnits="userSpaceOnUse" x="171.3" y="66.1" width="93.1" height="71.5">
				<feColorMatrix  type="matrix" values="1 0 0 0 0  0 1 0 0 0  0 0 1 0 0  0 0 0 1 0"/>
			</filter>
		</defs>
		
			<mask maskUnits="userSpaceOnUse" x="171.3" y="66.1" width="93.1" height="71.5" id="mask2_107_1103_00000101094624338670179880000009456613827554684313_">
			<path style="fill:#FFFFFF;filter:url(#Adobe_OpacityMaskFilter_00000091731550739060733100000010907582331923306624_);" d="
				M241.4,92.7c4.4,14.1-3.2,25.7-16,29.8c-13,4.2-26.1-2.5-30.5-16.6c-4.4-14.1-3.6-28.9,14.7-34.4C226.1,66.6,237,78.7,241.4,92.7
				L241.4,92.7z"/>
		</mask>
		<g class="st116">
			<path class="st113" d="M206.8,134.1c11.4-5.3,15.3-21.5,8.9-36c-6.5-14.6-21-22.1-32.3-16.8c-11.4,5.3-15.3,21.5-8.9,36
				C180.9,131.9,195.4,139.4,206.8,134.1z"/>
			<path class="st113" d="M260.8,82.1c6.5,14.6,4.2,30-5.2,34.3c-9.3,4.4-20.9-5.4-29.7-18.6c-7.4-11-5.6-25.7,3.8-30.1
				C239.1,63.4,254.3,67.5,260.8,82.1z"/>
			<path class="st89" d="M231.1,136.7c11.2-3.3,17.9-14.4,15-24.8c-2.9-10.4-14.3-16.2-25.5-12.9c-11.2,3.3-17.9,14.4-15,24.8
				C208.4,134.2,219.9,139.9,231.1,136.7z"/>
		</g>
		<path class="st113" d="M183.4,106c0,0-4.9-19.7,13.1-25.6C196.5,80.4,206.5,102.4,183.4,106z"/>
		<path class="st113" d="M224.8,72c-0.4-0.7,9.5-8.5,23.3,5.2C248.1,77.1,236.7,94.5,224.8,72z"/>
		<path class="st83" d="M207.4,104.3c2.8,0,5.1-2.3,5.1-5.2c0-2.9-2.3-5.2-5.1-5.2c-2.8,0-5.1,2.3-5.1,5.2
			C202.3,102,204.6,104.3,207.4,104.3z"/>
		<path class="st113" d="M208.2,95.9c-1.9-0.1-3.5,1.4-3.5,3.4c0,0,0,0.1,0,0.1c1.4-0.4,2.6-0.3,2.8,0.2c0.2,0.5-0.8,1.4-2.2,1.8
			c0.6,0.9,1.6,1.5,2.7,1.5c1.9,0.1,3.5-1.4,3.5-3.4C211.6,97.6,210.1,96,208.2,95.9L208.2,95.9z"/>
		<path class="st83" d="M233.3,96.4c2.8,0,5.1-2.3,5.1-5.2c0-2.9-2.3-5.2-5.1-5.2c-2.8,0-5.1,2.3-5.1,5.2
			C228.2,94.1,230.5,96.4,233.3,96.4z"/>
		<path class="st113" d="M234.1,88.3c-1.9-0.1-3.5,1.4-3.5,3.4c0,0,0,0.1,0,0.1c1.4-0.4,2.6-0.3,2.8,0.2c0.2,0.5-0.8,1.4-2.2,1.8
			c0.6,0.9,1.6,1.5,2.7,1.5c1.9,0.1,3.5-1.4,3.5-3.4C237.5,90,236,88.3,234.1,88.3L234.1,88.3z"/>
		<path class="st113" d="M220.5,104c0.7,0,1.4-0.6,1.4-1.4c0-0.8-0.6-1.4-1.4-1.4c-0.7,0-1.4,0.6-1.4,1.4
			C219.1,103.4,219.8,104,220.5,104z"/>
		<path class="st113" d="M226,102.2c0.7,0,1.4-0.6,1.4-1.4c0-0.8-0.6-1.4-1.4-1.4c-0.7,0-1.4,0.6-1.4,1.4
			C224.7,101.5,225.3,102.2,226,102.2z"/>
		<path class="st117" d="M228.1,108.9l2.2-2c3.2,3,4.5,5.1,6.5,9.5C233.4,112.5,231.8,110.9,228.1,108.9L228.1,108.9z"/>
		<path class="st117" d="M229.3,107.9l2.4-3.2c4.9,3.1,8.9,7.8,12.5,13.1C239.5,113.3,234.6,109.5,229.3,107.9z"/>
		<path class="st117" d="M231.3,108.1l0.1-3c4.3-0.2,6.7,0.2,11.2,1.9C237.6,106.7,235.3,106.8,231.3,108.1L231.3,108.1z"/>
		<path class="st96" d="M227.4,111.2c-0.2,0-0.4-0.1-0.5-0.2c-0.4-0.3-0.4-0.8-0.2-1.2l4.3-5.7c0.3-0.4,0.8-0.5,1.2-0.2
			c0.4,0.3,0.4,0.8,0.2,1.2l-4.3,5.7C228,111.1,227.7,111.2,227.4,111.2z"/>
	</g>
</g>
</svg>
