<?xml version="1.0" encoding="utf-8"?>
<!-- Generator: Adobe Illustrator 28.2.0, SVG Export Plug-In . SVG Version: 6.00 Build 0)  -->
<svg version="1.1" id="a" xmlns="http://www.w3.org/2000/svg" xmlns:xlink="http://www.w3.org/1999/xlink" x="0px" y="0px"
	 viewBox="0 0 300 680" style="enable-background:new 0 0 300 680;" xml:space="preserve">
<style type="text/css">
	.st0{display:none;fill:#2EC998;}
	.st1{fill:#FCB201;}
	.st2{fill:#F1DDC0;}
	.st3{fill:#E4BE5F;}
	.st4{fill:#F2D268;}
	.st5{fill:#155944;}
</style>
<path class="st0" d="M354.1-21.6H-53.1v724.1h407.1V-21.6z"/>
<path class="st1" d="M255.4,484.2c-120.4,0-218.1,97.7-218.1,218.2v0.2h316.8V507.8C324.4,492.7,290.9,484.2,255.4,484.2
	L255.4,484.2z"/>
<path class="st2" d="M140.9,138.6c-4.4,0-8.6,1.1-12.3,2.9c-6.2-12.3-18.9-20.7-33.5-20.7c-16.9,0-31.3,11.2-35.9,26.7
	c-1.2-0.2-2.4-0.3-3.7-0.3c-12.6,0-22.8,10.2-22.8,22.8c0,5,1.6,9.6,4.4,13.4h124.4c4.1-4.8,6.6-11,6.6-17.8
	C168,150.8,155.9,138.6,140.9,138.6L140.9,138.6z"/>
<path class="st3" d="M273.3,78.4c1.4-1.4,0.7-3.8-1.3-4.1l-6.2-1c-0.8-0.1-1.4-0.6-1.8-1.3l-2.7-5.7c-0.9-1.8-3.4-1.8-4.3-0.1
	l-2.9,5.6c-0.4,0.7-1,1.2-1.8,1.3l-6.3,0.8c-2,0.2-2.8,2.7-1.4,4.1l4.4,4.5c0.6,0.6,0.8,1.3,0.6,2.1l-1.2,6.2
	c-0.4,1.9,1.7,3.5,3.4,2.6l5.6-2.8c0.7-0.3,1.5-0.3,2.2,0l5.5,3c1.7,0.9,3.8-0.5,3.5-2.5l-1-6.2c-0.1-0.8,0.1-1.6,0.7-2.1
	L273.3,78.4L273.3,78.4L273.3,78.4z"/>
<path class="st4" d="M273.3,76.8c1.4-1.4,0.7-3.8-1.3-4.1l-6.2-1c-0.8-0.1-1.4-0.6-1.8-1.3l-2.7-5.7c-0.9-1.8-3.4-1.8-4.3-0.1
	l-2.9,5.6c-0.4,0.7-1,1.2-1.8,1.3l-6.3,0.8c-2,0.2-2.8,2.7-1.4,4.1l4.4,4.5c0.6,0.6,0.8,1.3,0.6,2.1l-1.2,6.2
	c-0.4,1.9,1.7,3.5,3.4,2.6l5.6-2.8c0.7-0.4,1.5-0.3,2.2,0l5.5,3c1.7,0.9,3.8-0.5,3.5-2.5l-1-6.2c-0.1-0.8,0.1-1.6,0.7-2.1
	L273.3,76.8L273.3,76.8L273.3,76.8z"/>
<path class="st3" d="M85.6,441.3c1.4-1.4,0.7-3.8-1.3-4.1l-6.2-1c-0.8-0.1-1.4-0.6-1.8-1.3l-2.7-5.7c-0.8-1.8-3.4-1.8-4.3-0.1
	l-2.9,5.6c-0.4,0.7-1,1.2-1.8,1.3l-6.3,0.8c-2,0.2-2.8,2.6-1.4,4l4.5,4.5c0.5,0.6,0.8,1.4,0.7,2.1l-1.2,6.2c-0.4,2,1.7,3.5,3.4,2.6
	l5.6-2.9c0.7-0.4,1.5-0.3,2.2,0l5.6,3c1.7,1,3.8-0.5,3.5-2.5l-1-6.2c-0.1-0.8,0.2-1.6,0.7-2.1L85.6,441.3L85.6,441.3L85.6,441.3z"/>
<path class="st4" d="M85.6,439.8c1.4-1.4,0.7-3.8-1.3-4.1l-6.2-1c-0.8-0.1-1.4-0.6-1.8-1.3l-2.7-5.7c-0.8-1.8-3.4-1.8-4.3-0.1
	l-2.9,5.6c-0.4,0.7-1,1.2-1.8,1.3l-6.3,0.8c-2,0.2-2.8,2.6-1.4,4l4.5,4.5c0.5,0.6,0.8,1.4,0.7,2.1l-1.2,6.2c-0.4,2,1.7,3.5,3.4,2.6
	l5.6-2.9c0.7-0.4,1.5-0.3,2.2,0l5.6,3c1.7,1,3.8-0.5,3.5-2.5l-1-6.2c-0.1-0.8,0.2-1.6,0.7-2.1L85.6,439.8L85.6,439.8L85.6,439.8z"/>
<path class="st2" d="M302,229.7c-2.8,0-5.4,0.7-7.8,1.9c-3.9-7.8-11.9-13.1-21.2-13.1c-10.7,0-19.8,7.1-22.7,16.9
	c-0.8-0.1-1.5-0.2-2.3-0.2c-8,0-14.4,6.5-14.4,14.4c0,3.2,1,6.1,2.8,8.5H315c2.6-3,4.2-6.9,4.2-11.2
	C319.2,237.4,311.5,229.7,302,229.7L302,229.7L302,229.7z"/>
<path class="st5" d="M171.7,374.5h-12.1c-2,0-3.6,1.6-3.6,3.6v30.1c0,2,1.6,3.6,3.6,3.6h12.1c2,0,3.6-1.6,3.6-3.6v-30.1
	C175.4,376.1,173.7,374.5,171.7,374.5z M214.2,352.9c0,6.4-3.9,10-5.1,14.4h15.4c5.1,0,9,4.2,9,8.8c0,2.7-1.1,5.6-2.9,7.5l0,0
	c1.5,3.5,1.2,8.5-1.4,12.1c1.3,3.9,0,8.8-2.5,11.3c0.6,2.7,0.3,4.9-0.9,6.8c-3.1,4.5-10.8,4.5-17.3,4.5h-0.4
	c-7.3,0-13.3-2.7-18.1-4.8c-2.4-1.1-5.6-2.4-8-2.5c-1,0-1.8-0.8-1.8-1.8v-32.4c0-0.5,0.2-1,0.5-1.3c6-5.9,8.6-12.2,13.5-17.2
	c2.2-2.2,3.1-5.6,3.9-8.9c0.7-2.8,2.1-8.8,5.1-8.8C206.9,340.5,214.2,341.7,214.2,352.9L214.2,352.9z"/>
<path class="st5" d="M85,247.1h-7.2c-1.2,0-2.2,1-2.2,2.1V267c0,1.2,1,2.1,2.2,2.1H85c1.2,0,2.2-1,2.2-2.1v-17.8
	C87.2,248.1,86.2,247.1,85,247.1z M110.1,234.4c0,3.8-2.3,5.9-3,8.5h9.1c3,0,5.3,2.5,5.3,5.2c0,1.6-0.7,3.3-1.7,4.4h0
	c0.9,2.1,0.7,5-0.8,7.1c0.8,2.3,0,5.2-1.5,6.7c0.4,1.6,0.2,2.9-0.6,4c-1.8,2.6-6.4,2.7-10.2,2.7h-0.2c-4.3,0-7.9-1.6-10.7-2.8
	c-1.4-0.6-3.3-1.4-4.7-1.5c-0.6,0-1.1-0.5-1.1-1.1v-19.1c0-0.3,0.1-0.6,0.3-0.8c3.6-3.5,5.1-7.2,8-10.1c1.3-1.3,1.8-3.3,2.3-5.3
	c0.4-1.7,1.2-5.2,3-5.2C105.8,227.1,110.1,227.8,110.1,234.4L110.1,234.4z"/>
<path class="st5" d="M205.1,145.3h-4.5c-0.7,0-1.4,0.6-1.4,1.4v11.1c0,0.7,0.6,1.4,1.4,1.4h4.5c0.7,0,1.4-0.6,1.4-1.4v-11.1
	C206.5,145.9,205.9,145.3,205.1,145.3z M220.8,137.3c0,2.4-1.5,3.7-1.9,5.3h5.7c1.9,0,3.3,1.6,3.3,3.3c0,1-0.4,2.1-1.1,2.8l0,0
	c0.6,1.3,0.5,3.1-0.5,4.5c0.5,1.4,0,3.2-0.9,4.2c0.2,1,0.1,1.8-0.4,2.5c-1.1,1.6-4,1.7-6.4,1.7h-0.2c-2.7,0-4.9-1-6.7-1.8
	c-0.9-0.4-2.1-0.9-3-0.9c-0.4,0-0.7-0.3-0.7-0.7v-12c0-0.2,0.1-0.4,0.2-0.5c2.2-2.2,3.2-4.5,5-6.4c0.8-0.8,1.1-2.1,1.4-3.3
	c0.2-1,0.8-3.2,1.9-3.2C218.1,132.7,220.8,133.2,220.8,137.3L220.8,137.3z"/>
<path class="st5" d="M47.4,28.8h-3.3c-0.5,0-1,0.4-1,1v8.1c0,0.5,0.4,1,1,1h3.3c0.5,0,1-0.4,1-1v-8.1C48.4,29.3,48,28.8,47.4,28.8z
	 M58.9,23c0,1.7-1.1,2.7-1.4,3.9h4.2c1.4,0,2.4,1.1,2.4,2.4c0,0.7-0.3,1.5-0.8,2l0,0c0.4,1,0.3,2.3-0.4,3.3c0.4,1.1,0,2.4-0.7,3.1
	c0.2,0.7,0.1,1.3-0.2,1.8c-0.8,1.2-2.9,1.2-4.7,1.2h-0.1c-2,0-3.6-0.7-4.9-1.3c-0.7-0.3-1.5-0.7-2.2-0.7c-0.3,0-0.5-0.2-0.5-0.5
	v-8.8c0-0.1,0-0.3,0.2-0.4c1.6-1.6,2.3-3.3,3.7-4.6c0.6-0.6,0.8-1.5,1-2.4c0.2-0.8,0.6-2.4,1.4-2.4C57,19.7,58.9,20,58.9,23L58.9,23
	z"/>
</svg>
