<?xml version="1.0" encoding="utf-8"?>
<!-- Generator: Adobe Illustrator 28.2.0, SVG Export Plug-In . SVG Version: 6.00 Build 0)  -->
<svg version="1.1" id="a" xmlns="http://www.w3.org/2000/svg" xmlns:xlink="http://www.w3.org/1999/xlink" x="0px" y="0px"
	 viewBox="0 0 29.8 29.8" style="enable-background:new 0 0 29.8 29.8;" xml:space="preserve">
<style type="text/css">
	.st0{fill-rule:evenodd;clip-rule:evenodd;fill:#FFFFFF;}
</style>
<path class="st0" d="M6.4,26.3c-0.3,0.1-0.5,0.1-0.8,0l-3.9-1c-0.6-0.1-1.1-0.6-1.1-1.3s0.2-1.2,0.7-1.5l0.9-0.5
	c-1.1-2.2-1.6-4.6-1.6-7l0,0h0c0-2.8,0.8-5.6,2.4-8c1.6-2.4,3.8-4.2,6.5-5.3s5.5-1.4,8.3-0.8c2.8,0.6,5.4,1.9,7.4,3.9c0,0,0,0,0,0
	c0.7,0.7,1.4,1.5,1.9,2.4c0.5,0.7,0.2,1.7-0.5,2.1s-1.7,0.2-2.1-0.5c-0.4-0.7-1-1.3-1.5-1.9c0,0,0,0,0,0c-1.6-1.6-3.6-2.7-5.8-3.1
	s-4.5-0.2-6.5,0.6C8.5,5.3,6.7,6.7,5.5,8.6c-1.2,1.9-1.9,4.1-1.9,6.3l0,0c0,1.9,0.4,3.8,1.2,5.5l1.4-0.8c0.5-0.3,1.2-0.3,1.7,0.1
	s0.7,1,0.6,1.6l-1,3.9c0,0.1-0.1,0.3-0.2,0.4C7.1,25.9,6.8,26.2,6.4,26.3L6.4,26.3z"/>
<path class="st0" d="M13.4,27.8c0-0.9,0.7-1.5,1.5-1.5c1,0,1.9-0.1,2.8-0.4c0.8-0.2,1.7,0.3,1.9,1.1c0.2,0.8-0.3,1.7-1.1,1.9
	c-1.2,0.3-2.4,0.5-3.6,0.5C14,29.3,13.3,28.6,13.4,27.8L13.4,27.8z"/>
<path class="st0" d="M20.8,26.4c-0.5-0.7-0.3-1.7,0.4-2.1c1.1-0.7,2-1.6,2.8-2.6c0.5-0.7,1.5-0.8,2.2-0.3s0.8,1.5,0.3,2.2
	c-1,1.3-2.2,2.4-3.5,3.3C22.2,27.3,21.2,27.1,20.8,26.4L20.8,26.4z"/>
<path class="st0" d="M26.7,20.3c-0.8-0.3-1.3-1.1-1-1.9c0.6-1.8,0.7-3.8,0.3-5.6c-0.2-0.8,0.4-1.6,1.2-1.8c0.8-0.2,1.6,0.4,1.8,1.2
	c0.5,2.4,0.3,4.9-0.4,7.2C28.4,20.1,27.5,20.5,26.7,20.3z"/>
</svg>
